GeoramaExtraExtended-LightItalic.ufo
<glyph name="exclam" format="2">
  <advance width="338.0"/>
  <unicode hex="0021"/>
  <outline>
    <contour>
      <point x="136.20000000000002" y="263.0" type="line"/>
      <point x="196.6" y="263.0" type="line"/>
      <point x="275.8" y="740.0" type="line"/>
      <point x="208.0" y="740.0" type="line"/>
    </contour>
    <contour>
      <point x="86.6" y="23.799999999999997" type="curve" smooth="yes"/>
      <point x="85.8" y="4.800000000000001"/>
      <point x="96.6" y="-2.0"/>
      <point x="123.80000000000001" y="-2.0" type="curve" smooth="yes"/>
      <point x="158.39999999999998" y="-2.0"/>
      <point x="173.0" y="6.0"/>
      <point x="175.4" y="45.199999999999996" type="curve" smooth="yes"/>
      <point x="176.20000000000002" y="64.2"/>
      <point x="165.4" y="71.0"/>
      <point x="138.4" y="71.0" type="curve" smooth="yes"/>
      <point x="102.8" y="71.0"/>
      <point x="89.0" y="62.0"/>
    </contour>
  </outline>
</glyph>
<glyph name="numbersign" format="2">
  <advance width="1037.2"/>
  <unicode hex="0023"/>
  <outline>
    <contour>
      <point x="230.79999999999998" y="464.40000000000003" type="line"/>
      <point x="384.59999999999997" y="464.40000000000003" type="line"/>
      <point x="288.0" y="224.6" type="line"/>
      <point x="142.79999999999998" y="224.6" type="line"/>
      <point x="135.8" y="178.6" type="line"/>
      <point x="270.8" y="178.6" type="line"/>
      <point x="199.8" y="0.0" type="line"/>
      <point x="272.0" y="0.0" type="line"/>
      <point x="342.2" y="178.6" type="line"/>
      <point x="586.2" y="178.6" type="line"/>
      <point x="516.0" y="0.0" type="line"/>
      <point x="588.2" y="0.0" type="line"/>
      <point x="658.4" y="178.6" type="line"/>
      <point x="821.4" y="178.6" type="line"/>
      <point x="828.1999999999999" y="224.6" type="line"/>
      <point x="676.8" y="224.6" type="line"/>
      <point x="772.2" y="464.40000000000003" type="line"/>
      <point x="916.2" y="464.40000000000003" type="line"/>
      <point x="924.0" y="510.0" type="line"/>
      <point x="790.1999999999999" y="510.0" type="line"/>
      <point x="866.4" y="700.0" type="line"/>
      <point x="794.1999999999999" y="700.0" type="line"/>
      <point x="718.0" y="510.0" type="line"/>
      <point x="474.0" y="510.0" type="line"/>
      <point x="550.2" y="700.0" type="line"/>
      <point x="478.0" y="700.0" type="line"/>
      <point x="401.8" y="510.0" type="line"/>
      <point x="238.4" y="510.0" type="line"/>
    </contour>
    <contour>
      <point x="456.8" y="464.40000000000003" type="line"/>
      <point x="700.8" y="464.40000000000003" type="line"/>
      <point x="604.2" y="224.6" type="line"/>
      <point x="360.2" y="224.6" type="line"/>
    </contour>
  </outline>
</glyph>
<glyph name="dollar" format="2">
  <advance width="1037.2"/>
  <unicode hex="0024"/>
  <outline>
    <contour>
      <point x="916.2" y="662.2" type="line"/>
      <point x="870.4" y="676.0"/>
      <point x="770.8000000000001" y="706.8"/>
      <point x="634.4" y="709.8000000000001" type="curve"/>
      <point x="650.4" y="805.0" type="line"/>
      <point x="598.8" y="805.0" type="line"/>
      <point x="583.6" y="709.4" type="line"/>
      <point x="422.8" y="706.8000000000001"/>
      <point x="192.20000000000002" y="673.4000000000001"/>
      <point x="192.20000000000002" y="488.99999999999994" type="curve" smooth="yes"/>
      <point x="192.20000000000002" y="237.99999999999997"/>
      <point x="824.8" y="386.0"/>
      <point x="824.8" y="197.2" type="curve" smooth="yes"/>
      <point x="824.8" y="61.0"/>
      <point x="604.8000000000001" y="43.6"/>
      <point x="492.59999999999997" y="43.6" type="curve" smooth="yes"/>
      <point x="343.2" y="43.6"/>
      <point x="166.4" y="92.0"/>
      <point x="110.2" y="112.4" type="curve"/>
      <point x="87.8" y="56.2" type="line"/>
      <point x="160.60000000000002" y="34.400000000000006"/>
      <point x="308.40000000000003" y="-7.4"/>
      <point x="467.0" y="-9.8" type="curve"/>
      <point x="452.0" y="-105.0" type="line"/>
      <point x="503.4" y="-105.0" type="line"/>
      <point x="518.4" y="-8.8" type="line"/>
      <point x="677.6" y="-3.6"/>
      <point x="902.8000000000001" y="26.000000000000007"/>
      <point x="902.8000000000001" y="210.4" type="curve" smooth="yes"/>
      <point x="902.8000000000001" y="457.20000000000005"/>
      <point x="268.40000000000003" y="310.0"/>
      <point x="268.40000000000003" y="502.20000000000005" type="curve" smooth="yes"/>
      <point x="268.40000000000003" y="640.1999999999999"/>
      <point x="486.2" y="655.5999999999999"/>
      <point x="589.8" y="655.5999999999999" type="curve" smooth="yes"/>
      <point x="728.4" y="655.5999999999999"/>
      <point x="827.0" y="630.4"/>
      <point x="895.0" y="606.6" type="curve"/>
    </contour>
  </outline>
</glyph>
<glyph name="ampersand" format="2">
  <advance width="1066.8"/>
  <unicode hex="0026"/>
  <outline>
    <contour>
      <point x="420.4" y="-10.0" type="curve" smooth="yes"/>
      <point x="632.5999999999999" y="-10.0"/>
      <point x="813.5999999999999" y="57.599999999999994"/>
      <point x="892.2" y="288.2" type="curve"/>
      <point x="833.3999999999999" y="294.0" type="line"/>
      <point x="770.0" y="97.6"/>
      <point x="600.0" y="41.0"/>
      <point x="426.0" y="41.0" type="curve" smooth="yes"/>
      <point x="240.79999999999998" y="41.0"/>
      <point x="143.2" y="104.6"/>
      <point x="143.2" y="184.4" type="curve" smooth="yes"/>
      <point x="143.2" y="312.0"/>
      <point x="317.2" y="336.4"/>
      <point x="473.2" y="336.4" type="curve" smooth="yes"/>
      <point x="497.2" y="336.4" type="line"/>
      <point x="503.6" y="377.6" type="line"/>
      <point x="493.40000000000003" y="378.4" type="line" smooth="yes"/>
      <point x="356.40000000000003" y="383.2"/>
      <point x="256.8" y="430.8"/>
      <point x="256.8" y="521.8000000000001" type="curve" smooth="yes"/>
      <point x="256.8" y="589.2"/>
      <point x="322.79999999999995" y="663.8000000000001"/>
      <point x="464.6" y="663.8000000000001" type="curve" smooth="yes"/>
      <point x="549.2" y="663.8000000000001"/>
      <point x="640.0" y="628.6"/>
      <point x="690.6000000000001" y="578.8" type="curve"/>
      <point x="731.1999999999999" y="615.1999999999999" type="line"/>
      <point x="672.0" y="672.8"/>
      <point x="563.4" y="710.0"/>
      <point x="457.20000000000005" y="710.0" type="curve" smooth="yes"/>
      <point x="273.4" y="710.0"/>
      <point x="182.8" y="619.5999999999999"/>
      <point x="182.8" y="531.0" type="curve" smooth="yes"/>
      <point x="182.8" y="440.8"/>
      <point x="265.4" y="375.00000000000006"/>
      <point x="375.8" y="365.6" type="curve"/>
      <point x="199.4" y="360.8"/>
      <point x="68.0" y="308.59999999999997"/>
      <point x="68.0" y="181.6" type="curve" smooth="yes"/>
      <point x="68.0" y="72.60000000000001"/>
      <point x="180.20000000000002" y="-10.0"/>
    </contour>
    <contour>
      <point x="614.4" y="218.2" type="line"/>
      <point x="619.4" y="280.0"/>
      <point x="666.1999999999999" y="305.79999999999995"/>
      <point x="713.2" y="305.79999999999995" type="curve" smooth="yes"/>
      <point x="809.0" y="305.79999999999995"/>
      <point x="851.6" y="261.20000000000005"/>
      <point x="944.8000000000001" y="261.20000000000005" type="curve" smooth="yes"/>
      <point x="1028.6" y="261.20000000000005"/>
      <point x="1083.4" y="325.59999999999997"/>
      <point x="1083.3999999999999" y="410.0" type="curve"/>
      <point x="1036.8" y="410.0" type="line"/>
      <point x="1036.8" y="350.0"/>
      <point x="996.4" y="309.8"/>
      <point x="931.4" y="309.8" type="curve" smooth="yes"/>
      <point x="842.6" y="309.8"/>
      <point x="803.8000000000001" y="356.79999999999995"/>
      <point x="709.8" y="356.79999999999995" type="curve" smooth="yes"/>
      <point x="641.0" y="356.79999999999995"/>
      <point x="579.0" y="310.59999999999997"/>
      <point x="574.0" y="233.00000000000003" type="curve"/>
    </contour>
  </outline>
</glyph>
<glyph name="quotesingle" format="2">
  <advance width="202.79999999999998"/>
  <unicode hex="0027"/>
  <outline>
    <contour>
      <point x="98.80000000000001" y="427.0" type="line"/>
      <point x="151.60000000000002" y="427.0" type="line"/>
      <point x="199.8" y="700.0" type="line"/>
      <point x="137.0" y="700.0" type="line"/>
    </contour>
  </outline>
</glyph>
<glyph name="parenleft" format="2">
  <advance width="468.0"/>
  <unicode hex="0028"/>
  <outline>
    <contour>
      <point x="127.19999999999999" y="131.0" type="curve" smooth="yes"/>
      <point x="127.19999999999999" y="-41.2"/>
      <point x="189.6" y="-189.79999999999998"/>
      <point x="349.6" y="-220.0" type="curve"/>
      <point x="357.20000000000005" y="-173.6" type="line"/>
      <point x="243.6" y="-146.60000000000002"/>
      <point x="185.79999999999998" y="-29.6"/>
      <point x="185.79999999999998" y="131.8" type="curve" smooth="yes"/>
      <point x="185.79999999999998" y="402.2"/>
      <point x="306.0" y="667.2"/>
      <point x="494.6" y="702.0" type="curve"/>
      <point x="502.2" y="750.0" type="line"/>
      <point x="228.8" y="707.1999999999999"/>
      <point x="127.19999999999999" y="377.0"/>
    </contour>
  </outline>
</glyph>
<glyph name="parenright" format="2">
  <advance width="468.0"/>
  <unicode hex="0029"/>
  <outline>
    <contour>
      <point x="337.6" y="397.4" type="curve" smooth="yes"/>
      <point x="337.6" y="575.4"/>
      <point x="273.6" y="719.8000000000001"/>
      <point x="112.8" y="750.0" type="curve"/>
      <point x="105.2" y="701.0" type="line"/>
      <point x="226.8" y="672.4"/>
      <point x="279.0" y="549.8"/>
      <point x="279.0" y="395.6" type="curve" smooth="yes"/>
      <point x="279.0" y="145.2"/>
      <point x="164.4" y="-130.8"/>
      <point x="-31.4" y="-170.4" type="curve"/>
      <point x="-39.0" y="-220.0" type="line"/>
      <point x="204.79999999999998" y="-181.20000000000002"/>
      <point x="337.6" y="114.19999999999997"/>
    </contour>
  </outline>
</glyph>
<glyph name="asterisk" format="2">
  <advance width="466.0"/>
  <unicode hex="002A"/>
  <outline>
    <contour>
      <point x="129.8" y="305.2" type="line"/>
      <point x="263.0" y="464.4" type="line"/>
      <point x="343.79999999999995" y="305.2" type="line"/>
      <point x="374.4" y="324.8" type="line"/>
      <point x="299.59999999999997" y="491.40000000000003" type="line"/>
      <point x="477.20000000000005" y="553.8" type="line"/>
      <point x="471.8" y="587.4000000000001" type="line"/>
      <point x="295.8" y="533.8000000000001" type="line"/>
      <point x="324.2" y="730.0" type="line"/>
      <point x="287.59999999999997" y="730.0" type="line"/>
      <point x="253.59999999999997" y="533.8" type="line"/>
      <point x="92.4" y="587.4" type="line"/>
      <point x="77.80000000000001" y="553.8000000000001" type="line"/>
      <point x="235.0" y="491.4" type="line"/>
      <point x="105.0" y="326.4" type="line"/>
    </contour>
  </outline>
</glyph>
<glyph name="plus" format="2">
  <advance width="558.0"/>
  <unicode hex="002B"/>
  <outline>
    <contour>
      <point x="217.6" y="75.0" type="line"/>
      <point x="278.2" y="75.0" type="line"/>
      <point x="307.8" y="267.2" type="line"/>
      <point x="494.2" y="267.2" type="line"/>
      <point x="503.4" y="322.6" type="line"/>
      <point x="317.0" y="322.6" type="line"/>
      <point x="347.6" y="514.6" type="line"/>
      <point x="287.40000000000003" y="514.6" type="line"/>
      <point x="256.4" y="322.6" type="line"/>
      <point x="70.60000000000001" y="322.6" type="line"/>
      <point x="61.4" y="267.2" type="line"/>
      <point x="247.6" y="267.2" type="line"/>
    </contour>
  </outline>
</glyph>
<glyph name="comma" format="2">
  <advance width="246.2"/>
  <unicode hex="002C"/>
  <outline>
    <contour>
      <point x="56.199999999999996" y="44.6" type="line"/>
      <point x="59.2" y="29.0"/>
      <point x="60.0" y="12.400000000000002"/>
      <point x="59.2" y="-3.999999999999999" type="curve" smooth="yes"/>
      <point x="56.4" y="-68.6"/>
      <point x="13.400000000000002" y="-147.6"/>
      <point x="-55.599999999999994" y="-181.79999999999998" type="curve"/>
      <point x="-8.799999999999997" y="-200.0" type="line"/>
      <point x="75.2" y="-163.0"/>
      <point x="128.4" y="-68.4"/>
      <point x="128.4" y="8.8" type="curve" smooth="yes"/>
      <point x="128.4" y="24.6"/>
      <point x="125.80000000000001" y="39.6"/>
      <point x="121.19999999999999" y="52.0" type="curve"/>
    </contour>
  </outline>
</glyph>
<glyph name="hyphen" format="2">
  <advance width="472.40000000000003"/>
  <unicode hex="002D"/>
  <outline>
    <contour>
      <point x="71.2" y="246.79999999999998" type="line"/>
      <point x="392.2" y="246.79999999999998" type="line"/>
      <point x="401.4" y="303.59999999999997" type="line"/>
      <point x="80.4" y="303.59999999999997" type="line"/>
    </contour>
  </outline>
</glyph>
<glyph name="period" format="2">
  <advance width="248.8"/>
  <unicode hex="002E"/>
  <outline>
    <contour>
      <point x="41.599999999999994" y="23.8" type="curve" smooth="yes"/>
      <point x="40.8" y="4.800000000000001"/>
      <point x="51.6" y="-2.0"/>
      <point x="78.8" y="-2.0" type="curve" smooth="yes"/>
      <point x="113.4" y="-2.0"/>
      <point x="128.0" y="6.000000000000002"/>
      <point x="130.4" y="45.199999999999996" type="curve" smooth="yes"/>
      <point x="131.2" y="64.2"/>
      <point x="120.4" y="71.00000000000001"/>
      <point x="93.4" y="71.00000000000001" type="curve" smooth="yes"/>
      <point x="57.800000000000004" y="71.00000000000001"/>
      <point x="44.0" y="62.00000000000001"/>
    </contour>
  </outline>
</glyph>
<glyph name="slash" format="2">
  <advance width="468.6"/>
  <unicode hex="002F"/>
  <outline>
    <contour>
      <point x="-67.0" y="-210.0" type="line"/>
      <point x="-5.9999999999999964" y="-210.0" type="line"/>
      <point x="532.5999999999999" y="740.0" type="line"/>
      <point x="471.4" y="740.0" type="line"/>
    </contour>
  </outline>
</glyph>
<glyph name="zero" format="2">
  <advance width="1037.2"/>
  <unicode hex="0030"/>
  <outline>
    <contour>
      <point x="512.4" y="-10.0" type="curve" smooth="yes"/>
      <point x="794.0" y="-10.0"/>
      <point x="978.4" y="121.2"/>
      <point x="978.4" y="377.0" type="curve" smooth="yes"/>
      <point x="978.4" y="593.8000000000001"/>
      <point x="817.0" y="710.0"/>
      <point x="547.8" y="710.0" type="curve" smooth="yes"/>
      <point x="265.2" y="710.0"/>
      <point x="82.8" y="581.1999999999999"/>
      <point x="82.8" y="325.4" type="curve" smooth="yes"/>
      <point x="82.8" y="108.60000000000001"/>
      <point x="245.2" y="-10.0"/>
    </contour>
    <contour>
      <point x="513.6" y="42.2" type="curve" smooth="yes"/>
      <point x="293.2" y="42.2"/>
      <point x="159.4" y="140.2"/>
      <point x="159.4" y="327.0" type="curve" smooth="yes"/>
      <point x="159.4" y="543.8"/>
      <point x="301.40000000000003" y="657.8000000000001"/>
      <point x="547.0" y="657.8000000000001" type="curve" smooth="yes"/>
      <point x="768.6" y="657.8000000000001"/>
      <point x="901.8" y="561.4"/>
      <point x="901.8" y="374.6" type="curve" smooth="yes"/>
      <point x="901.8" y="158.8"/>
      <point x="758.2" y="42.2"/>
    </contour>
  </outline>
</glyph>
<glyph name="one" format="2">
  <advance width="1037.2"/>
  <unicode hex="0031"/>
  <outline>
    <contour>
      <point x="110.4" y="0.0" type="line"/>
      <point x="908.1999999999999" y="0.0" type="line"/>
      <point x="917.2" y="55.2" type="line"/>
      <point x="589.6" y="55.2" type="line"/>
      <point x="694.0" y="708.0" type="line"/>
      <point x="656.6" y="708.0" type="line"/>
      <point x="177.6" y="507.4" type="line"/>
      <point x="188.8" y="452.4" type="line"/>
      <point x="607.6" y="630.0" type="line"/>
      <point x="516.6" y="55.2" type="line"/>
      <point x="119.4" y="55.2" type="line"/>
    </contour>
  </outline>
</glyph>
<glyph name="two" format="2">
  <advance width="1037.2"/>
  <unicode hex="0032"/>
  <outline>
    <contour>
      <point x="112.2" y="43.4" type="curve"/>
      <point x="108.19999999999999" y="0.0" type="line"/>
      <point x="891.0" y="0.0" type="line"/>
      <point x="898.1999999999999" y="55.4" type="line"/>
      <point x="253.8" y="55.4" type="line"/>
      <point x="729.4" y="270.6"/>
      <point x="819.8000000000001" y="359.8"/>
      <point x="819.8000000000001" y="501.20000000000005" type="curve" smooth="yes"/>
      <point x="819.8000000000001" y="639.4000000000001"/>
      <point x="692.2" y="710.0"/>
      <point x="509.99999999999994" y="710.0" type="curve" smooth="yes"/>
      <point x="403.6" y="710.0"/>
      <point x="280.6" y="681.0"/>
      <point x="197.2" y="640.2" type="curve"/>
      <point x="209.0" y="585.0" type="line"/>
      <point x="291.0" y="621.4"/>
      <point x="396.4" y="651.4"/>
      <point x="501.20000000000005" y="651.4" type="curve" smooth="yes"/>
      <point x="641.1999999999999" y="651.4"/>
      <point x="743.2" y="601.0"/>
      <point x="743.2" y="490.40000000000003" type="curve" smooth="yes"/>
      <point x="743.2" y="356.40000000000003"/>
      <point x="593.2" y="260.4"/>
    </contour>
  </outline>
</glyph>
<glyph name="three" format="2">
  <advance width="1037.2"/>
  <unicode hex="0033"/>
  <outline>
    <contour>
      <point x="42.00000000000001" y="78.2" type="line"/>
      <point x="159.79999999999998" y="19.0"/>
      <point x="297.2" y="-10.0"/>
      <point x="473.6" y="-10.0" type="curve" smooth="yes"/>
      <point x="739.2" y="-10.0"/>
      <point x="908.2" y="67.0"/>
      <point x="908.2" y="219.39999999999998" type="curve" smooth="yes"/>
      <point x="908.2" y="305.79999999999995"/>
      <point x="830.6" y="356.6"/>
      <point x="703.2" y="371.0" type="curve"/>
      <point x="803.4" y="385.79999999999995"/>
      <point x="897.0000000000001" y="445.0"/>
      <point x="897.0000000000001" y="548.0" type="curve" smooth="yes"/>
      <point x="897.0000000000001" y="651.8000000000001"/>
      <point x="776.8" y="710.0"/>
      <point x="545.2" y="710.0" type="curve" smooth="yes"/>
      <point x="437.8" y="710.0"/>
      <point x="294.0" y="691.0"/>
      <point x="192.60000000000002" y="664.0" type="curve"/>
      <point x="204.00000000000003" y="609.6" type="line"/>
      <point x="303.6" y="635.1999999999999"/>
      <point x="435.59999999999997" y="653.1999999999999"/>
      <point x="527.0" y="653.1999999999999" type="curve" smooth="yes"/>
      <point x="712.9999999999999" y="653.1999999999999"/>
      <point x="819.8" y="610.6"/>
      <point x="819.8" y="531.1999999999999" type="curve" smooth="yes"/>
      <point x="819.8" y="437.2"/>
      <point x="710.2" y="391.79999999999995"/>
      <point x="576.6" y="391.79999999999995" type="curve" smooth="yes"/>
      <point x="318.2" y="391.79999999999995" type="line"/>
      <point x="309.59999999999997" y="338.2" type="line"/>
      <point x="554.4" y="338.2" type="line" smooth="yes"/>
      <point x="738.8" y="338.2"/>
      <point x="830.8" y="295.2"/>
      <point x="830.8" y="211.6" type="curve" smooth="yes"/>
      <point x="830.8" y="107.39999999999999"/>
      <point x="706.9999999999999" y="46.4"/>
      <point x="483.20000000000005" y="46.4" type="curve" smooth="yes"/>
      <point x="307.40000000000003" y="46.4"/>
      <point x="177.60000000000002" y="74.8"/>
      <point x="66.8" y="131.0" type="curve"/>
    </contour>
  </outline>
</glyph>
<glyph name="four" format="2">
  <advance width="1037.2"/>
  <unicode hex="0034"/>
  <outline>
    <contour>
      <point x="68.4" y="182.4" type="line"/>
      <point x="676.4" y="182.4" type="line"/>
      <point x="646.4" y="-5.8" type="line"/>
      <point x="719.6" y="-5.8" type="line"/>
      <point x="749.6" y="182.4" type="line"/>
      <point x="942.8000000000001" y="182.4" type="line"/>
      <point x="951.0000000000001" y="233.39999999999998" type="line"/>
      <point x="757.8" y="233.39999999999998" type="line"/>
      <point x="831.4" y="694.6000000000001" type="line"/>
      <point x="789.0" y="702.6000000000001" type="line"/>
      <point x="72.80000000000001" y="223.6" type="line"/>
    </contour>
    <contour>
      <point x="166.60000000000002" y="233.39999999999998" type="line"/>
      <point x="745.6000000000001" y="617.2" type="line"/>
      <point x="684.6" y="233.39999999999998" type="line"/>
    </contour>
  </outline>
</glyph>
<glyph name="five" format="2">
  <advance width="1037.2"/>
  <unicode hex="0035"/>
  <outline>
    <contour>
      <point x="76.2" y="78.2" type="line"/>
      <point x="172.99999999999997" y="21.799999999999997"/>
      <point x="289.4" y="-10.0"/>
      <point x="464.59999999999997" y="-10.0" type="curve" smooth="yes"/>
      <point x="783.2" y="-10.0"/>
      <point x="910.6" y="89.60000000000001"/>
      <point x="910.6" y="240.2" type="curve" smooth="yes"/>
      <point x="910.6" y="361.2"/>
      <point x="823.4000000000001" y="419.0"/>
      <point x="624.0" y="419.0" type="curve" smooth="yes"/>
      <point x="248.79999999999998" y="419.0" type="line"/>
      <point x="323.2" y="643.0" type="line"/>
      <point x="908.8" y="643.0" type="line"/>
      <point x="919.1999999999999" y="700.0" type="line"/>
      <point x="281.40000000000003" y="700.0" type="line"/>
      <point x="174.2" y="377.2" type="line"/>
      <point x="181.6" y="367.99999999999994" type="line"/>
      <point x="585.1999999999999" y="367.99999999999994" type="line" smooth="yes"/>
      <point x="762.4000000000001" y="367.99999999999994"/>
      <point x="838.8" y="330.8"/>
      <point x="838.8" y="230.6" type="curve" smooth="yes"/>
      <point x="838.8" y="112.6"/>
      <point x="701.2" y="45.800000000000004"/>
      <point x="472.2" y="45.800000000000004" type="curve" smooth="yes"/>
      <point x="303.79999999999995" y="45.800000000000004"/>
      <point x="189.0" y="79.4"/>
      <point x="100.4" y="129.8" type="curve"/>
    </contour>
  </outline>
</glyph>
<glyph name="six" format="2">
  <advance width="1037.2"/>
  <unicode hex="0036"/>
  <note>
14
</note>
  <outline>
    <contour>
      <point x="498.99999999999994" y="-10.0" type="curve" smooth="yes"/>
      <point x="777.2" y="-10.0"/>
      <point x="957.2" y="64.2"/>
      <point x="957.2" y="235.2" type="curve" smooth="yes"/>
      <point x="957.2" y="370.20000000000005"/>
      <point x="841.0" y="445.2"/>
      <point x="616.4000000000001" y="445.2" type="curve" smooth="yes"/>
      <point x="466.40000000000003" y="445.2"/>
      <point x="286.6" y="406.79999999999995"/>
      <point x="170.60000000000002" y="347.2" type="curve"/>
      <point x="167.20000000000002" y="292.0" type="line"/>
      <point x="271.0" y="351.8"/>
      <point x="441.8" y="392.2"/>
      <point x="590.4" y="392.2" type="curve" smooth="yes"/>
      <point x="786.6" y="392.2"/>
      <point x="882.0" y="337.0"/>
      <point x="882.0" y="234.00000000000003" type="curve" smooth="yes"/>
      <point x="882.0" y="111.8"/>
      <point x="753.4" y="44.6"/>
      <point x="516.8" y="44.6" type="curve" smooth="yes"/>
      <point x="282.2" y="44.6"/>
      <point x="174.2" y="116.2"/>
      <point x="174.2" y="284.4" type="curve" smooth="yes"/>
      <point x="174.2" y="414.2"/>
      <point x="228.4" y="515.8"/>
      <point x="327.4" y="579.2" type="curve" smooth="yes"/>
      <point x="405.0" y="628.8"/>
      <point x="510.4" y="654.1999999999999"/>
      <point x="634.8000000000001" y="654.1999999999999" type="curve" smooth="yes"/>
      <point x="754.0" y="654.1999999999999"/>
      <point x="853.2" y="641.0"/>
      <point x="959.0" y="611.4000000000001" type="curve"/>
      <point x="978.8" y="665.8000000000001" type="line"/>
      <point x="879.8" y="693.5999999999999"/>
      <point x="760.8000000000001" y="710.0"/>
      <point x="638.8" y="710.0" type="curve" smooth="yes"/>
      <point x="307.4" y="710.0"/>
      <point x="100.8" y="552.8000000000001"/>
      <point x="100.8" y="277.40000000000003" type="curve" smooth="yes"/>
      <point x="100.8" y="80.4"/>
      <point x="235.6" y="-10.0"/>
    </contour>
  </outline>
</glyph>
<glyph name="seven" format="2">
  <advance width="1037.2"/>
  <unicode hex="0037"/>
  <note>
9
</note>
  <outline>
    <contour>
      <point x="311.40000000000003" y="0.0" type="curve"/>
      <point x="390.0" y="0.0" type="line"/>
      <point x="415.59999999999997" y="153.4"/>
      <point x="498.0" y="237.59999999999997"/>
      <point x="690.4000000000001" y="417.4" type="curve" smooth="yes"/>
      <point x="940.4" y="650.8" type="line"/>
      <point x="948.6" y="700.0" type="line"/>
      <point x="165.20000000000002" y="700.0" type="line"/>
      <point x="156.2" y="640.8" type="line"/>
      <point x="847.4" y="640.8" type="line"/>
      <point x="612.8000000000001" y="424.6" type="line" smooth="yes"/>
      <point x="424.40000000000003" y="250.6"/>
      <point x="337.8" y="165.0"/>
    </contour>
  </outline>
</glyph>
<glyph name="eight" format="2">
  <advance width="1037.2"/>
  <unicode hex="0038"/>
  <outline>
    <contour>
      <point x="478.2" y="-10.0" type="curve" smooth="yes"/>
      <point x="728.4" y="-10.0"/>
      <point x="944.8" y="28.799999999999994"/>
      <point x="944.8" y="216.0" type="curve" smooth="yes"/>
      <point x="944.8" y="491.4"/>
      <point x="236.0" y="304.6"/>
      <point x="236.0" y="517.0" type="curve" smooth="yes"/>
      <point x="236.0" y="627.4000000000001"/>
      <point x="381.6" y="658.6"/>
      <point x="568.2" y="658.6" type="curve" smooth="yes"/>
      <point x="784.4000000000001" y="658.6"/>
      <point x="874.0" y="615.4"/>
      <point x="874.0" y="533.5999999999999" type="curve" smooth="yes"/>
      <point x="874.0" y="447.59999999999997"/>
      <point x="813.8000000000001" y="408.8"/>
      <point x="693.2" y="368.2" type="curve"/>
      <point x="755.8000000000001" y="354.2" type="line"/>
      <point x="864.4" y="389.40000000000003"/>
      <point x="941.0" y="441.0"/>
      <point x="941.0" y="542.6" type="curve" smooth="yes"/>
      <point x="941.0" y="650.1999999999999"/>
      <point x="831.6" y="710.0"/>
      <point x="571.8000000000001" y="710.0" type="curve" smooth="yes"/>
      <point x="353.20000000000005" y="710.0"/>
      <point x="166.60000000000002" y="670.2"/>
      <point x="166.60000000000002" y="509.79999999999995" type="curve" smooth="yes"/>
      <point x="166.60000000000002" y="237.2"/>
      <point x="867.4" y="432.4"/>
      <point x="867.4" y="207.0" type="curve" smooth="yes"/>
      <point x="867.4" y="68.6"/>
      <point x="692.2" y="38.60000000000001"/>
      <point x="483.2" y="38.60000000000001" type="curve" smooth="yes"/>
      <point x="241.8" y="38.60000000000001"/>
      <point x="141.2" y="88.19999999999999"/>
      <point x="141.2" y="187.4" type="curve" smooth="yes"/>
      <point x="141.2" y="285.4"/>
      <point x="222.60000000000002" y="341.0"/>
      <point x="349.79999999999995" y="372.0" type="curve"/>
      <point x="281.6" y="392.4" type="line"/>
      <point x="157.79999999999998" y="360.59999999999997"/>
      <point x="67.4" y="296.4"/>
      <point x="67.4" y="179.6" type="curve" smooth="yes"/>
      <point x="67.4" y="53.8"/>
      <point x="188.8" y="-10.0"/>
    </contour>
  </outline>
</glyph>
<glyph name="nine" format="2">
  <advance width="1037.2"/>
  <unicode hex="0039"/>
  <outline>
    <contour>
      <point x="574.0" y="710.0" type="curve" smooth="yes"/>
      <point x="276.20000000000005" y="710.0"/>
      <point x="121.8" y="622.2"/>
      <point x="121.8" y="462.0" type="curve" smooth="yes"/>
      <point x="121.8" y="327.0"/>
      <point x="238.0" y="254.79999999999998"/>
      <point x="462.59999999999997" y="254.79999999999998" type="curve" smooth="yes"/>
      <point x="612.6" y="254.79999999999998"/>
      <point x="792.4" y="293.2"/>
      <point x="908.4" y="352.8" type="curve"/>
      <point x="911.8" y="408.0" type="line"/>
      <point x="808.0" y="348.20000000000005"/>
      <point x="637.2" y="307.8"/>
      <point x="488.6" y="307.8" type="curve" smooth="yes"/>
      <point x="292.40000000000003" y="307.8"/>
      <point x="197.0" y="363.0"/>
      <point x="197.0" y="466.0" type="curve" smooth="yes"/>
      <point x="197.0" y="588.1999999999999"/>
      <point x="319.6" y="655.4"/>
      <point x="556.1999999999999" y="655.4" type="curve" smooth="yes"/>
      <point x="790.8" y="655.4"/>
      <point x="904.8" y="583.8"/>
      <point x="904.8" y="415.6" type="curve" smooth="yes"/>
      <point x="904.8" y="285.8"/>
      <point x="850.6" y="184.2"/>
      <point x="751.6" y="120.8" type="curve" smooth="yes"/>
      <point x="674.0" y="71.19999999999999"/>
      <point x="568.6" y="45.800000000000004"/>
      <point x="444.20000000000005" y="45.800000000000004" type="curve" smooth="yes"/>
      <point x="325.0" y="45.800000000000004"/>
      <point x="225.79999999999998" y="59.00000000000001"/>
      <point x="120.0" y="88.60000000000001" type="curve"/>
      <point x="100.2" y="34.199999999999996" type="line"/>
      <point x="199.2" y="6.3999999999999995"/>
      <point x="318.2" y="-10.0"/>
      <point x="440.2" y="-10.0" type="curve" smooth="yes"/>
      <point x="771.6" y="-10.0"/>
      <point x="978.2" y="147.20000000000002"/>
      <point x="978.2" y="422.59999999999997" type="curve" smooth="yes"/>
      <point x="978.2" y="616.4000000000001"/>
      <point x="841.8000000000001" y="710.0"/>
    </contour>
  </outline>
</glyph>
<glyph name="less" format="2">
  <advance width="558.8000000000001"/>
  <unicode hex="003C"/>
  <outline>
    <contour>
      <point x="461.40000000000003" y="59.4" type="line"/>
      <point x="470.59999999999997" y="118.80000000000001" type="line"/>
      <point x="127.6" y="294.8" type="line"/>
      <point x="526.8" y="470.59999999999997" type="line"/>
      <point x="536.0" y="531.1999999999999" type="line"/>
      <point x="70.6" y="326.0" type="line"/>
      <point x="61.2" y="266.0" type="line"/>
    </contour>
  </outline>
</glyph>
<glyph name="equal" format="2">
  <advance width="558.1999999999999"/>
  <unicode hex="003D"/>
  <outline>
    <contour>
      <point x="486.6" y="216.60000000000002" type="line"/>
      <point x="53.8" y="216.60000000000002" type="line"/>
      <point x="44.599999999999994" y="161.20000000000002" type="line"/>
      <point x="477.40000000000003" y="161.20000000000002" type="line"/>
    </contour>
    <contour>
      <point x="520.4" y="431.0" type="line"/>
      <point x="87.39999999999999" y="431.0" type="line"/>
      <point x="78.39999999999999" y="375.6" type="line"/>
      <point x="511.2" y="375.6" type="line"/>
    </contour>
  </outline>
</glyph>
<glyph name="greater" format="2">
  <advance width="558.8000000000001"/>
  <unicode hex="003E"/>
  <outline>
    <contour>
      <point x="494.4" y="266.0" type="line"/>
      <point x="503.40000000000003" y="323.0" type="line"/>
      <point x="103.6" y="529.2" type="line"/>
      <point x="94.0" y="471.4" type="line"/>
      <point x="437.2" y="294.79999999999995" type="line"/>
      <point x="38.199999999999996" y="119.6" type="line"/>
      <point x="28.8" y="59.400000000000006" type="line"/>
    </contour>
  </outline>
</glyph>
<glyph name="question" format="2">
  <advance width="667.0"/>
  <unicode hex="003F"/>
  <outline>
    <contour>
      <point x="271.6" y="260.8" type="line"/>
      <point x="331.79999999999995" y="260.8" type="line"/>
      <point x="342.59999999999997" y="322.2" type="line"/>
      <point x="551.8000000000001" y="364.79999999999995"/>
      <point x="669.0" y="431.4"/>
      <point x="669.0" y="575.8000000000001" type="curve" smooth="yes"/>
      <point x="669.0" y="706.8"/>
      <point x="535.6" y="750.0"/>
      <point x="411.2" y="750.0" type="curve" smooth="yes"/>
      <point x="302.40000000000003" y="750.0"/>
      <point x="173.0" y="720.8"/>
      <point x="74.39999999999999" y="667.6" type="curve"/>
      <point x="85.8" y="617.2" type="line"/>
      <point x="182.60000000000002" y="663.8"/>
      <point x="295.2" y="693.6"/>
      <point x="398.2" y="693.6" type="curve" smooth="yes"/>
      <point x="499.40000000000003" y="693.6"/>
      <point x="596.4" y="669.0"/>
      <point x="596.4" y="562.8000000000001" type="curve" smooth="yes"/>
      <point x="596.4" y="473.40000000000003"/>
      <point x="535.5999999999999" y="402.6"/>
      <point x="286.0" y="361.6" type="curve"/>
    </contour>
    <contour>
      <point x="227.79999999999998" y="21.6" type="curve" smooth="yes"/>
      <point x="228.0" y="4.6000000000000005"/>
      <point x="238.6" y="-2.0"/>
      <point x="265.0" y="-2.0" type="curve" smooth="yes"/>
      <point x="298.20000000000005" y="-2.0"/>
      <point x="317.4" y="6.0"/>
      <point x="316.8" y="46.60000000000001" type="curve" smooth="yes"/>
      <point x="316.6" y="64.2"/>
      <point x="305.8" y="70.8"/>
      <point x="279.79999999999995" y="70.8" type="curve" smooth="yes"/>
      <point x="245.8" y="70.8"/>
      <point x="227.2" y="62.2"/>
    </contour>
  </outline>
</glyph>
<glyph name="at" format="2">
  <advance width="1073.0"/>
  <unicode hex="0040"/>
  <outline>
    <contour>
      <point x="453.6" y="-118.6" type="curve" smooth="yes"/>
      <point x="553.6" y="-118.6"/>
      <point x="655.0" y="-94.8"/>
      <point x="748.6" y="-51.8" type="curve"/>
      <point x="739.8" y="-14.200000000000001" type="line"/>
      <point x="647.0" y="-55.0"/>
      <point x="548.2" y="-75.39999999999999"/>
      <point x="458.6" y="-75.39999999999999" type="curve" smooth="yes"/>
      <point x="244.6" y="-75.39999999999999"/>
      <point x="114.0" y="42.2"/>
      <point x="114.0" y="230.60000000000002" type="curve" smooth="yes"/>
      <point x="114.0" y="493.59999999999997"/>
      <point x="321.59999999999997" y="695.4"/>
      <point x="616.6" y="695.4" type="curve" smooth="yes"/>
      <point x="842.5999999999999" y="695.4"/>
      <point x="974.6000000000001" y="577.4000000000001"/>
      <point x="974.6000000000001" y="395.59999999999997" type="curve" smooth="yes"/>
      <point x="974.6000000000001" y="246.6"/>
      <point x="894.2" y="125.6"/>
      <point x="811.6" y="125.6" type="curve" smooth="yes"/>
      <point x="749.0" y="125.6"/>
      <point x="742.8000000000001" y="185.6"/>
      <point x="759.8" y="269.0" type="curve" smooth="yes"/>
      <point x="809.1999999999999" y="508.0" type="line"/>
      <point x="740.0" y="528.4000000000001"/>
      <point x="672.6" y="539.6"/>
      <point x="620.1999999999999" y="539.6" type="curve" smooth="yes"/>
      <point x="420.8" y="539.6"/>
      <point x="273.8" y="414.0"/>
      <point x="273.8" y="247.59999999999997" type="curve" smooth="yes"/>
      <point x="273.8" y="140.20000000000002"/>
      <point x="335.20000000000005" y="83.6"/>
      <point x="447.8" y="83.6" type="curve" smooth="yes"/>
      <point x="538.5999999999999" y="83.6"/>
      <point x="638.6" y="133.4"/>
      <point x="692.8000000000001" y="206.79999999999998" type="curve"/>
      <point x="688.8" y="115.60000000000001"/>
      <point x="734.4" y="78.6"/>
      <point x="802.8" y="78.6" type="curve" smooth="yes"/>
      <point x="922.4" y="78.6"/>
      <point x="1020.3999999999999" y="221.6"/>
      <point x="1020.3999999999999" y="396.0" type="curve" smooth="yes"/>
      <point x="1020.3999999999999" y="604.0"/>
      <point x="866.8000000000001" y="738.2"/>
      <point x="622.1999999999999" y="738.2" type="curve" smooth="yes"/>
      <point x="299.4" y="738.2"/>
      <point x="68.39999999999999" y="523.0"/>
      <point x="68.39999999999999" y="225.39999999999998" type="curve" smooth="yes"/>
      <point x="68.39999999999999" y="12.2"/>
      <point x="215.39999999999998" y="-118.6"/>
    </contour>
    <contour>
      <point x="477.20000000000005" y="138.0" type="curve" smooth="yes"/>
      <point x="388.8" y="138.0"/>
      <point x="343.2" y="180.0"/>
      <point x="343.2" y="258.8" type="curve" smooth="yes"/>
      <point x="343.2" y="388.79999999999995"/>
      <point x="455.6" y="487.40000000000003"/>
      <point x="602.2" y="487.40000000000003" type="curve" smooth="yes"/>
      <point x="652.5999999999999" y="487.40000000000003"/>
      <point x="688.6" y="482.2"/>
      <point x="737.0" y="467.20000000000005" type="curve"/>
      <point x="694.8000000000001" y="265.59999999999997" type="line" smooth="yes"/>
      <point x="656.5999999999999" y="193.6"/>
      <point x="562.8" y="138.0"/>
    </contour>
  </outline>
</glyph>
<glyph name="A" format="2">
  <advance width="913.5999999999999"/>
  <unicode hex="0041"/>
  <anchor x="413.644" y="0.0" name="bottom"/>
  <anchor x="858.0" y="0.0" name="ogonek"/>
  <anchor x="526.4000000000001" y="700.0" name="top"/>
  <outline>
    <contour>
      <point x="-32.4" y="0.0" type="line"/>
      <point x="54.00000000000001" y="0.0" type="line"/>
      <point x="197.8" y="197.8" type="line"/>
      <point x="692.6" y="197.8" type="line"/>
      <point x="773.2" y="0.0" type="line"/>
      <point x="858.0" y="0.0" type="line"/>
      <point x="560.6" y="710.0" type="line"/>
      <point x="490.8" y="710.0" type="line"/>
    </contour>
    <contour>
      <point x="231.0" y="251.0" type="line"/>
      <point x="517.2" y="641.1999999999999" type="line"/>
      <point x="677.4000000000001" y="251.0" type="line"/>
    </contour>
  </outline>
</glyph>
<glyph name="B" format="2">
  <advance width="991.4"/>
  <unicode hex="0042"/>
  <outline>
    <contour>
      <point x="81.8" y="5.0" type="line"/>
      <point x="277.8" y="-5.4"/>
      <point x="360.00000000000006" y="-10.0"/>
      <point x="489.99999999999994" y="-10.0" type="curve" smooth="yes"/>
      <point x="661.4" y="-10.0"/>
      <point x="917.8000000000001" y="-4.199999999999989"/>
      <point x="917.8000000000001" y="220.4" type="curve" smooth="yes"/>
      <point x="917.8000000000001" y="307.4"/>
      <point x="840.0000000000001" y="368.4"/>
      <point x="735.6000000000001" y="375.79999999999995" type="curve"/>
      <point x="821.4000000000001" y="394.2"/>
      <point x="915.4000000000001" y="448.79999999999995"/>
      <point x="915.4000000000001" y="554.6" type="curve" smooth="yes"/>
      <point x="915.4000000000001" y="669.8000000000001"/>
      <point x="809.8000000000001" y="710.0"/>
      <point x="577.4000000000001" y="710.0" type="curve" smooth="yes"/>
      <point x="490.0" y="710.0"/>
      <point x="388.8" y="706.0"/>
      <point x="192.0" y="695.0" type="curve"/>
    </contour>
    <contour>
      <point x="218.6" y="389.8" type="line"/>
      <point x="258.0" y="641.4" type="line"/>
      <point x="366.2" y="647.5999999999999"/>
      <point x="459.0" y="654.4000000000001"/>
      <point x="563.2" y="654.4000000000001" type="curve" smooth="yes"/>
      <point x="749.4000000000001" y="654.4000000000001"/>
      <point x="837.4" y="629.2"/>
      <point x="837.4" y="536.8" type="curve" smooth="yes"/>
      <point x="837.4" y="429.4"/>
      <point x="705.2" y="389.8"/>
      <point x="613.8" y="389.8" type="curve" smooth="yes"/>
    </contour>
    <contour>
      <point x="210.0" y="341.4" type="line"/>
      <point x="612.8000000000001" y="341.4" type="line" smooth="yes"/>
      <point x="708.4000000000001" y="341.4"/>
      <point x="839.2" y="319.2"/>
      <point x="839.2" y="217.0" type="curve" smooth="yes"/>
      <point x="839.2" y="57.79999999999999"/>
      <point x="649.2" y="45.0"/>
      <point x="495.19999999999993" y="45.0" type="curve" smooth="yes"/>
      <point x="370.8" y="45.0"/>
      <point x="290.2" y="51.800000000000004"/>
      <point x="165.4" y="57.599999999999994" type="curve"/>
    </contour>
  </outline>
</glyph>
<glyph name="C" format="2">
  <advance width="1000.0000000000001"/>
  <unicode hex="0043"/>
  <anchor x="544.0" y="0.0" name="bottom"/>
  <anchor x="639.2" y="700.0" name="top"/>
  <outline>
    <contour>
      <point x="567.2" y="-10.0" type="curve" smooth="yes"/>
      <point x="700.0" y="-10.0"/>
      <point x="813.6" y="6.2"/>
      <point x="911.0" y="38.60000000000001" type="curve"/>
      <point x="901.4" y="94.0" type="line"/>
      <point x="810.6000000000001" y="65.60000000000001"/>
      <point x="702.4" y="48.599999999999994"/>
      <point x="577.4" y="48.599999999999994" type="curve" smooth="yes"/>
      <point x="316.8" y="48.599999999999994"/>
      <point x="161.4" y="139.79999999999998"/>
      <point x="161.4" y="315.2" type="curve" smooth="yes"/>
      <point x="161.4" y="524.8000000000001"/>
      <point x="333.59999999999997" y="651.4000000000001"/>
      <point x="627.5999999999999" y="651.4000000000001" type="curve" smooth="yes"/>
      <point x="747.4" y="651.4000000000001"/>
      <point x="848.4" y="635.6"/>
      <point x="955.8000000000001" y="606.0" type="curve"/>
      <point x="973.0" y="661.6" type="line"/>
      <point x="851.4" y="697.4"/>
      <point x="750.0" y="710.0"/>
      <point x="625.6" y="710.0" type="curve" smooth="yes"/>
      <point x="283.4" y="710.0"/>
      <point x="83.60000000000001" y="559.0"/>
      <point x="83.60000000000001" y="309.6" type="curve" smooth="yes"/>
      <point x="83.60000000000001" y="98.8"/>
      <point x="260.59999999999997" y="-10.0"/>
    </contour>
  </outline>
</glyph>
<glyph name="D" format="2">
  <advance width="1075.0000000000002"/>
  <unicode hex="0044"/>
  <anchor x="468.59999999999997" y="0.0" name="bottom"/>
  <anchor x="526.2" y="350.0" name="center"/>
  <anchor x="558.8000000000001" y="700.0" name="top"/>
  <outline>
    <contour>
      <point x="451.8" y="-10.0" type="curve" smooth="yes"/>
      <point x="771.0" y="-10.0"/>
      <point x="1012.8" y="101.2"/>
      <point x="1012.8" y="375.0" type="curve" smooth="yes"/>
      <point x="1012.8" y="652.6"/>
      <point x="772.2" y="710.0"/>
      <point x="519.2" y="710.0" type="curve" smooth="yes"/>
      <point x="405.20000000000005" y="710.0"/>
      <point x="303.59999999999997" y="707.0"/>
      <point x="192.0" y="700.0" type="curve"/>
      <point x="80.2" y="0.0" type="line"/>
      <point x="208.20000000000002" y="-8.599999999999998"/>
      <point x="298.0" y="-10.0"/>
    </contour>
    <contour>
      <point x="451.99999999999994" y="44.20000000000001" type="curve" smooth="yes"/>
      <point x="338.59999999999997" y="44.20000000000001"/>
      <point x="260.59999999999997" y="46.2"/>
      <point x="163.8" y="52.400000000000006" type="curve"/>
      <point x="258.4" y="646.8" type="line"/>
      <point x="314.0" y="652.0"/>
      <point x="423.8" y="656.2"/>
      <point x="522.0" y="656.2" type="curve" smooth="yes"/>
      <point x="721.0" y="656.2"/>
      <point x="935.2" y="610.6"/>
      <point x="935.2" y="370.59999999999997" type="curve" smooth="yes"/>
      <point x="935.2" y="140.60000000000002"/>
      <point x="730.2" y="44.20000000000001"/>
    </contour>
  </outline>
</glyph>
<glyph name="E" format="2">
  <advance width="910.2"/>
  <unicode hex="0045"/>
  <anchor x="445.8" y="0.0" name="bottom"/>
  <anchor x="810.8000000000001" y="0.0" name="ogonek"/>
  <anchor x="542.4" y="700.0" name="top"/>
  <anchor x="110.99999999999999" y="700.0" name="topleft"/>
  <outline>
    <contour>
      <point x="80.2" y="0.0" type="line"/>
      <point x="810.8000000000001" y="0.0" type="line"/>
      <point x="821.0" y="61.4" type="line"/>
      <point x="163.4" y="61.4" type="line"/>
      <point x="208.8" y="345.59999999999997" type="line"/>
      <point x="809.0" y="345.59999999999997" type="line"/>
      <point x="818.8" y="405.40000000000003" type="line"/>
      <point x="217.6" y="405.40000000000003" type="line"/>
      <point x="254.8" y="638.6" type="line"/>
      <point x="885.4" y="638.6" type="line"/>
      <point x="895.6" y="700.0" type="line"/>
      <point x="192.0" y="700.0" type="line"/>
    </contour>
  </outline>
</glyph>
<glyph name="F" format="2">
  <advance width="866.6"/>
  <unicode hex="0046"/>
  <outline>
    <contour>
      <point x="80.2" y="0.0" type="line"/>
      <point x="155.2" y="0.0" type="line"/>
      <point x="200.2" y="276.40000000000003" type="line"/>
      <point x="759.8" y="276.40000000000003" type="line"/>
      <point x="768.5999999999999" y="337.79999999999995" type="line"/>
      <point x="209.40000000000003" y="337.79999999999995" type="line"/>
      <point x="256.8" y="638.6" type="line"/>
      <point x="883.8" y="638.6" type="line"/>
      <point x="894.0" y="700.0" type="line"/>
      <point x="192.0" y="700.0" type="line"/>
    </contour>
  </outline>
</glyph>
<glyph name="G" format="2">
  <advance width="1018.8"/>
  <unicode hex="0047"/>
  <anchor x="506.6" y="0.0" name="bottom"/>
  <anchor x="634.1999999999999" y="700.0" name="top"/>
  <outline>
    <contour>
      <point x="532.0" y="-10.0" type="curve" smooth="yes"/>
      <point x="690.0" y="-10.0"/>
      <point x="815.2" y="20.2"/>
      <point x="896.5999999999999" y="53.2" type="curve"/>
      <point x="941.8000000000001" y="332.8" type="line"/>
      <point x="553.6" y="332.8" type="line"/>
      <point x="545.2" y="280.8" type="line"/>
      <point x="865.8000000000001" y="280.8" type="line"/>
      <point x="835.8000000000001" y="93.2" type="line"/>
      <point x="767.2" y="64.0"/>
      <point x="667.0" y="44.6"/>
      <point x="548.0" y="44.6" type="curve" smooth="yes"/>
      <point x="331.8" y="44.6"/>
      <point x="159.0" y="130.0"/>
      <point x="159.0" y="312.8" type="curve" smooth="yes"/>
      <point x="159.0" y="529.6"/>
      <point x="340.20000000000005" y="652.0"/>
      <point x="630.6" y="652.0" type="curve" smooth="yes"/>
      <point x="747.4" y="652.0"/>
      <point x="831.6" y="639.0"/>
      <point x="940.0" y="609.0" type="curve"/>
      <point x="962.1999999999999" y="663.4000000000001" type="line"/>
      <point x="863.0" y="694.4"/>
      <point x="750.8" y="710.0"/>
      <point x="630.8" y="710.0" type="curve" smooth="yes"/>
      <point x="288.8" y="710.0"/>
      <point x="82.6" y="566.1999999999999"/>
      <point x="82.6" y="304.0" type="curve" smooth="yes"/>
      <point x="82.6" y="95.0"/>
      <point x="279.0" y="-10.0"/>
    </contour>
  </outline>
</glyph>
<glyph name="H" format="2">
  <advance width="1101.6000000000001"/>
  <unicode hex="0048"/>
  <anchor x="507.64399999999995" y="0.0" name="bottom"/>
  <anchor x="563.0790000000001" y="350.0" name="center"/>
  <anchor x="618.5129999999999" y="700.0" name="top"/>
  <anchor x="87.313" y="700.0" name="topleft"/>
  <outline>
    <contour>
      <point x="80.0" y="0.0" type="line"/>
      <point x="155.2" y="0.0" type="line"/>
      <point x="198.79999999999998" y="275.79999999999995" type="line"/>
      <point x="903.4" y="275.79999999999995" type="line"/>
      <point x="859.4" y="0.0" type="line"/>
      <point x="932.8000000000001" y="0.0" type="line"/>
      <point x="1044.6000000000001" y="700.0" type="line"/>
      <point x="971.4" y="700.0" type="line"/>
      <point x="913.1999999999999" y="337.20000000000005" type="line"/>
      <point x="208.6" y="337.20000000000005" type="line"/>
      <point x="267.0" y="700.0" type="line"/>
      <point x="191.8" y="700.0" type="line"/>
    </contour>
  </outline>
</glyph>
<glyph name="I" format="2">
  <advance width="324.0"/>
  <unicode hex="0049"/>
  <anchor x="118.7552" y="0.0" name="bottom"/>
  <anchor x="155.20000000000002" y="0.0" name="ogonek"/>
  <anchor x="229.6504" y="700.0" name="top"/>
  <anchor x="111.0" y="700.0" name="topleft"/>
  <outline>
    <contour>
      <point x="80.0" y="0.0" type="line"/>
      <point x="155.20000000000002" y="0.0" type="line"/>
      <point x="267.0" y="700.0" type="line"/>
      <point x="191.8" y="700.0" type="line"/>
    </contour>
  </outline>
</glyph>
<glyph name="J" format="2">
  <advance width="759.0"/>
  <unicode hex="004A"/>
  <anchor x="332.8" y="0.0" name="bottom"/>
  <anchor x="445.79999999999995" y="700.0" name="top"/>
  <outline>
    <contour>
      <point x="-7.6" y="40.4" type="line"/>
      <point x="64.6" y="15.8"/>
      <point x="151.6" y="-10.0"/>
      <point x="292.40000000000003" y="-10.0" type="curve" smooth="yes"/>
      <point x="479.79999999999995" y="-10.0"/>
      <point x="618.0" y="73.80000000000001"/>
      <point x="652.6" y="281.2" type="curve" smooth="yes"/>
      <point x="719.6" y="700.0" type="line"/>
      <point x="168.0" y="700.0" type="line"/>
      <point x="157.8" y="638.1999999999999" type="line"/>
      <point x="634.1999999999999" y="638.1999999999999" type="line"/>
      <point x="578.1999999999999" y="287.8" type="line" smooth="yes"/>
      <point x="551.4000000000001" y="117.0"/>
      <point x="433.0" y="50.00000000000001"/>
      <point x="289.2" y="50.00000000000001" type="curve" smooth="yes"/>
      <point x="161.0" y="50.00000000000001"/>
      <point x="83.80000000000001" y="77.2"/>
      <point x="12.000000000000004" y="100.6" type="curve"/>
    </contour>
  </outline>
</glyph>
<glyph name="K" format="2">
  <advance width="976.1999999999999"/>
  <unicode hex="004B"/>
  <anchor x="454.2" y="0.0" name="bottom"/>
  <anchor x="545.6" y="700.0" name="top"/>
  <outline>
    <contour>
      <point x="80.19999999999999" y="0.0" type="line"/>
      <point x="155.20000000000002" y="0.0" type="line"/>
      <point x="267.0" y="700.0" type="line"/>
      <point x="192.4" y="700.0" type="line"/>
    </contour>
    <contour>
      <point x="895.1999999999999" y="-10.0" type="curve" smooth="yes"/>
      <point x="899.8" y="-10.0"/>
      <point x="913.2" y="-9.600000000000001"/>
      <point x="919.4" y="-8.200000000000001" type="curve"/>
      <point x="927.5999999999999" y="53.00000000000001" type="line"/>
      <point x="922.0" y="53.00000000000001"/>
      <point x="916.8" y="53.00000000000001"/>
      <point x="911.6" y="53.00000000000001" type="curve" smooth="yes"/>
      <point x="843.4" y="53.00000000000001"/>
      <point x="795.0" y="81.19999999999999"/>
      <point x="693.2" y="148.0" type="curve" smooth="yes"/>
      <point x="212.79999999999998" y="463.6" type="line"/>
      <point x="203.0" y="396.40000000000003" type="line"/>
      <point x="618.1999999999999" y="115.8" type="line" smooth="yes"/>
      <point x="743.4" y="31.0"/>
      <point x="814.4000000000001" y="-10.0"/>
    </contour>
    <contour>
      <point x="395.4" y="317.79999999999995" type="line"/>
      <point x="561.1999999999999" y="370.8"/>
      <point x="843.4" y="502.6"/>
      <point x="990.6" y="668.8000000000001" type="curve"/>
      <point x="943.2" y="712.0" type="line"/>
      <point x="776.0" y="537.2"/>
      <point x="503.2" y="412.40000000000003"/>
      <point x="340.40000000000003" y="355.6" type="curve"/>
    </contour>
  </outline>
</glyph>
<glyph name="L" format="2">
  <advance width="819.1999999999999"/>
  <unicode hex="004C"/>
  <anchor x="417.6" y="0.0" name="bottom"/>
  <anchor x="421.879" y="350.0" name="center"/>
  <anchor x="229.0" y="700.0" name="top"/>
  <anchor x="605.0" y="700.0" name="topright"/>
  <outline>
    <contour>
      <point x="80.0" y="0.0" type="line"/>
      <point x="754.4" y="0.0" type="line"/>
      <point x="764.8" y="60.199999999999996" type="line"/>
      <point x="165.2" y="60.199999999999996" type="line"/>
      <point x="267.0" y="700.0" type="line"/>
      <point x="191.8" y="700.0" type="line"/>
    </contour>
  </outline>
</glyph>
<glyph name="M" format="2">
  <advance width="1242.8"/>
  <unicode hex="004D"/>
  <outline>
    <contour>
      <point x="80.0" y="0.0" type="line"/>
      <point x="153.0" y="0.0" type="line"/>
      <point x="249.6" y="612.4" type="line"/>
      <point x="600.8" y="252.40000000000003" type="line"/>
      <point x="633.2" y="252.40000000000003" type="line"/>
      <point x="1101.4" y="614.4" type="line"/>
      <point x="1003.4" y="0.0" type="line"/>
      <point x="1074.0" y="0.0" type="line"/>
      <point x="1185.8" y="700.0" type="line"/>
      <point x="1108.3999999999999" y="700.0" type="line"/>
      <point x="624.8" y="319.2" type="line"/>
      <point x="264.0" y="700.0" type="line"/>
      <point x="191.8" y="700.0" type="line"/>
    </contour>
  </outline>
</glyph>
<glyph name="N" format="2">
  <advance width="1088.2"/>
  <unicode hex="004E"/>
  <anchor x="491.8888" y="0.0" name="bottom"/>
  <anchor x="613.2626" y="700.0" name="top"/>
  <outline>
    <contour>
      <point x="80.0" y="0.0" type="line"/>
      <point x="150.2" y="0.0" type="line"/>
      <point x="247.6" y="614.4" type="line"/>
      <point x="851.8" y="-8.0" type="line"/>
      <point x="917.6" y="-8.0" type="line"/>
      <point x="1031.2" y="700.0" type="line"/>
      <point x="961.0" y="700.0" type="line"/>
      <point x="862.8" y="80.80000000000001" type="line"/>
      <point x="259.40000000000003" y="708.0" type="line"/>
      <point x="193.6" y="708.0" type="line"/>
    </contour>
  </outline>
</glyph>
<glyph name="O" format="2">
  <advance width="1131.2"/>
  <unicode hex="004F"/>
  <note>
8
</note>
  <anchor x="521.6664" y="0.0" name="bottom"/>
  <anchor x="577.3274" y="350.0" name="center"/>
  <anchor x="624.1999999999999" y="-0.40000000000000013" name="ogonek"/>
  <anchor x="614.2" y="700.0" name="top"/>
  <anchor x="94.60000000000001" y="700.0" name="topleft"/>
  <anchor x="929.4" y="659.8" name="topright"/>
  <outline>
    <contour>
      <point x="564.0" y="-10.0" type="curve" smooth="yes"/>
      <point x="886.2" y="-10.0"/>
      <point x="1070.8000000000002" y="135.8"/>
      <point x="1070.8000000000002" y="392.8" type="curve" smooth="yes"/>
      <point x="1070.8000000000002" y="599.8"/>
      <point x="918.0" y="710.4"/>
      <point x="590.8" y="710.4" type="curve" smooth="yes"/>
      <point x="268.59999999999997" y="710.4"/>
      <point x="84.0" y="564.6"/>
      <point x="84.0" y="307.6" type="curve" smooth="yes"/>
      <point x="84.0" y="100.6"/>
      <point x="236.79999999999998" y="-10.0"/>
    </contour>
    <contour>
      <point x="566.8000000000001" y="44.60000000000001" type="curve" smooth="yes"/>
      <point x="287.8" y="44.60000000000001"/>
      <point x="159.8" y="136.0"/>
      <point x="159.8" y="312.0" type="curve" smooth="yes"/>
      <point x="159.8" y="533.0"/>
      <point x="313.4" y="655.8000000000001"/>
      <point x="588.0" y="655.8000000000001" type="curve" smooth="yes"/>
      <point x="867.0" y="655.8000000000001"/>
      <point x="995.0" y="564.4"/>
      <point x="995.0" y="388.4" type="curve" smooth="yes"/>
      <point x="995.0" y="167.4"/>
      <point x="841.4" y="44.60000000000001"/>
    </contour>
  </outline>
</glyph>
<glyph name="P" format="2">
  <advance width="987.4"/>
  <unicode hex="0050"/>
  <outline>
    <contour>
      <point x="80.0" y="0.0" type="line"/>
      <point x="155.0" y="0.0" type="line"/>
      <point x="192.79999999999998" y="233.39999999999998" type="line"/>
      <point x="320.4" y="229.4"/>
      <point x="390.4" y="227.60000000000002"/>
      <point x="498.8" y="227.60000000000002" type="curve" smooth="yes"/>
      <point x="835.4" y="227.60000000000002"/>
      <point x="962.2" y="308.6"/>
      <point x="963.8000000000001" y="498.4" type="curve" smooth="yes"/>
      <point x="964.6" y="658.6"/>
      <point x="846.0" y="710.0"/>
      <point x="551.8" y="710.0" type="curve" smooth="yes"/>
      <point x="496.0" y="710.0"/>
      <point x="420.2" y="707.8"/>
      <point x="192.0" y="700.0" type="curve"/>
    </contour>
    <contour>
      <point x="258.2" y="645.0" type="line"/>
      <point x="412.0" y="651.4"/>
      <point x="483.0" y="653.8"/>
      <point x="553.6" y="653.8" type="curve" smooth="yes"/>
      <point x="799.0" y="653.8"/>
      <point x="886.1999999999999" y="618.6"/>
      <point x="886.1999999999999" y="491.20000000000005" type="curve" smooth="yes"/>
      <point x="886.1999999999999" y="349.0"/>
      <point x="783.2" y="284.6"/>
      <point x="500.0" y="284.6" type="curve" smooth="yes"/>
      <point x="399.59999999999997" y="284.6"/>
      <point x="327.0" y="287.2"/>
      <point x="202.20000000000002" y="290.4" type="curve"/>
    </contour>
  </outline>
</glyph>
<glyph name="Q" format="2">
  <advance width="1129.6000000000001"/>
  <unicode hex="0051"/>
  <note>
14
</note>
  <outline>
    <contour>
      <point x="788.1999999999999" y="-218.39999999999998" type="curve" smooth="yes"/>
      <point x="848.4" y="-218.39999999999998"/>
      <point x="895.6" y="-204.2"/>
      <point x="940.0" y="-180.4" type="curve"/>
      <point x="933.6" y="-125.39999999999999" type="line"/>
      <point x="891.6" y="-148.8"/>
      <point x="852.2" y="-158.8"/>
      <point x="806.6" y="-158.8" type="curve" smooth="yes"/>
      <point x="704.0" y="-158.8"/>
      <point x="619.4" y="-86.80000000000001"/>
      <point x="585.8000000000001" y="6.0" type="curve"/>
      <point x="514.6" y="-1.5999999999999999" type="line"/>
      <point x="561.8" y="-146.4"/>
      <point x="668.8" y="-218.39999999999998"/>
    </contour>
    <component base="O"/>
  </outline>
</glyph>
<glyph name="R" format="2">
  <advance width="1026.2"/>
  <unicode hex="0052"/>
  <anchor x="499.59999999999997" y="0.0" name="bottom"/>
  <anchor x="527.6" y="700.0" name="top"/>
  <outline>
    <contour>
      <point x="80.8" y="0.0" type="line"/>
      <point x="156.20000000000002" y="0.0" type="line"/>
      <point x="202.6" y="287.2" type="line"/>
      <point x="333.0" y="284.2"/>
      <point x="445.40000000000003" y="282.6"/>
      <point x="598.4" y="282.6" type="curve"/>
      <point x="622.6" y="283.4" type="line"/>
      <point x="835.4" y="283.8"/>
      <point x="949.1999999999999" y="368.2"/>
      <point x="949.1999999999999" y="517.4000000000001" type="curve" smooth="yes"/>
      <point x="949.1999999999999" y="656.1999999999999"/>
      <point x="862.6" y="710.0"/>
      <point x="532.6" y="710.0" type="curve" smooth="yes"/>
      <point x="421.2" y="710.0"/>
      <point x="334.0" y="708.0"/>
      <point x="192.6" y="701.6" type="curve"/>
    </contour>
    <contour>
      <point x="967.2" y="-10.0" type="curve" smooth="yes"/>
      <point x="971.8" y="-10.0"/>
      <point x="983.8000000000001" y="-10.0"/>
      <point x="989.6" y="-9.0" type="curve"/>
      <point x="995.6" y="52.8" type="line"/>
      <point x="990.8" y="51.800000000000004"/>
      <point x="981.8" y="51.800000000000004"/>
      <point x="977.6" y="51.800000000000004" type="curve" smooth="yes"/>
      <point x="889.2" y="51.8"/>
      <point x="755.4" y="179.6"/>
      <point x="632.0" y="307.6" type="curve"/>
      <point x="547.6" y="293.6" type="line"/>
      <point x="691.6" y="147.2"/>
      <point x="842.6" y="-10.0"/>
    </contour>
    <contour>
      <point x="591.2" y="336.8" type="curve" smooth="yes"/>
      <point x="422.4" y="336.8"/>
      <point x="315.59999999999997" y="339.4"/>
      <point x="211.20000000000002" y="343.2" type="curve"/>
      <point x="259.0" y="649.0" type="line"/>
      <point x="373.4" y="654.6"/>
      <point x="413.8" y="656.2"/>
      <point x="528.0" y="656.2" type="curve" smooth="yes"/>
      <point x="803.0" y="656.2"/>
      <point x="870.0" y="621.1999999999999"/>
      <point x="870.0" y="511.2" type="curve" smooth="yes"/>
      <point x="870.0" y="391.0"/>
      <point x="772.8000000000001" y="336.8"/>
    </contour>
  </outline>
</glyph>
<glyph name="S" format="2">
  <advance width="918.5999999999999"/>
  <unicode hex="0053"/>
  <anchor x="425.0" y="0.0" name="bottom"/>
  <anchor x="528.0" y="700.0" name="top"/>
  <outline>
    <contour>
      <point x="860.0" y="663.0" type="line"/>
      <point x="738.2" y="696.4000000000001"/>
      <point x="654.9999999999999" y="710.0"/>
      <point x="541.8000000000001" y="710.0" type="curve" smooth="yes"/>
      <point x="255.20000000000005" y="710.0"/>
      <point x="117.6" y="632.8000000000001"/>
      <point x="117.6" y="502.59999999999997" type="curve" smooth="yes"/>
      <point x="117.6" y="236.20000000000002"/>
      <point x="767.4" y="388.8"/>
      <point x="767.4" y="185.0" type="curve" smooth="yes"/>
      <point x="767.4" y="101.2"/>
      <point x="673.1999999999999" y="45.4"/>
      <point x="450.40000000000003" y="45.4" type="curve" smooth="yes"/>
      <point x="315.6" y="45.4"/>
      <point x="153.4" y="75.8"/>
      <point x="35.6" y="115.6" type="curve"/>
      <point x="12.0" y="57.6" type="line"/>
      <point x="147.4" y="15.2"/>
      <point x="297.8" y="-10.0"/>
      <point x="434.8" y="-10.0" type="curve" smooth="yes"/>
      <point x="732.8" y="-10.0"/>
      <point x="846.4000000000001" y="66.60000000000001"/>
      <point x="846.4000000000001" y="197.2" type="curve" smooth="yes"/>
      <point x="846.4000000000001" y="457.4"/>
      <point x="196.20000000000002" y="310.2"/>
      <point x="196.20000000000002" y="510.59999999999997" type="curve" smooth="yes"/>
      <point x="196.20000000000002" y="603.4"/>
      <point x="314.8" y="654.1999999999999"/>
      <point x="522.1999999999999" y="654.1999999999999" type="curve" smooth="yes"/>
      <point x="636.8" y="654.1999999999999"/>
      <point x="739.5999999999999" y="637.6"/>
      <point x="837.6" y="604.9999999999999" type="curve"/>
    </contour>
  </outline>
</glyph>
<glyph name="T" format="2">
  <advance width="820.0"/>
  <unicode hex="0054"/>
  <anchor x="366.0" y="0.0" name="bottom"/>
  <anchor x="421.9032" y="350.0" name="center"/>
  <anchor x="477.25039999999996" y="700.0" name="top"/>
  <outline>
    <contour>
      <point x="865.5999999999999" y="642.8" type="line"/>
      <point x="875.8000000000001" y="700.0" type="line"/>
      <point x="79.6" y="700.0" type="line"/>
      <point x="69.2" y="642.8" type="line"/>
      <point x="430.4" y="642.8" type="line"/>
      <point x="328.6" y="0.0" type="line"/>
      <point x="403.8" y="0.0" type="line"/>
      <point x="505.4" y="642.8" type="line"/>
    </contour>
  </outline>
</glyph>
<glyph name="U" format="2">
  <advance width="1067.8"/>
  <unicode hex="0055"/>
  <anchor x="490.48879999999997" y="0.0" name="bottom"/>
  <anchor x="572.1999999999999" y="0.0" name="ogonek"/>
  <anchor x="598.2626" y="700.0" name="top"/>
  <anchor x="1028.0" y="700.0" name="topright"/>
  <outline>
    <contour>
      <point x="487.8" y="-10.0" type="curve" smooth="yes"/>
      <point x="774.2" y="-10.0"/>
      <point x="930.6" y="87.8"/>
      <point x="962.2" y="284.0" type="curve" smooth="yes"/>
      <point x="1028.3999999999999" y="700.0" type="line"/>
      <point x="954.6" y="700.0" type="line"/>
      <point x="888.6" y="290.4" type="line" smooth="yes"/>
      <point x="863.0" y="129.4"/>
      <point x="731.6" y="48.599999999999994"/>
      <point x="497.8" y="48.599999999999994" type="curve" smooth="yes"/>
      <point x="274.79999999999995" y="48.599999999999994"/>
      <point x="158.8" y="134.4"/>
      <point x="183.79999999999998" y="292.8" type="curve" smooth="yes"/>
      <point x="248.6" y="700.0" type="line"/>
      <point x="174.8" y="700.0" type="line"/>
      <point x="109.4" y="292.0" type="line" smooth="yes"/>
      <point x="105.4" y="263.0"/>
      <point x="104.4" y="248.6"/>
      <point x="104.4" y="235.20000000000002" type="curve" smooth="yes"/>
      <point x="104.4" y="75.19999999999999"/>
      <point x="238.79999999999998" y="-10.0"/>
    </contour>
  </outline>
</glyph>
<glyph name="V" format="2">
  <advance width="892.8000000000001"/>
  <unicode hex="0056"/>
  <outline>
    <contour>
      <point x="426.4" y="0.0" type="line"/>
      <point x="870.0" y="536.6"/>
      <point x="928.8000000000001" y="622.0"/>
      <point x="933.5999999999999" y="678.6" type="curve" smooth="yes"/>
      <point x="934.0" y="686.0000000000001"/>
      <point x="933.4" y="694.6"/>
      <point x="932.2" y="700.0" type="curve"/>
      <point x="850.6000000000001" y="700.0" type="line"/>
      <point x="852.8" y="692.1999999999999"/>
      <point x="853.2" y="684.4"/>
      <point x="853.2" y="678.4" type="curve" smooth="yes"/>
      <point x="853.2" y="618.4000000000001"/>
      <point x="789.8000000000001" y="536.6"/>
      <point x="399.4" y="67.60000000000001" type="curve"/>
      <point x="151.0" y="709.0" type="line"/>
      <point x="73.2" y="701.6" type="line"/>
      <point x="350.8" y="0.0" type="line"/>
    </contour>
  </outline>
</glyph>
<glyph name="W" format="2">
  <advance width="1309.4"/>
  <unicode hex="0057"/>
  <anchor x="602.6" y="0.0" name="bottom"/>
  <anchor x="717.2" y="700.0" name="top"/>
  <outline>
    <contour>
      <point x="962.2" y="0.0" type="line"/>
      <point x="1272.4" y="483.0"/>
      <point x="1349.8" y="625.5999999999999"/>
      <point x="1349.8" y="685.8" type="curve" smooth="yes"/>
      <point x="1349.8" y="689.6"/>
      <point x="1349.4" y="695.8000000000001"/>
      <point x="1347.8" y="700.0" type="curve"/>
      <point x="1276.6000000000001" y="700.0" type="line"/>
      <point x="1277.2" y="695.2"/>
      <point x="1277.8" y="691.6"/>
      <point x="1277.3999999999999" y="683.2" type="curve" smooth="yes"/>
      <point x="1274.2" y="617.8"/>
      <point x="1219.0" y="521.2"/>
      <point x="928.4" y="64.0" type="curve"/>
      <point x="752.2" y="655.5999999999999" type="line"/>
      <point x="667.6" y="655.5999999999999" type="line"/>
      <point x="556.8000000000001" y="458.2"/>
      <point x="444.0" y="265.6"/>
      <point x="326.4" y="63.39999999999999" type="curve"/>
      <point x="150.0" y="700.0" type="line"/>
      <point x="73.4" y="700.0" type="line"/>
      <point x="273.59999999999997" y="0.0" type="line"/>
      <point x="351.8" y="0.0" type="line"/>
      <point x="468.2" y="192.0"/>
      <point x="586.1999999999999" y="386.6"/>
      <point x="699.8" y="580.5999999999999" type="curve"/>
      <point x="879.4" y="0.0" type="line"/>
    </contour>
  </outline>
</glyph>
<glyph name="X" format="2">
  <advance width="903.0"/>
  <unicode hex="0058"/>
  <outline>
    <contour>
      <point x="774.2" y="-6.3999999999999995" type="line"/>
      <point x="858.0" y="4.2" type="line"/>
      <point x="510.20000000000005" y="363.0" type="line"/>
      <point x="723.6" y="489.6"/>
      <point x="863.5999999999999" y="572.4000000000001"/>
      <point x="918.0" y="701.0" type="curve"/>
      <point x="833.6" y="708.0" type="line"/>
      <point x="781.1999999999999" y="587.0"/>
      <point x="666.0" y="522.5999999999999"/>
      <point x="475.0" y="410.20000000000005" type="curve"/>
      <point x="192.6" y="706.4000000000001" type="line"/>
      <point x="108.6" y="695.1999999999999" type="line"/>
      <point x="414.59999999999997" y="381.2" type="line"/>
      <point x="191.20000000000002" y="252.4"/>
      <point x="49.4" y="153.79999999999998"/>
      <point x="14.2" y="0.0" type="curve"/>
      <point x="100.8" y="0.0" type="line"/>
      <point x="139.0" y="146.2"/>
      <point x="251.6" y="222.60000000000002"/>
      <point x="449.0" y="333.2" type="curve"/>
    </contour>
  </outline>
</glyph>
<glyph name="Y" format="2">
  <advance width="839.2"/>
  <unicode hex="0059"/>
  <anchor x="370.0" y="0.0" name="bottom"/>
  <anchor x="494.2" y="700.0" name="top"/>
  <anchor x="75.4" y="700.0" name="topleft"/>
  <outline>
    <contour>
      <point x="352.59999999999997" y="0.0" type="line"/>
      <point x="426.79999999999995" y="0.0" type="line"/>
      <point x="475.4" y="285.20000000000005" type="line"/>
      <point x="752.5999999999999" y="499.8"/>
      <point x="828.6" y="575.1999999999999"/>
      <point x="870.4000000000001" y="662.4000000000001" type="curve" smooth="yes"/>
      <point x="876.6000000000001" y="674.6"/>
      <point x="881.8000000000001" y="686.8"/>
      <point x="886.4" y="700.0" type="curve"/>
      <point x="808.1999999999999" y="707.4000000000001" type="line"/>
      <point x="803.0" y="692.6"/>
      <point x="797.1999999999999" y="679.8"/>
      <point x="790.4" y="666.0" type="curve" smooth="yes"/>
      <point x="749.6" y="582.6"/>
      <point x="687.2" y="520.0"/>
      <point x="441.59999999999997" y="335.8" type="curve"/>
      <point x="143.20000000000002" y="708.0" type="line"/>
      <point x="65.4" y="697.8" type="line"/>
      <point x="399.79999999999995" y="285.20000000000005" type="line"/>
    </contour>
  </outline>
</glyph>
<glyph name="Z" format="2">
  <advance width="878.6"/>
  <unicode hex="005A"/>
  <anchor x="402.8" y="0.0" name="bottom"/>
  <anchor x="448.2" y="350.0" name="center"/>
  <anchor x="500.59999999999997" y="700.0" name="top"/>
  <outline>
    <contour>
      <point x="-4.199999999999998" y="0.0" type="line"/>
      <point x="809.4" y="0.0" type="line"/>
      <point x="818.4" y="55.800000000000004" type="line"/>
      <point x="116.4" y="55.800000000000004" type="line"/>
      <point x="872.2" y="651.4" type="line"/>
      <point x="879.8" y="700.0" type="line"/>
      <point x="142.8" y="700.0" type="line"/>
      <point x="133.79999999999998" y="644.1999999999999" type="line"/>
      <point x="762.5999999999999" y="644.1999999999999" type="line"/>
      <point x="3.4" y="48.599999999999994" type="line"/>
    </contour>
  </outline>
</glyph>
<glyph name="bracketleft" format="2">
  <advance width="468.0"/>
  <unicode hex="005B"/>
  <outline>
    <contour>
      <point x="140.0" y="-164.0" type="line"/>
      <point x="276.2" y="694.8" type="line"/>
      <point x="507.99999999999994" y="694.8" type="line"/>
      <point x="515.4000000000001" y="740.0" type="line"/>
      <point x="227.0" y="740.0" type="line"/>
      <point x="76.2" y="-210.0" type="line"/>
      <point x="364.40000000000003" y="-210.0" type="line"/>
      <point x="371.79999999999995" y="-164.0" type="line"/>
    </contour>
  </outline>
</glyph>
<glyph name="backslash" format="2">
  <advance width="458.8"/>
  <unicode hex="005C"/>
  <outline>
    <contour>
      <point x="152.2" y="740.0" type="line"/>
      <point x="97.2" y="740.0" type="line"/>
      <point x="332.6" y="-210.0" type="line"/>
      <point x="387.59999999999997" y="-210.0" type="line"/>
    </contour>
  </outline>
</glyph>
<glyph name="bracketright" format="2">
  <advance width="468.0"/>
  <unicode hex="005D"/>
  <outline>
    <contour>
      <point x="-42.2" y="-164.0" type="line"/>
      <point x="-49.4" y="-210.0" type="line"/>
      <point x="238.0" y="-210.0" type="line"/>
      <point x="389.0" y="740.0" type="line"/>
      <point x="100.60000000000001" y="740.0" type="line"/>
      <point x="93.2" y="694.0" type="line"/>
      <point x="325.0" y="694.0" type="line"/>
      <point x="188.8" y="-164.0" type="line"/>
    </contour>
  </outline>
</glyph>
<glyph name="asciicircum" format="2">
  <advance width="556.4"/>
  <unicode hex="005E"/>
  <outline>
    <contour>
      <point x="53.199999999999996" y="261.20000000000005" type="line"/>
      <point x="113.8" y="261.20000000000005" type="line"/>
      <point x="335.40000000000003" y="639.8000000000001" type="line"/>
      <point x="439.40000000000003" y="261.20000000000005" type="line"/>
      <point x="498.4" y="261.20000000000005" type="line"/>
      <point x="376.4" y="708.0" type="line"/>
      <point x="317.2" y="708.0" type="line"/>
    </contour>
  </outline>
</glyph>
<glyph name="underscore" format="2">
  <advance width="1012.4"/>
  <unicode hex="005F"/>
  <outline>
    <contour>
      <point x="-45.00000000000001" y="-150.79999999999998" type="line"/>
      <point x="922.6" y="-150.79999999999998" type="line"/>
      <point x="930.4000000000001" y="-102.8" type="line"/>
      <point x="-37.2" y="-102.8" type="line"/>
    </contour>
  </outline>
</glyph>
<glyph name="a" format="2">
  <advance width="811.4"/>
  <unicode hex="0061"/>
  <note>
15
</note>
  <anchor x="348.2888" y="0.0" name="bottom"/>
  <anchor x="759.0" y="0.8000000000000003" name="ogonek"/>
  <anchor x="447.4" y="534.0" name="top"/>
  <outline>
    <contour>
      <point x="700.4" y="-10.0" type="curve" smooth="yes"/>
      <point x="721.2" y="-10.0"/>
      <point x="743.4" y="-7.0"/>
      <point x="759.8" y="-1.5999999999999999" type="curve"/>
      <point x="758.2" y="49.4" type="line"/>
      <point x="749.0" y="46.0"/>
      <point x="737.4" y="44.2"/>
      <point x="725.2" y="44.2" type="curve" smooth="yes"/>
      <point x="689.4" y="44.2"/>
      <point x="672.6" y="65.80000000000001"/>
      <point x="672.6" y="109.60000000000001" type="curve" smooth="yes"/>
      <point x="672.6" y="117.6"/>
      <point x="704.0" y="314.4"/>
      <point x="734.1999999999999" y="500.2" type="curve"/>
      <point x="671.1999999999999" y="527.0"/>
      <point x="568.4000000000001" y="544.0"/>
      <point x="473.8" y="544.0" type="curve" smooth="yes"/>
      <point x="218.20000000000002" y="544.0"/>
      <point x="48.6" y="419.6"/>
      <point x="48.6" y="215.6" type="curve" smooth="yes"/>
      <point x="48.6" y="69.0"/>
      <point x="150.6" y="-10.0"/>
      <point x="313.59999999999997" y="-10.0" type="curve" smooth="yes"/>
      <point x="412.2" y="-10.0"/>
      <point x="525.8000000000001" y="25.4"/>
      <point x="603.4000000000001" y="78.39999999999999" type="curve"/>
      <point x="611.0" y="23.2"/>
      <point x="649.4" y="-10.0"/>
    </contour>
    <contour>
      <point x="600.4" y="125.19999999999999" type="line"/>
      <point x="528.2" y="77.60000000000001"/>
      <point x="426.40000000000003" y="44.400000000000006"/>
      <point x="339.59999999999997" y="44.400000000000006" type="curve" smooth="yes"/>
      <point x="202.6" y="44.400000000000006"/>
      <point x="121.4" y="110.6"/>
      <point x="121.4" y="226.4" type="curve" smooth="yes"/>
      <point x="121.4" y="383.2"/>
      <point x="263.40000000000003" y="493.0"/>
      <point x="466.0" y="493.0" type="curve" smooth="yes"/>
      <point x="540.6" y="493.0"/>
      <point x="606.6" y="482.0"/>
      <point x="654.0" y="460.2" type="curve"/>
    </contour>
  </outline>
</glyph>
<glyph name="b" format="2">
  <advance width="805.8000000000001"/>
  <unicode hex="0062"/>
  <note>
12
</note>
  <outline>
    <contour>
      <point x="257.0" y="740.0" type="line"/>
      <point x="184.8" y="740.0" type="line"/>
      <point x="70.8" y="21.4" type="line"/>
      <point x="145.0" y="5.800000000000001"/>
      <point x="234.8" y="-10.0"/>
      <point x="336.0" y="-10.0" type="curve" smooth="yes"/>
      <point x="557.8" y="-10.0"/>
      <point x="756.0" y="98.00000000000001"/>
      <point x="756.0" y="328.0" type="curve" smooth="yes"/>
      <point x="756.0" y="456.20000000000005"/>
      <point x="677.8" y="544.0"/>
      <point x="522.4" y="544.0" type="curve" smooth="yes"/>
      <point x="405.8" y="544.0"/>
      <point x="308.40000000000003" y="495.6"/>
      <point x="207.0" y="427.4" type="curve"/>
    </contour>
    <contour>
      <point x="489.59999999999997" y="487.8" type="curve" smooth="yes"/>
      <point x="618.1999999999999" y="487.8"/>
      <point x="683.6" y="419.8"/>
      <point x="683.6" y="314.4" type="curve" smooth="yes"/>
      <point x="683.6" y="135.2"/>
      <point x="519.0" y="40.0"/>
      <point x="344.2" y="40.0" type="curve" smooth="yes"/>
      <point x="265.40000000000003" y="40.0"/>
      <point x="196.4" y="54.0"/>
      <point x="150.2" y="64.60000000000001" type="curve"/>
      <point x="199.6" y="375.8" type="line"/>
      <point x="311.0" y="452.8"/>
      <point x="398.2" y="487.8"/>
    </contour>
  </outline>
</glyph>
<glyph name="c" format="2">
  <advance width="753.6"/>
  <unicode hex="0063"/>
  <note>
10
</note>
  <anchor x="399.0" y="0.0" name="bottom"/>
  <anchor x="474.0" y="534.0" name="top"/>
  <outline>
    <contour>
      <point x="385.4" y="-10.0" type="curve" smooth="yes"/>
      <point x="502.2" y="-10.0"/>
      <point x="593.8" y="6.199999999999999"/>
      <point x="672.8000000000001" y="30.199999999999996" type="curve"/>
      <point x="668.1999999999999" y="80.2" type="line"/>
      <point x="588.2" y="59.0"/>
      <point x="513.2" y="42.2"/>
      <point x="402.8" y="42.2" type="curve" smooth="yes"/>
      <point x="235.39999999999998" y="42.2"/>
      <point x="128.4" y="116.8"/>
      <point x="128.4" y="234.6" type="curve" smooth="yes"/>
      <point x="128.4" y="399.20000000000005"/>
      <point x="262.6" y="491.8"/>
      <point x="467.2" y="491.8" type="curve" smooth="yes"/>
      <point x="547.1999999999999" y="491.8"/>
      <point x="632.1999999999999" y="480.40000000000003"/>
      <point x="720.0" y="456.59999999999997" type="curve"/>
      <point x="737.2" y="508.6" type="line"/>
      <point x="653.6" y="532.4000000000001"/>
      <point x="562.6" y="544.0"/>
      <point x="471.40000000000003" y="544.0" type="curve" smooth="yes"/>
      <point x="215.0" y="544.0"/>
      <point x="55.0" y="433.59999999999997"/>
      <point x="55.0" y="230.6" type="curve" smooth="yes"/>
      <point x="55.0" y="82.2"/>
      <point x="175.2" y="-10.0"/>
    </contour>
  </outline>
</glyph>
<glyph name="d" format="2">
  <advance width="820.6"/>
  <unicode hex="0064"/>
  <note>
17
</note>
  <anchor x="349.8" y="0.0" name="bottom"/>
  <anchor x="405.8" y="275.0" name="center"/>
  <anchor x="484.2" y="740.0" name="top"/>
  <anchor x="871.6" y="740.0" name="topright"/>
  <outline>
    <contour>
      <point x="703.0000000000001" y="-10.0" type="curve" smooth="yes"/>
      <point x="719.8" y="-10.0"/>
      <point x="741.2" y="-7.2"/>
      <point x="759.0" y="-1.4" type="curve"/>
      <point x="755.2" y="49.6" type="line"/>
      <point x="746.0000000000001" y="46.00000000000001"/>
      <point x="734.4" y="44.400000000000006"/>
      <point x="722.0" y="44.400000000000006" type="curve" smooth="yes"/>
      <point x="688.1999999999999" y="44.400000000000006"/>
      <point x="669.4" y="65.4"/>
      <point x="669.4" y="102.4" type="curve" smooth="yes"/>
      <point x="669.4" y="110.4"/>
      <point x="769.6" y="740.0"/>
      <point x="769.6" y="740.0" type="curve"/>
      <point x="698.2" y="740.0" type="line"/>
      <point x="663.0" y="520.8000000000001" type="line"/>
      <point x="612.6" y="531.6"/>
      <point x="550.2" y="544.0"/>
      <point x="465.0" y="544.0" type="curve" smooth="yes"/>
      <point x="231.79999999999998" y="544.0"/>
      <point x="48.800000000000004" y="426.79999999999995"/>
      <point x="48.800000000000004" y="215.0" type="curve" smooth="yes"/>
      <point x="48.800000000000004" y="64.8"/>
      <point x="158.6" y="-10.0"/>
      <point x="308.0" y="-10.0" type="curve" smooth="yes"/>
      <point x="407.40000000000003" y="-10.0"/>
      <point x="529.2" y="25.4"/>
      <point x="599.4" y="69.6" type="curve"/>
      <point x="608.0" y="19.4"/>
      <point x="647.8" y="-10.0"/>
    </contour>
    <contour>
      <point x="332.59999999999997" y="44.60000000000001" type="curve" smooth="yes"/>
      <point x="210.0" y="44.60000000000001"/>
      <point x="121.60000000000001" y="106.8"/>
      <point x="121.60000000000001" y="228.0" type="curve" smooth="yes"/>
      <point x="121.60000000000001" y="386.4"/>
      <point x="271.4" y="493.2"/>
      <point x="461.2" y="493.2" type="curve" smooth="yes"/>
      <point x="547.0" y="493.2"/>
      <point x="608.1999999999999" y="479.6"/>
      <point x="654.8" y="469.0" type="curve"/>
      <point x="598.8" y="116.39999999999999" type="line"/>
      <point x="525.0" y="74.60000000000001"/>
      <point x="421.6" y="44.60000000000001"/>
    </contour>
  </outline>
</glyph>
<glyph name="e" format="2">
  <advance width="771.4"/>
  <unicode hex="0065"/>
  <note>
14 points
</note>
  <anchor x="374.59999999999997" y="0.0" name="bottom"/>
  <anchor x="569.0" y="13.4" name="ogonek"/>
  <anchor x="467.79999999999995" y="534.0" name="top"/>
  <outline>
    <contour>
      <point x="116.39999999999999" y="297.20000000000005" type="curve"/>
      <point x="116.80000000000001" y="250.6" type="line"/>
      <point x="183.79999999999998" y="239.20000000000002"/>
      <point x="271.59999999999997" y="231.6"/>
      <point x="358.6" y="232.0" type="curve" smooth="yes"/>
      <point x="603.0" y="232.79999999999998"/>
      <point x="731.2" y="282.8"/>
      <point x="731.2" y="391.2" type="curve" smooth="yes"/>
      <point x="731.2" y="489.2"/>
      <point x="624.0" y="544.0"/>
      <point x="457.0" y="544.0" type="curve" smooth="yes"/>
      <point x="205.79999999999998" y="544.0"/>
      <point x="54.2" y="421.0"/>
      <point x="54.2" y="229.2" type="curve" smooth="yes"/>
      <point x="54.2" y="84.2"/>
      <point x="178.0" y="-10.0"/>
      <point x="373.6" y="-10.0" type="curve" smooth="yes"/>
      <point x="480.59999999999997" y="-10.0"/>
      <point x="587.5999999999999" y="10.600000000000001"/>
      <point x="683.6" y="46.6" type="curve"/>
      <point x="674.8000000000001" y="97.0" type="line"/>
      <point x="573.0" y="59.6"/>
      <point x="473.40000000000003" y="41.0"/>
      <point x="387.0" y="41.0" type="curve" smooth="yes"/>
      <point x="217.60000000000002" y="41.0"/>
      <point x="126.4" y="114.8"/>
      <point x="126.4" y="231.2" type="curve" smooth="yes"/>
      <point x="126.4" y="395.20000000000005"/>
      <point x="256.8" y="494.6"/>
      <point x="451.2" y="494.6" type="curve" smooth="yes"/>
      <point x="579.4000000000001" y="494.6"/>
      <point x="656.2" y="455.8"/>
      <point x="656.2" y="385.0" type="curve" smooth="yes"/>
      <point x="656.2" y="311.0"/>
      <point x="543.4" y="279.40000000000003"/>
      <point x="342.6" y="279.0" type="curve" smooth="yes"/>
      <point x="262.40000000000003" y="278.59999999999997"/>
      <point x="181.0" y="284.0"/>
    </contour>
  </outline>
</glyph>
<glyph name="g" format="2">
  <advance width="806.8"/>
  <unicode hex="0067"/>
  <note>
16
</note>
  <anchor x="301.6" y="-218.0" name="bottom"/>
  <anchor x="449.2" y="534.0" name="top"/>
  <outline>
    <contour>
      <point x="19.2" y="-168.4" type="line"/>
      <point x="104.0" y="-199.4"/>
      <point x="210.39999999999998" y="-220.0"/>
      <point x="313.59999999999997" y="-220.0" type="curve" smooth="yes"/>
      <point x="518.4" y="-220.0"/>
      <point x="633.4" y="-119.0"/>
      <point x="663.1999999999999" y="70.8" type="curve" smooth="yes"/>
      <point x="731.4" y="501.4" type="line"/>
      <point x="671.6" y="526.4"/>
      <point x="569.4" y="544.0"/>
      <point x="481.0" y="544.0" type="curve" smooth="yes"/>
      <point x="199.4" y="544.0"/>
      <point x="48.800000000000004" y="411.2"/>
      <point x="48.800000000000004" y="212.4" type="curve" smooth="yes"/>
      <point x="48.800000000000004" y="77.6"/>
      <point x="152.0" y="-1.5999999999999996"/>
      <point x="314.59999999999997" y="-1.5999999999999996" type="curve" smooth="yes"/>
      <point x="395.4" y="-1.5999999999999996"/>
      <point x="511.2" y="32.2"/>
      <point x="592.6" y="83.4" type="curve"/>
      <point x="590.2" y="68.2" type="line" smooth="yes"/>
      <point x="567.1999999999999" y="-90.0"/>
      <point x="470.4" y="-168.0"/>
      <point x="303.0" y="-168.0" type="curve" smooth="yes"/>
      <point x="215.20000000000002" y="-168.0"/>
      <point x="115.8" y="-147.60000000000002"/>
      <point x="38.6" y="-116.79999999999998" type="curve"/>
    </contour>
    <contour>
      <point x="653.2" y="462.4" type="curve"/>
      <point x="601.2" y="133.39999999999998" type="line"/>
      <point x="528.6" y="88.0"/>
      <point x="416.2" y="51.800000000000004"/>
      <point x="342.2" y="51.800000000000004" type="curve" smooth="yes"/>
      <point x="205.0" y="51.800000000000004"/>
      <point x="122.0" y="115.2"/>
      <point x="122.0" y="222.79999999999998" type="curve" smooth="yes"/>
      <point x="122.0" y="384.79999999999995"/>
      <point x="252.4" y="494.2"/>
      <point x="470.0" y="494.2" type="curve" smooth="yes"/>
      <point x="560.8000000000001" y="494.2"/>
      <point x="611.8000000000001" y="476.59999999999997"/>
    </contour>
  </outline>
</glyph>
<glyph name="h" format="2">
  <advance width="834.4"/>
  <unicode hex="0068"/>
  <note>
16
</note>
  <anchor x="393.2" y="0.0" name="bottom"/>
  <anchor x="437.20000000000005" y="375.2" name="center"/>
  <anchor x="490.8" y="740.0" name="top"/>
  <outline>
    <contour>
      <point x="698.4" y="97.0" type="curve" smooth="yes"/>
      <point x="698.4" y="145.20000000000002"/>
      <point x="735.6" y="314.0"/>
      <point x="735.6" y="384.2" type="curve" smooth="yes"/>
      <point x="735.6" y="482.0"/>
      <point x="674.9999999999999" y="544.0"/>
      <point x="544.1999999999999" y="544.0" type="curve" smooth="yes"/>
      <point x="421.2" y="544.0"/>
      <point x="325.6" y="500.8"/>
      <point x="210.00000000000003" y="447.20000000000005" type="curve"/>
      <point x="256.6" y="740.0" type="line"/>
      <point x="184.8" y="740.0" type="line"/>
      <point x="67.4" y="0.0" type="line"/>
      <point x="139.60000000000002" y="0.0" type="line"/>
      <point x="202.20000000000002" y="395.4" type="line"/>
      <point x="313.40000000000003" y="448.2"/>
      <point x="400.2" y="488.6"/>
      <point x="513.6" y="488.6" type="curve" smooth="yes"/>
      <point x="618.1999999999999" y="488.6"/>
      <point x="660.8" y="441.2"/>
      <point x="660.8" y="367.99999999999994" type="curve" smooth="yes"/>
      <point x="660.8" y="285.59999999999997"/>
      <point x="624.6" y="127.20000000000002"/>
      <point x="624.6" y="78.8" type="curve" smooth="yes"/>
      <point x="624.6" y="19.0"/>
      <point x="665.4" y="-10.0"/>
      <point x="723.1999999999999" y="-10.0" type="curve" smooth="yes"/>
      <point x="743.0" y="-10.0"/>
      <point x="771.6" y="-7.6000000000000005"/>
      <point x="791.2" y="-0.9999999999999998" type="curve"/>
      <point x="788.0000000000001" y="51.800000000000004" type="line"/>
      <point x="776.5999999999999" y="47.6"/>
      <point x="760.1999999999999" y="45.0"/>
      <point x="746.1999999999999" y="45.0" type="curve" smooth="yes"/>
      <point x="717.8" y="45.0"/>
      <point x="698.4" y="63.0"/>
    </contour>
  </outline>
</glyph>
<glyph name="i" format="2">
  <advance width="294.0"/>
  <unicode hex="0069"/>
  <note>
Ajuster pts sur points
8
</note>
  <anchor x="102.6888" y="0.0" name="bottom"/>
  <anchor x="139.2" y="0.0" name="ogonek"/>
  <anchor x="188.1112" y="534.0" name="top"/>
  <outline>
    <contour>
      <point x="67.0" y="0.0" type="line"/>
      <point x="139.2" y="0.0" type="line"/>
      <point x="223.6" y="534.0" type="line"/>
      <point x="151.8" y="534.0" type="line"/>
    </contour>
    <contour>
      <point x="217.6" y="726.0" type="curve" smooth="yes"/>
      <point x="181.79999999999998" y="726.0"/>
      <point x="165.4" y="717.8"/>
      <point x="164.6" y="679.8" type="curve" smooth="yes"/>
      <point x="164.60000000000002" y="662.5999999999999"/>
      <point x="178.4" y="654.8000000000001"/>
      <point x="203.79999999999998" y="654.8000000000001" type="curve" smooth="yes"/>
      <point x="238.0" y="654.8000000000001"/>
      <point x="256.6" y="660.2"/>
      <point x="258.2" y="702.0" type="curve" smooth="yes"/>
      <point x="258.2" y="718.2"/>
      <point x="246.8" y="726.0"/>
    </contour>
  </outline>
</glyph>
<glyph name="j" format="2">
  <advance width="303.20000000000005"/>
  <unicode hex="006A"/>
  <note>
idem /i
12
</note>
  <outline>
    <contour>
      <point x="227.0" y="726.0" type="curve" smooth="yes"/>
      <point x="191.0" y="726.0"/>
      <point x="176.4" y="717.8"/>
      <point x="175.6" y="679.8" type="curve" smooth="yes"/>
      <point x="175.6" y="662.5999999999999"/>
      <point x="188.0" y="654.8000000000001"/>
      <point x="213.39999999999998" y="654.8000000000001" type="curve" smooth="yes"/>
      <point x="245.20000000000002" y="654.8000000000001"/>
      <point x="264.4" y="660.2"/>
      <point x="266.0" y="702.0" type="curve" smooth="yes"/>
      <point x="266.0" y="718.2"/>
      <point x="256.2" y="726.0"/>
    </contour>
    <contour>
      <point x="233.2" y="534.0" type="line"/>
      <point x="161.20000000000002" y="534.0" type="line"/>
      <point x="70.2" y="-43.6" type="line" smooth="yes"/>
      <point x="57.8" y="-122.19999999999999"/>
      <point x="32.4" y="-165.4"/>
      <point x="-23.599999999999994" y="-165.4" type="curve" smooth="yes"/>
      <point x="-37.2" y="-165.4"/>
      <point x="-57.6" y="-163.6"/>
      <point x="-80.0" y="-154.39999999999998" type="curve"/>
      <point x="-94.2" y="-207.39999999999998" type="line"/>
      <point x="-69.39999999999999" y="-216.79999999999998"/>
      <point x="-28.000000000000007" y="-220.0"/>
      <point x="-13.599999999999994" y="-220.0" type="curve" smooth="yes"/>
      <point x="80.80000000000001" y="-220.0"/>
      <point x="124.19999999999999" y="-155.4"/>
      <point x="142.2" y="-41.199999999999996" type="curve" smooth="yes"/>
    </contour>
  </outline>
</glyph>
<glyph name="l" format="2">
  <advance width="370.40000000000003"/>
  <unicode hex="006C"/>
  <anchor x="210.20000000000002" y="0.0" name="bottom"/>
  <anchor x="174.0012" y="375.0" name="center"/>
  <anchor x="221.20000000000002" y="740.0" name="top"/>
  <anchor x="359.6" y="740.0" name="topright"/>
  <outline>
    <contour>
      <point x="184.8" y="740.0" type="line"/>
      <point x="95.39999999999999" y="177.6" type="line" smooth="yes"/>
      <point x="92.80000000000001" y="160.4"/>
      <point x="88.80000000000001" y="132.79999999999998"/>
      <point x="88.80000000000001" y="108.2" type="curve" smooth="yes"/>
      <point x="88.80000000000001" y="38.8"/>
      <point x="124.79999999999998" y="-10.0"/>
      <point x="212.79999999999998" y="-10.0" type="curve" smooth="yes"/>
      <point x="259.2" y="-10.0"/>
      <point x="300.2" y="-2.3999999999999995"/>
      <point x="336.8" y="7.4" type="curve"/>
      <point x="332.79999999999995" y="63.0" type="line"/>
      <point x="302.6" y="55.6"/>
      <point x="276.2" y="49.800000000000004"/>
      <point x="244.8" y="49.800000000000004" type="curve" smooth="yes"/>
      <point x="180.0" y="49.800000000000004"/>
      <point x="163.6" y="90.4"/>
      <point x="163.6" y="127.4" type="curve" smooth="yes"/>
      <point x="163.6" y="150.79999999999998"/>
      <point x="166.79999999999998" y="171.2"/>
      <point x="168.79999999999998" y="181.20000000000002" type="curve" smooth="yes"/>
      <point x="257.6" y="740.0" type="line"/>
    </contour>
  </outline>
</glyph>
<glyph name="m" format="2">
  <advance width="1253.0"/>
  <unicode hex="006D"/>
  <note>
24&gt;23 points
un point de trop dans la jointure avec 2e jambage
</note>
  <outline>
    <contour>
      <point x="1141.6" y="-10.0" type="curve" smooth="yes"/>
      <point x="1161.6000000000001" y="-10.0"/>
      <point x="1190.0" y="-7.6000000000000005"/>
      <point x="1209.8" y="-0.7999999999999998" type="curve"/>
      <point x="1206.6000000000001" y="51.800000000000004" type="line"/>
      <point x="1195.0" y="47.6"/>
      <point x="1178.6" y="45.0"/>
      <point x="1164.6000000000001" y="45.0" type="curve" smooth="yes"/>
      <point x="1136.3999999999999" y="45.0"/>
      <point x="1117.8" y="62.00000000000001"/>
      <point x="1117.8" y="96.19999999999999" type="curve" smooth="yes"/>
      <point x="1117.8" y="144.4"/>
      <point x="1155.0" y="314.0"/>
      <point x="1155.0" y="384.0" type="curve" smooth="yes"/>
      <point x="1155.0" y="482.00000000000006"/>
      <point x="1092.4" y="544.0"/>
      <point x="961.8" y="544.0" type="curve" smooth="yes"/>
      <point x="847.4" y="544.0"/>
      <point x="759.6" y="496.59999999999997"/>
      <point x="662.5999999999999" y="440.6" type="curve"/>
      <point x="644.0" y="502.2"/>
      <point x="593.0" y="544.0"/>
      <point x="494.6" y="544.0" type="curve" smooth="yes"/>
      <point x="394.6" y="544.0"/>
      <point x="304.59999999999997" y="502.4"/>
      <point x="205.39999999999998" y="446.0" type="curve"/>
      <point x="217.8" y="534.0" type="line"/>
      <point x="151.6" y="534.0" type="line"/>
      <point x="67.8" y="0.0" type="line"/>
      <point x="139.8" y="0.0" type="line"/>
      <point x="203.2" y="398.0" type="line"/>
      <point x="300.6" y="453.8"/>
      <point x="377.8" y="488.6"/>
      <point x="459.20000000000005" y="488.6" type="curve" smooth="yes"/>
      <point x="569.5999999999999" y="488.6"/>
      <point x="600.4" y="428.0"/>
      <point x="600.4" y="356.40000000000003" type="curve" smooth="yes"/>
      <point x="600.4" y="340.4"/>
      <point x="593.5999999999999" y="293.2"/>
      <point x="550.6" y="0.0" type="curve"/>
      <point x="621.8000000000001" y="0.0" type="line"/>
      <point x="664.2" y="287.0"/>
      <point x="669.0" y="325.4"/>
      <point x="672.1999999999999" y="358.0" type="curve" smooth="yes"/>
      <point x="672.4" y="369.4"/>
      <point x="672.4" y="385.4"/>
      <point x="671.0" y="396.40000000000003" type="curve"/>
      <point x="760.2" y="449.40000000000003"/>
      <point x="838.8" y="488.0"/>
      <point x="932.6" y="488.0" type="curve" smooth="yes"/>
      <point x="1039.0" y="488.0"/>
      <point x="1079.0" y="439.40000000000003"/>
      <point x="1079.0" y="362.0" type="curve" smooth="yes"/>
      <point x="1079.0" y="284.0"/>
      <point x="1043.8" y="127.6"/>
      <point x="1043.8" y="78.8" type="curve" smooth="yes"/>
      <point x="1043.8" y="19.0"/>
      <point x="1084.0" y="-10.0"/>
    </contour>
  </outline>
</glyph>
<glyph name="n" format="2">
  <advance width="834.8000000000001"/>
  <unicode hex="006E"/>
  <note>
16
</note>
  <anchor x="393.6" y="0.0" name="bottom"/>
  <anchor x="446.40000000000003" y="534.0" name="top"/>
  <outline>
    <contour>
      <point x="151.6" y="534.0" type="line"/>
      <point x="67.8" y="0.0" type="line"/>
      <point x="139.6" y="0.0" type="line"/>
      <point x="202.39999999999998" y="395.4" type="line"/>
      <point x="316.59999999999997" y="449.79999999999995"/>
      <point x="400.0" y="488.59999999999997"/>
      <point x="513.8" y="488.59999999999997" type="curve" smooth="yes"/>
      <point x="617.2" y="488.59999999999997"/>
      <point x="660.2" y="440.8"/>
      <point x="660.2" y="363.0" type="curve" smooth="yes"/>
      <point x="660.2" y="284.0"/>
      <point x="624.8000000000001" y="129.6"/>
      <point x="624.8000000000001" y="78.8" type="curve" smooth="yes"/>
      <point x="624.8000000000001" y="19.0"/>
      <point x="665.8000000000001" y="-10.0"/>
      <point x="723.4" y="-10.0" type="curve" smooth="yes"/>
      <point x="743.4000000000001" y="-10.0"/>
      <point x="771.8000000000001" y="-7.6000000000000005"/>
      <point x="791.6" y="-0.7999999999999998" type="curve"/>
      <point x="788.4" y="51.800000000000004" type="line"/>
      <point x="776.8" y="47.6"/>
      <point x="760.4" y="45.0"/>
      <point x="746.4" y="45.0" type="curve" smooth="yes"/>
      <point x="718.2" y="45.0"/>
      <point x="698.8000000000001" y="62.8"/>
      <point x="698.8000000000001" y="97.0" type="curve" smooth="yes"/>
      <point x="698.8000000000001" y="145.20000000000002"/>
      <point x="736.0" y="314.0"/>
      <point x="736.0" y="384.0" type="curve" smooth="yes"/>
      <point x="736.0" y="484.8"/>
      <point x="670.6" y="544.0"/>
      <point x="543.6" y="544.0" type="curve" smooth="yes"/>
      <point x="418.6" y="544.0"/>
      <point x="322.4" y="502.6"/>
      <point x="205.0" y="443.59999999999997" type="curve"/>
      <point x="219.0" y="534.0" type="line"/>
    </contour>
  </outline>
</glyph>
<glyph name="o" format="2">
  <advance width="834.1999999999999"/>
  <unicode hex="006F"/>
  <note>
8
</note>
  <anchor x="396.0" y="0.0" name="bottom"/>
  <anchor x="417.6" y="275.0" name="center"/>
  <anchor x="493.0" y="0.0" name="ogonek"/>
  <anchor x="440.6" y="534.0" name="top"/>
  <anchor x="585.2" y="532.0" name="topright"/>
  <outline>
    <contour>
      <point x="407.6" y="-10.0" type="curve" smooth="yes"/>
      <point x="646.8" y="-10.0"/>
      <point x="774.8" y="97.19999999999997"/>
      <point x="774.0" y="295.0" type="curve" smooth="yes"/>
      <point x="773.2" y="456.8"/>
      <point x="652.4" y="544.8"/>
      <point x="424.0" y="544.8" type="curve" smooth="yes"/>
      <point x="184.8" y="544.8"/>
      <point x="56.8" y="437.6"/>
      <point x="57.599999999999994" y="239.79999999999998" type="curve" smooth="yes"/>
      <point x="58.4" y="78.0"/>
      <point x="179.20000000000002" y="-10.0"/>
    </contour>
    <contour>
      <point x="408.0" y="39.400000000000006" type="curve" smooth="yes"/>
      <point x="226.39999999999998" y="39.400000000000006"/>
      <point x="129.8" y="107.60000000000001"/>
      <point x="129.8" y="245.0" type="curve" smooth="yes"/>
      <point x="129.8" y="408.20000000000005"/>
      <point x="228.39999999999998" y="495.4"/>
      <point x="423.6" y="495.4" type="curve" smooth="yes"/>
      <point x="605.2" y="495.4"/>
      <point x="701.8" y="427.59999999999997"/>
      <point x="701.8" y="290.2" type="curve" smooth="yes"/>
      <point x="701.8" y="127.00000000000001"/>
      <point x="603.2" y="39.400000000000006"/>
    </contour>
  </outline>
</glyph>
<glyph name="p" format="2">
  <advance width="806.8"/>
  <unicode hex="0070"/>
  <note>
14 point
</note>
  <outline>
    <contour>
      <point x="34.8" y="-210.0" type="line"/>
      <point x="106.4" y="-210.0" type="line"/>
      <point x="142.2" y="13.0" type="line"/>
      <point x="191.6" y="2.1999999999999993"/>
      <point x="256.40000000000003" y="-10.0"/>
      <point x="335.2" y="-10.0" type="curve" smooth="yes"/>
      <point x="590.1999999999999" y="-10.0"/>
      <point x="756.0" y="118.39999999999999"/>
      <point x="756.0" y="326.0" type="curve" smooth="yes"/>
      <point x="756.0" y="462.8"/>
      <point x="672.1999999999999" y="544.0"/>
      <point x="523.8000000000001" y="544.0" type="curve" smooth="yes"/>
      <point x="402.0" y="544.0"/>
      <point x="307.0" y="496.19999999999993"/>
      <point x="201.6" y="427.4" type="curve"/>
      <point x="218.4" y="534.0" type="line"/>
      <point x="151.60000000000002" y="534.0" type="line"/>
    </contour>
    <contour>
      <point x="337.79999999999995" y="40.0" type="curve" smooth="yes"/>
      <point x="259.0" y="40.0"/>
      <point x="196.4" y="54.800000000000004"/>
      <point x="150.2" y="65.4" type="curve"/>
      <point x="198.79999999999998" y="375.0" type="line"/>
      <point x="303.8" y="448.8"/>
      <point x="395.8" y="487.8"/>
      <point x="489.59999999999997" y="487.8" type="curve" smooth="yes"/>
      <point x="612.6" y="487.8"/>
      <point x="683.6" y="427.0"/>
      <point x="683.6" y="311.2" type="curve" smooth="yes"/>
      <point x="683.6" y="146.39999999999998"/>
      <point x="535.8" y="40.0"/>
    </contour>
  </outline>
</glyph>
<glyph name="q" format="2">
  <advance width="807.0"/>
  <unicode hex="0071"/>
  <note>
12
</note>
  <outline>
    <contour>
      <point x="733.4" y="510.8" type="line"/>
      <point x="658.6" y="528.4"/>
      <point x="564.0" y="544.0"/>
      <point x="462.8" y="544.0" type="curve" smooth="yes"/>
      <point x="202.8" y="544.0"/>
      <point x="48.6" y="419.0"/>
      <point x="48.6" y="208.79999999999998" type="curve" smooth="yes"/>
      <point x="48.6" y="84.39999999999999"/>
      <point x="142.0" y="-10.0"/>
      <point x="298.2" y="-10.0" type="curve" smooth="yes"/>
      <point x="403.2" y="-10.0"/>
      <point x="495.79999999999995" y="25.6"/>
      <point x="596.4" y="97.8" type="curve"/>
      <point x="547.0" y="-210.0" type="line"/>
      <point x="618.8000000000001" y="-210.0" type="line"/>
    </contour>
    <contour>
      <point x="654.8" y="467.40000000000003" type="curve"/>
      <point x="603.6" y="146.0" type="line"/>
      <point x="497.79999999999995" y="72.0"/>
      <point x="412.8" y="44.400000000000006"/>
      <point x="322.0" y="44.400000000000006" type="curve" smooth="yes"/>
      <point x="205.0" y="44.400000000000006"/>
      <point x="121.4" y="110.6"/>
      <point x="121.4" y="220.79999999999998" type="curve" smooth="yes"/>
      <point x="121.4" y="388.0"/>
      <point x="254.6" y="492.2"/>
      <point x="460.40000000000003" y="492.2" type="curve" smooth="yes"/>
      <point x="538.2" y="492.2"/>
      <point x="608.2" y="478.0"/>
    </contour>
  </outline>
</glyph>
<glyph name="r" format="2">
  <advance width="586.6"/>
  <unicode hex="0072"/>
  <anchor x="102.0" y="0.0" name="bottom"/>
  <anchor x="368.0" y="534.0" name="top"/>
  <outline>
    <contour>
      <point x="216.6" y="534.0" type="line"/>
      <point x="152.0" y="534.0" type="line"/>
      <point x="67.6" y="0.0" type="line"/>
      <point x="139.0" y="0.0" type="line"/>
      <point x="197.0" y="364.59999999999997" type="line"/>
      <point x="303.4" y="451.40000000000003"/>
      <point x="393.8" y="483.8"/>
      <point x="472.4" y="483.8" type="curve" smooth="yes"/>
      <point x="510.6" y="483.8"/>
      <point x="554.2" y="477.0"/>
      <point x="588.5999999999999" y="467.2" type="curve"/>
      <point x="608.2" y="527.0" type="line"/>
      <point x="581.0" y="535.8000000000001"/>
      <point x="536.0" y="544.0"/>
      <point x="488.4" y="544.0" type="curve" smooth="yes"/>
      <point x="400.40000000000003" y="544.0"/>
      <point x="317.0" y="511.0"/>
      <point x="198.79999999999998" y="419.40000000000003" type="curve"/>
    </contour>
  </outline>
</glyph>
<glyph name="s" format="2">
  <advance width="704.4"/>
  <unicode hex="0073"/>
  <anchor x="327.4" y="0.0" name="bottom"/>
  <anchor x="395.79999999999995" y="534.0" name="top"/>
  <outline>
    <contour>
      <point x="9.200000000000001" y="39.6" type="line"/>
      <point x="86.4" y="14.000000000000002"/>
      <point x="193.2" y="-10.0"/>
      <point x="317.6" y="-10.0" type="curve" smooth="yes"/>
      <point x="509.0" y="-10.0"/>
      <point x="635.4000000000001" y="39.400000000000006"/>
      <point x="635.4000000000001" y="152.2" type="curve" smooth="yes"/>
      <point x="635.4000000000001" y="350.8"/>
      <point x="155.4" y="246.60000000000002"/>
      <point x="155.4" y="393.0" type="curve" smooth="yes"/>
      <point x="155.4" y="453.4"/>
      <point x="234.2" y="495.0"/>
      <point x="388.40000000000003" y="495.0" type="curve" smooth="yes"/>
      <point x="476.59999999999997" y="495.0"/>
      <point x="562.0" y="480.8"/>
      <point x="628.8" y="459.2" type="curve"/>
      <point x="645.0" y="507.8" type="line"/>
      <point x="577.4" y="529.4000000000001"/>
      <point x="485.40000000000003" y="544.0"/>
      <point x="399.6" y="544.0" type="curve" smooth="yes"/>
      <point x="200.2" y="544.0"/>
      <point x="86.8" y="489.40000000000003"/>
      <point x="86.8" y="383.8" type="curve" smooth="yes"/>
      <point x="86.8" y="189.20000000000002"/>
      <point x="566.8" y="294.2"/>
      <point x="566.8" y="142.2" type="curve" smooth="yes"/>
      <point x="566.8" y="78.8"/>
      <point x="478.40000000000003" y="39.4"/>
      <point x="328.0" y="39.4" type="curve" smooth="yes"/>
      <point x="209.6" y="39.4"/>
      <point x="96.2" y="64.2"/>
      <point x="27.4" y="90.4" type="curve"/>
    </contour>
  </outline>
</glyph>
<glyph name="t" format="2">
  <advance width="565.2"/>
  <unicode hex="0074"/>
  <anchor x="296.2" y="0.0" name="bottom"/>
  <anchor x="278.2" y="275.0" name="center"/>
  <anchor x="250.2" y="665.0" name="top"/>
  <anchor x="502.4" y="794.0" name="topright"/>
  <outline>
    <contour>
      <point x="501.6" y="83.6" type="line"/>
      <point x="440.6" y="63.199999999999996"/>
      <point x="379.2" y="48.2"/>
      <point x="320.8" y="48.2" type="curve" smooth="yes"/>
      <point x="231.2" y="48.2"/>
      <point x="201.60000000000002" y="89.4"/>
      <point x="201.60000000000002" y="150.39999999999998" type="curve" smooth="yes"/>
      <point x="201.60000000000002" y="163.39999999999998"/>
      <point x="202.4" y="177.2"/>
      <point x="205.0" y="191.20000000000002" type="curve" smooth="yes"/>
      <point x="251.4" y="484.6" type="line"/>
      <point x="551.6" y="484.6" type="line"/>
      <point x="560.2" y="534.0" type="line"/>
      <point x="259.4" y="534.0" type="line"/>
      <point x="280.8" y="665.0" type="line"/>
      <point x="221.8" y="665.0" type="line"/>
      <point x="188.39999999999998" y="534.0" type="line"/>
      <point x="38.0" y="525.2" type="line"/>
      <point x="30.0" y="484.6" type="line"/>
      <point x="179.2" y="484.6" type="line"/>
      <point x="133.0" y="189.4" type="line" smooth="yes"/>
      <point x="129.6" y="169.0"/>
      <point x="127.6" y="146.2"/>
      <point x="127.6" y="132.6" type="curve" smooth="yes"/>
      <point x="127.6" y="28.799999999999997"/>
      <point x="190.2" y="-10.0"/>
      <point x="289.0" y="-10.0" type="curve" smooth="yes"/>
      <point x="349.4" y="-10.0"/>
      <point x="424.4" y="1.4000000000000001"/>
      <point x="505.0" y="29.200000000000003" type="curve"/>
    </contour>
  </outline>
</glyph>
<glyph name="u" format="2">
  <advance width="814.8"/>
  <unicode hex="0075"/>
  <note>
15
</note>
  <anchor x="355.40000000000003" y="0.0" name="bottom"/>
  <anchor x="758.2" y="5.2" name="ogonek"/>
  <anchor x="433.20000000000005" y="534.0" name="top"/>
  <anchor x="732.4" y="534.0" name="topright"/>
  <outline>
    <contour>
      <point x="276.0" y="-10.0" type="curve" smooth="yes"/>
      <point x="391.6" y="-10.0"/>
      <point x="485.8" y="24.4"/>
      <point x="599.6" y="84.8" type="curve"/>
      <point x="604.6" y="18.8"/>
      <point x="637.6" y="-10.0"/>
      <point x="692.4000000000001" y="-10.0" type="curve" smooth="yes"/>
      <point x="710.0" y="-10.0"/>
      <point x="738.0" y="-4.3999999999999995"/>
      <point x="758.2" y="7.4" type="curve"/>
      <point x="755.4" y="51.8" type="line"/>
      <point x="741.6" y="47.0"/>
      <point x="726.8" y="44.6"/>
      <point x="720.6" y="44.6" type="curve" smooth="yes"/>
      <point x="688.2" y="44.6"/>
      <point x="669.4000000000001" y="61.0"/>
      <point x="669.4000000000001" y="110.8" type="curve" smooth="yes"/>
      <point x="669.4000000000001" y="122.8"/>
      <point x="670.4" y="148.4"/>
      <point x="732.4" y="534.0" type="curve"/>
      <point x="659.4" y="534.0" type="line"/>
      <point x="598.6" y="129.20000000000002" type="line"/>
      <point x="493.4" y="76.39999999999999"/>
      <point x="412.0" y="45.0"/>
      <point x="305.79999999999995" y="45.0" type="curve" smooth="yes"/>
      <point x="212.2" y="45.0"/>
      <point x="166.4" y="88.2"/>
      <point x="166.4" y="159.8" type="curve" smooth="yes"/>
      <point x="166.4" y="176.6"/>
      <point x="168.4" y="203.20000000000002"/>
      <point x="221.6" y="534.0" type="curve"/>
      <point x="149.4" y="534.0" type="line"/>
      <point x="93.4" y="173.2"/>
      <point x="92.4" y="155.79999999999998"/>
      <point x="92.4" y="141.8" type="curve" smooth="yes"/>
      <point x="92.4" y="50.0"/>
      <point x="152.6" y="-10.0"/>
    </contour>
  </outline>
</glyph>
<glyph name="v" format="2">
  <advance width="686.1999999999999"/>
  <unicode hex="0076"/>
  <outline>
    <contour>
      <point x="330.8" y="-2.220446049250313e-16" type="line"/>
      <point x="628.8" y="375.6"/>
      <point x="694.4" y="426.6"/>
      <point x="705.0" y="534.0" type="curve"/>
      <point x="630.2" y="534.0" type="line"/>
      <point x="622.1999999999999" y="443.0"/>
      <point x="565.8" y="399.0"/>
      <point x="305.0" y="56.6" type="curve"/>
      <point x="112.0" y="542.0" type="line"/>
      <point x="38.199999999999996" y="536.4" type="line"/>
      <point x="254.0" y="-2.220446049250313e-16" type="line"/>
    </contour>
  </outline>
</glyph>
<glyph name="w" format="2">
  <advance width="1004.4000000000001"/>
  <unicode hex="0077"/>
  <note>
15
</note>
  <anchor x="471.59999999999997" y="0.0" name="bottom"/>
  <anchor x="525.4000000000001" y="534.0" name="top"/>
  <outline>
    <contour>
      <point x="740.6" y="0.0" type="line"/>
      <point x="965.1999999999999" y="358.0"/>
      <point x="1019.8" y="464.4"/>
      <point x="1019.8000000000001" y="534.0" type="curve"/>
      <point x="955.8000000000001" y="534.0" type="line"/>
      <point x="955.0" y="478.8"/>
      <point x="924.8000000000001" y="407.6"/>
      <point x="709.1999999999999" y="51.6" type="curve"/>
      <point x="571.2" y="534.0" type="line"/>
      <point x="493.8" y="534.0" type="line"/>
      <point x="415.00000000000006" y="365.8"/>
      <point x="336.0" y="213.4"/>
      <point x="254.79999999999995" y="53.6" type="curve"/>
      <point x="108.0" y="542.0" type="line"/>
      <point x="42.8" y="536.6" type="line"/>
      <point x="205.2" y="0.0" type="line"/>
      <point x="286.6" y="0.0" type="line"/>
      <point x="365.8" y="151.0"/>
      <point x="448.59999999999997" y="313.20000000000005"/>
      <point x="523.0" y="460.20000000000005" type="curve"/>
      <point x="664.8000000000001" y="0.0" type="line"/>
    </contour>
  </outline>
</glyph>
<glyph name="x" format="2">
  <advance width="704.0"/>
  <unicode hex="0078"/>
  <outline>
    <contour>
      <point x="638.2" y="534.0" type="line"/>
      <point x="589.0" y="454.4"/>
      <point x="554.8" y="419.0"/>
      <point x="366.2" y="314.20000000000005" type="curve"/>
      <point x="154.20000000000002" y="545.4000000000001" type="line"/>
      <point x="79.8" y="532.4" type="line"/>
      <point x="302.4" y="290.4" type="line"/>
      <point x="88.19999999999999" y="163.6"/>
      <point x="32.800000000000004" y="91.0"/>
      <point x="-6.3999999999999995" y="0.0" type="curve"/>
      <point x="70.2" y="0.0" type="line"/>
      <point x="104.19999999999999" y="66.6"/>
      <point x="125.0" y="126.39999999999998"/>
      <point x="337.20000000000005" y="248.8" type="curve"/>
      <point x="574.9999999999999" y="-7.6" type="line"/>
      <point x="647.0" y="3.4" type="line"/>
      <point x="399.40000000000003" y="272.6" type="line"/>
      <point x="609.8" y="389.2"/>
      <point x="671.5999999999999" y="454.99999999999994"/>
      <point x="712.0" y="534.0" type="curve"/>
    </contour>
  </outline>
</glyph>
<glyph name="y" format="2">
  <advance width="696.6"/>
  <unicode hex="0079"/>
  <anchor x="383.8" y="-84.0" name="bottom"/>
  <anchor x="382.59999999999997" y="534.0" name="top"/>
  <outline>
    <contour>
      <point x="639.8" y="534.0" type="line"/>
      <point x="638.4" y="459.8"/>
      <point x="483.2" y="216.20000000000002"/>
      <point x="330.59999999999997" y="27.999999999999996" type="curve"/>
      <point x="111.0" y="542.0" type="line"/>
      <point x="38.8" y="536.6" type="line"/>
      <point x="273.59999999999997" y="-8.0" type="line"/>
      <point x="298.8" y="-8.0" type="line"/>
      <point x="228.8" y="-90.2"/>
      <point x="158.6" y="-161.8"/>
      <point x="102.2" y="-206.8" type="curve"/>
      <point x="175.4" y="-219.0" type="line"/>
      <point x="366.0" y="-65.39999999999999"/>
      <point x="721.8000000000001" y="429.79999999999995"/>
      <point x="711.4" y="534.0" type="curve"/>
    </contour>
  </outline>
</glyph>
<glyph name="z" format="2">
  <advance width="740.0"/>
  <unicode hex="007A"/>
  <anchor x="342.8" y="0.0" name="bottom"/>
  <anchor x="367.59999999999997" y="275.0" name="center"/>
  <anchor x="401.20000000000005" y="534.0" name="top"/>
  <outline>
    <contour>
      <point x="24.0" y="0.0" type="line"/>
      <point x="660.2" y="0.0" type="line"/>
      <point x="668.5999999999999" y="51.400000000000006" type="line"/>
      <point x="137.8" y="51.400000000000006" type="line"/>
      <point x="705.0" y="487.4" type="line"/>
      <point x="712.6" y="534.0" type="line"/>
      <point x="116.6" y="534.0" type="line"/>
      <point x="108.0" y="482.59999999999997" type="line"/>
      <point x="600.5999999999999" y="482.59999999999997" type="line"/>
      <point x="30.4" y="45.400000000000006" type="line"/>
    </contour>
  </outline>
</glyph>
<glyph name="braceleft" format="2">
  <advance width="468.0"/>
  <unicode hex="007B"/>
  <outline>
    <contour>
      <point x="120.80000000000001" y="-93.4" type="curve" smooth="yes"/>
      <point x="120.80000000000001" y="-161.4"/>
      <point x="163.6" y="-210.0"/>
      <point x="275.2" y="-210.0" type="curve" smooth="yes"/>
      <point x="352.40000000000003" y="-210.0" type="line"/>
      <point x="359.8" y="-162.4" type="line"/>
      <point x="297.59999999999997" y="-162.4" type="line" smooth="yes"/>
      <point x="212.0" y="-162.4"/>
      <point x="185.8" y="-124.6"/>
      <point x="185.8" y="-79.60000000000001" type="curve" smooth="yes"/>
      <point x="185.8" y="5.800000000000001"/>
      <point x="256.2" y="82.0"/>
      <point x="256.2" y="185.6" type="curve" smooth="yes"/>
      <point x="256.2" y="220.0"/>
      <point x="241.0" y="248.79999999999998"/>
      <point x="204.0" y="264.2" type="curve"/>
      <point x="269.8" y="278.79999999999995"/>
      <point x="293.6" y="345.2"/>
      <point x="293.6" y="431.2" type="curve" smooth="yes"/>
      <point x="293.6" y="471.8"/>
      <point x="286.59999999999997" y="507.4"/>
      <point x="286.59999999999997" y="543.0" type="curve" smooth="yes"/>
      <point x="286.59999999999997" y="606.0"/>
      <point x="306.2" y="692.4"/>
      <point x="433.8" y="692.4" type="curve" smooth="yes"/>
      <point x="496.0" y="692.4" type="line"/>
      <point x="503.4" y="740.0" type="line"/>
      <point x="426.2" y="740.0" type="line" smooth="yes"/>
      <point x="265.4" y="740.0"/>
      <point x="223.0" y="635.8"/>
      <point x="223.0" y="543.5999999999999" type="curve" smooth="yes"/>
      <point x="223.0" y="509.59999999999997"/>
      <point x="229.8" y="465.8"/>
      <point x="229.8" y="422.8" type="curve" smooth="yes"/>
      <point x="229.8" y="344.4"/>
      <point x="210.0" y="287.8"/>
      <point x="144.79999999999998" y="287.8" type="curve" smooth="yes"/>
      <point x="127.2" y="287.8" type="line"/>
      <point x="119.8" y="241.4" type="line"/>
      <point x="138.2" y="241.4" type="line" smooth="yes"/>
      <point x="177.4" y="241.4"/>
      <point x="194.0" y="216.0"/>
      <point x="194.0" y="184.4" type="curve" smooth="yes"/>
      <point x="194.0" y="80.2"/>
      <point x="120.80000000000001" y="4.4"/>
    </contour>
  </outline>
</glyph>
<glyph name="bar" format="2">
  <advance width="310.4"/>
  <unicode hex="007C"/>
  <outline>
    <contour>
      <point x="265.8" y="790.0" type="line"/>
      <point x="209.2" y="790.0" type="line"/>
      <point x="49.6" y="-210.0" type="line"/>
      <point x="106.0" y="-210.0" type="line"/>
    </contour>
  </outline>
</glyph>
<glyph name="braceright" format="2">
  <advance width="468.0"/>
  <unicode hex="007D"/>
  <outline>
    <contour>
      <point x="343.4" y="623.4" type="curve" smooth="yes"/>
      <point x="343.4" y="691.4"/>
      <point x="300.6" y="740.0"/>
      <point x="189.0" y="740.0" type="curve" smooth="yes"/>
      <point x="111.8" y="740.0" type="line"/>
      <point x="104.4" y="692.4" type="line"/>
      <point x="166.6" y="692.4" type="line" smooth="yes"/>
      <point x="252.2" y="692.4"/>
      <point x="278.40000000000003" y="654.6"/>
      <point x="278.40000000000003" y="609.6" type="curve" smooth="yes"/>
      <point x="278.40000000000003" y="524.2"/>
      <point x="208.0" y="448.0"/>
      <point x="208.0" y="344.4" type="curve" smooth="yes"/>
      <point x="208.0" y="310.0"/>
      <point x="223.20000000000002" y="281.2"/>
      <point x="260.2" y="265.8" type="curve"/>
      <point x="194.4" y="251.20000000000002"/>
      <point x="170.6" y="184.79999999999998"/>
      <point x="170.6" y="98.80000000000001" type="curve" smooth="yes"/>
      <point x="170.6" y="58.199999999999996"/>
      <point x="177.6" y="22.6"/>
      <point x="177.6" y="-12.999999999999998" type="curve" smooth="yes"/>
      <point x="177.6" y="-76.0"/>
      <point x="158.0" y="-162.39999999999998"/>
      <point x="30.4" y="-162.39999999999998" type="curve" smooth="yes"/>
      <point x="-31.800000000000004" y="-162.39999999999998" type="line"/>
      <point x="-39.199999999999996" y="-210.0" type="line"/>
      <point x="38.0" y="-210.0" type="line" smooth="yes"/>
      <point x="198.79999999999998" y="-210.0"/>
      <point x="241.2" y="-105.80000000000001"/>
      <point x="241.2" y="-13.6" type="curve" smooth="yes"/>
      <point x="241.2" y="20.4"/>
      <point x="234.4" y="64.2"/>
      <point x="234.4" y="107.2" type="curve" smooth="yes"/>
      <point x="234.4" y="185.6"/>
      <point x="254.2" y="242.20000000000002"/>
      <point x="319.4" y="242.20000000000002" type="curve" smooth="yes"/>
      <point x="337.0" y="242.20000000000002" type="line"/>
      <point x="344.4" y="288.59999999999997" type="line"/>
      <point x="326.0" y="288.59999999999997" type="line" smooth="yes"/>
      <point x="286.8" y="288.59999999999997"/>
      <point x="270.2" y="314.0"/>
      <point x="270.2" y="345.6" type="curve" smooth="yes"/>
      <point x="270.2" y="449.79999999999995"/>
      <point x="343.4" y="525.5999999999999"/>
    </contour>
  </outline>
</glyph>
<glyph name="asciitilde" format="2">
  <advance width="561.1999999999999"/>
  <unicode hex="007E"/>
  <outline>
    <contour>
      <point x="486.6" y="260.0" type="curve"/>
      <point x="495.8" y="320.4" type="line"/>
      <point x="467.8" y="298.6"/>
      <point x="435.4" y="274.8"/>
      <point x="393.8" y="274.8" type="curve" smooth="yes"/>
      <point x="303.8" y="274.8"/>
      <point x="262.2" y="372.8"/>
      <point x="178.2" y="372.8" type="curve" smooth="yes"/>
      <point x="139.2" y="372.8"/>
      <point x="104.2" y="349.40000000000003"/>
      <point x="81.60000000000001" y="332.8" type="curve"/>
      <point x="71.4" y="271.6" type="line"/>
      <point x="98.2" y="289.8"/>
      <point x="128.0" y="314.8"/>
      <point x="170.4" y="314.8" type="curve" smooth="yes"/>
      <point x="257.2" y="314.8"/>
      <point x="296.8" y="216.8"/>
      <point x="389.6" y="216.8" type="curve" smooth="yes"/>
      <point x="428.40000000000003" y="216.8"/>
      <point x="461.6" y="239.0"/>
    </contour>
  </outline>
</glyph>
<glyph name="cent" format="2">
  <advance width="1037.2"/>
  <unicode hex="00A2"/>
  <outline>
    <contour>
      <point x="465.4" y="-104.8" type="line"/>
      <point x="517.1999999999999" y="-104.8" type="line"/>
      <point x="532.4" y="-9.0" type="line"/>
      <point x="655.8" y="-4.6"/>
      <point x="755.4" y="15.2"/>
      <point x="808.2" y="29.0" type="curve"/>
      <point x="804.2" y="80.19999999999999" type="line"/>
      <point x="740.6" y="66.20000000000002"/>
      <point x="628.0" y="43.6"/>
      <point x="538.4" y="43.6" type="curve" smooth="yes"/>
      <point x="365.6" y="43.6"/>
      <point x="273.0" y="109.0"/>
      <point x="273.0" y="237.39999999999998" type="curve" smooth="yes"/>
      <point x="273.0" y="389.40000000000003"/>
      <point x="398.2" y="489.4"/>
      <point x="612.4" y="489.4" type="curve" smooth="yes"/>
      <point x="713.1999999999999" y="489.4"/>
      <point x="788.2" y="472.2"/>
      <point x="856.1999999999999" y="453.4" type="curve"/>
      <point x="873.4" y="507.80000000000007" type="line"/>
      <point x="798.6" y="529.0"/>
      <point x="721.6" y="543.5999999999999"/>
      <point x="620.4" y="544.0" type="curve"/>
      <point x="635.8000000000001" y="639.0" type="line"/>
      <point x="584.0" y="639.0" type="line"/>
      <point x="568.0" y="539.4" type="line"/>
      <point x="328.4" y="525.0"/>
      <point x="199.6" y="403.0"/>
      <point x="199.6" y="229.0" type="curve" smooth="yes"/>
      <point x="199.6" y="68.19999999999999"/>
      <point x="313.6" y="-2.5999999999999996"/>
      <point x="480.20000000000005" y="-7.2" type="curve"/>
    </contour>
  </outline>
</glyph>
<glyph name="sterling" format="2">
  <advance width="1037.2"/>
  <unicode hex="00A3"/>
  <outline>
    <contour>
      <point x="116.6" y="0.0" type="line"/>
      <point x="879.4" y="0.0" type="line"/>
      <point x="888.0" y="54.0" type="line"/>
      <point x="215.0" y="54.0" type="line"/>
      <point x="331.8" y="130.6"/>
      <point x="378.40000000000003" y="184.0"/>
      <point x="378.40000000000003" y="262.4" type="curve" smooth="yes"/>
      <point x="378.40000000000003" y="326.8"/>
      <point x="323.79999999999995" y="389.4"/>
      <point x="323.79999999999995" y="456.40000000000003" type="curve" smooth="yes"/>
      <point x="323.79999999999995" y="587.2"/>
      <point x="460.0" y="656.0"/>
      <point x="639.1999999999999" y="656.0" type="curve" smooth="yes"/>
      <point x="733.5999999999999" y="656.0"/>
      <point x="829.6" y="646.0"/>
      <point x="935.2" y="615.8000000000001" type="curve"/>
      <point x="953.2" y="667.1999999999999" type="line"/>
      <point x="844.5999999999999" y="700.4000000000001"/>
      <point x="733.0" y="710.0"/>
      <point x="641.0" y="710.0" type="curve" smooth="yes"/>
      <point x="438.2" y="710.0"/>
      <point x="254.79999999999998" y="635.0"/>
      <point x="254.79999999999998" y="462.40000000000003" type="curve" smooth="yes"/>
      <point x="254.79999999999998" y="386.6"/>
      <point x="310.6" y="329.59999999999997"/>
      <point x="310.6" y="261.2" type="curve" smooth="yes"/>
      <point x="310.6" y="177.4"/>
      <point x="235.79999999999998" y="121.4"/>
      <point x="124.0" y="47.6" type="curve"/>
    </contour>
    <contour>
      <point x="134.8" y="342.6" type="line"/>
      <point x="790.4" y="344.2" type="line"/>
      <point x="798.5999999999999" y="392.8" type="line"/>
      <point x="142.6" y="392.8" type="line"/>
    </contour>
  </outline>
</glyph>
<glyph name="currency" format="2">
  <advance width="449.0"/>
  <unicode hex="00A4"/>
  <outline>
    <contour>
      <point x="60.2" y="106.2" type="line"/>
      <point x="139.8" y="182.0" type="line"/>
      <point x="156.39999999999998" y="165.6"/>
      <point x="178.2" y="156.6"/>
      <point x="204.8" y="156.6" type="curve" smooth="yes"/>
      <point x="231.0" y="156.6"/>
      <point x="257.0" y="166.4"/>
      <point x="279.0" y="182.2" type="curve"/>
      <point x="336.2" y="106.2" type="line"/>
      <point x="372.4" y="140.60000000000002" type="line"/>
      <point x="318.6" y="213.4" type="line"/>
      <point x="342.2" y="242.2"/>
      <point x="358.20000000000005" y="279.6"/>
      <point x="358.2" y="321.8" type="curve" smooth="yes"/>
      <point x="358.2" y="342.0"/>
      <point x="353.20000000000005" y="361.4"/>
      <point x="344.20000000000005" y="376.6" type="curve"/>
      <point x="421.0" y="449.4" type="line"/>
      <point x="395.8" y="483.8" type="line"/>
      <point x="315.0" y="407.8" type="line"/>
      <point x="298.79999999999995" y="424.4"/>
      <point x="275.20000000000005" y="434.2"/>
      <point x="248.8" y="434.2" type="curve" smooth="yes"/>
      <point x="222.2" y="434.2"/>
      <point x="197.20000000000002" y="424.4"/>
      <point x="175.6" y="408.0" type="curve"/>
      <point x="119.60000000000001" y="483.8" type="line"/>
      <point x="83.4" y="449.4" type="line"/>
      <point x="135.4" y="377.6" type="line"/>
      <point x="110.60000000000001" y="349.59999999999997"/>
      <point x="95.4" y="311.8"/>
      <point x="95.39999999999999" y="270.4" type="curve" smooth="yes"/>
      <point x="95.4" y="248.0"/>
      <point x="100.4" y="228.0"/>
      <point x="109.6" y="211.6" type="curve"/>
      <point x="34.6" y="140.60000000000002" type="line"/>
    </contour>
    <contour>
      <point x="212.0" y="198.6" type="curve" smooth="yes"/>
      <point x="168.79999999999998" y="198.6"/>
      <point x="139.4" y="232.79999999999998"/>
      <point x="139.4" y="279.20000000000005" type="curve" smooth="yes"/>
      <point x="139.4" y="340.6"/>
      <point x="190.2" y="392.2"/>
      <point x="242.20000000000002" y="392.2" type="curve" smooth="yes"/>
      <point x="285.6" y="392.2"/>
      <point x="315.0" y="358.4"/>
      <point x="315.0" y="313.0" type="curve" smooth="yes"/>
      <point x="315.0" y="251.0"/>
      <point x="265.2" y="198.6"/>
    </contour>
  </outline>
</glyph>
<glyph name="yen" format="2">
  <advance width="1037.2"/>
  <unicode hex="00A5"/>
  <outline>
    <contour>
      <point x="191.39999999999998" y="346.0" type="line"/>
      <point x="495.20000000000005" y="346.0" type="line"/>
      <point x="475.6" y="219.60000000000002" type="line"/>
      <point x="171.79999999999998" y="219.60000000000002" type="line"/>
      <point x="164.60000000000002" y="176.8" type="line"/>
      <point x="468.4" y="176.8" type="line"/>
      <point x="441.0" y="0.0" type="line"/>
      <point x="517.8000000000001" y="0.0" type="line"/>
      <point x="545.2" y="176.8" type="line"/>
      <point x="852.0" y="176.8" type="line"/>
      <point x="859.2" y="219.60000000000002" type="line"/>
      <point x="552.4" y="219.60000000000002" type="line"/>
      <point x="572.0" y="346.0" type="line"/>
      <point x="878.8000000000001" y="346.0" type="line"/>
      <point x="886.0" y="388.79999999999995" type="line"/>
      <point x="579.1999999999999" y="388.79999999999995" type="line"/>
      <point x="968.1999999999999" y="693.6" type="line"/>
      <point x="899.8000000000001" y="706.4" type="line"/>
      <point x="548.1999999999999" y="434.40000000000003" type="line"/>
      <point x="275.0" y="706.4" type="line"/>
      <point x="201.39999999999998" y="693.6" type="line"/>
      <point x="502.4" y="388.79999999999995" type="line"/>
      <point x="199.0" y="388.79999999999995" type="line"/>
    </contour>
  </outline>
</glyph>
<glyph name="brokenbar" format="2">
  <advance width="310.4"/>
  <unicode hex="00A6"/>
  <outline>
    <contour>
      <point x="201.6" y="391.0" type="line"/>
      <point x="265.8" y="790.0" type="line"/>
      <point x="209.20000000000002" y="790.0" type="line"/>
      <point x="145.0" y="391.0" type="line"/>
    </contour>
    <contour>
      <point x="113.80000000000001" y="190.0" type="line"/>
      <point x="49.6" y="-210.0" type="line"/>
      <point x="106.0" y="-210.0" type="line"/>
      <point x="170.2" y="190.0" type="line"/>
    </contour>
  </outline>
</glyph>
<glyph name="section" format="2">
  <advance width="663.0"/>
  <unicode hex="00A7"/>
  <outline>
    <contour>
      <point x="17.0" y="-84.2" type="curve"/>
      <point x="-10.8" y="-138.8" type="line"/>
      <point x="55.4" y="-191.2"/>
      <point x="122.99999999999999" y="-220.0"/>
      <point x="216.2" y="-220.0" type="curve" smooth="yes"/>
      <point x="398.6" y="-220.0"/>
      <point x="577.0" y="-126.79999999999998"/>
      <point x="577.0" y="96.6" type="curve" smooth="yes"/>
      <point x="577.0" y="279.6"/>
      <point x="420.40000000000003" y="423.4"/>
      <point x="420.40000000000003" y="567.8000000000001" type="curve" smooth="yes"/>
      <point x="420.40000000000003" y="635.4"/>
      <point x="458.20000000000005" y="683.8000000000001"/>
      <point x="539.2" y="683.8000000000001" type="curve" smooth="yes"/>
      <point x="580.0" y="683.8000000000001"/>
      <point x="610.0" y="672.0"/>
      <point x="638.6" y="662.2" type="curve"/>
      <point x="657.6" y="722.8" type="line"/>
      <point x="603.4000000000001" y="740.2"/>
      <point x="539.0" y="750.0"/>
      <point x="473.2" y="750.0" type="curve" smooth="yes"/>
      <point x="283.0" y="750.0"/>
      <point x="103.4" y="635.4"/>
      <point x="103.4" y="404.0" type="curve" smooth="yes"/>
      <point x="103.4" y="216.6"/>
      <point x="256.0" y="75.19999999999999"/>
      <point x="256.0" y="-38.199999999999996" type="curve" smooth="yes"/>
      <point x="256.0" y="-109.0"/>
      <point x="201.0" y="-148.0"/>
      <point x="147.4" y="-148.0" type="curve" smooth="yes"/>
      <point x="97.60000000000001" y="-148.0"/>
      <point x="52.6" y="-115.80000000000001"/>
    </contour>
    <contour>
      <point x="466.0" y="709.0" type="curve"/>
      <point x="394.2" y="687.5999999999999"/>
      <point x="363.59999999999997" y="628.8"/>
      <point x="363.59999999999997" y="560.0" type="curve" smooth="yes"/>
      <point x="363.59999999999997" y="408.40000000000003"/>
      <point x="517.4" y="240.8"/>
      <point x="517.4" y="80.6" type="curve" smooth="yes"/>
      <point x="517.4" y="-105.6"/>
      <point x="345.20000000000005" y="-198.2"/>
      <point x="186.20000000000002" y="-178.60000000000002" type="curve"/>
      <point x="262.2" y="-165.0"/>
      <point x="313.79999999999995" y="-102.80000000000001"/>
      <point x="313.79999999999995" y="-31.599999999999998" type="curve" smooth="yes"/>
      <point x="313.79999999999995" y="102.8"/>
      <point x="167.2" y="236.0"/>
      <point x="167.2" y="411.2" type="curve" smooth="yes"/>
      <point x="167.2" y="589.0"/>
      <point x="283.0" y="701.4"/>
    </contour>
  </outline>
</glyph>
<glyph name="copyright" format="2">
  <advance width="980.8000000000001"/>
  <unicode hex="00A9"/>
  <outline>
    <contour>
      <point x="473.40000000000003" y="-9.399999999999999" type="curve" smooth="yes"/>
      <point x="744.6" y="-10.200000000000001"/>
      <point x="924.2" y="125.20000000000002"/>
      <point x="924.2" y="393.79999999999995" type="curve" smooth="yes"/>
      <point x="924.2" y="616.8000000000001"/>
      <point x="738.8" y="708.6"/>
      <point x="524.1999999999999" y="709.4" type="curve" smooth="yes"/>
      <point x="258.4" y="710.1999999999999"/>
      <point x="80.60000000000001" y="575.8"/>
      <point x="80.60000000000001" y="305.6" type="curve" smooth="yes"/>
      <point x="80.60000000000001" y="82.8"/>
      <point x="263.2" y="-8.6"/>
    </contour>
    <contour>
      <point x="491.59999999999997" y="180.0" type="curve" smooth="yes"/>
      <point x="564.1999999999999" y="180.0"/>
      <point x="620.4" y="192.6"/>
      <point x="667.4" y="208.6" type="curve"/>
      <point x="660.6" y="249.4" type="line"/>
      <point x="612.6" y="236.0"/>
      <point x="564.6" y="225.39999999999998"/>
      <point x="500.59999999999997" y="225.39999999999998" type="curve" smooth="yes"/>
      <point x="406.2" y="225.39999999999998"/>
      <point x="342.0" y="268.0"/>
      <point x="342.0" y="330.8" type="curve" smooth="yes"/>
      <point x="342.0" y="426.40000000000003"/>
      <point x="418.99999999999994" y="477.0"/>
      <point x="537.6" y="477.0" type="curve" smooth="yes"/>
      <point x="590.2" y="477.0"/>
      <point x="637.0000000000001" y="469.8"/>
      <point x="687.5999999999999" y="456.4" type="curve"/>
      <point x="700.1999999999999" y="499.80000000000007" type="line"/>
      <point x="650.6" y="514.0"/>
      <point x="597.4000000000001" y="522.4000000000001"/>
      <point x="540.4" y="522.4000000000001" type="curve" smooth="yes"/>
      <point x="388.6" y="522.4000000000001"/>
      <point x="287.4" y="457.20000000000005"/>
      <point x="287.4" y="329.20000000000005" type="curve" smooth="yes"/>
      <point x="287.4" y="237.0"/>
      <point x="366.2" y="180.0"/>
    </contour>
    <contour>
      <point x="478.8" y="28.400000000000002" type="curve" smooth="yes"/>
      <point x="285.4" y="28.400000000000002"/>
      <point x="122.00000000000001" y="107.39999999999999"/>
      <point x="122.00000000000001" y="311.59999999999997" type="curve" smooth="yes"/>
      <point x="122.00000000000001" y="549.8"/>
      <point x="275.2" y="672.0"/>
      <point x="519.8000000000001" y="672.0" type="curve" smooth="yes"/>
      <point x="714.2" y="672.0"/>
      <point x="882.8" y="592.6"/>
      <point x="882.8" y="386.20000000000005" type="curve" smooth="yes"/>
      <point x="882.8" y="146.80000000000004"/>
      <point x="724.6" y="28.400000000000002"/>
    </contour>
  </outline>
</glyph>
<glyph name="ordfeminine" format="2">
  <advance width="547.8"/>
  <unicode hex="00AA"/>
  <outline>
    <contour>
      <point x="53.0" y="254.0" type="line"/>
      <point x="467.0" y="254.0" type="line"/>
      <point x="473.6" y="295.40000000000003" type="line"/>
      <point x="59.6" y="295.40000000000003" type="line"/>
    </contour>
    <component base="a.superior" xOffset="16.0"/>
  </outline>
</glyph>
<glyph name="logicalnot" format="2">
  <advance width="558.6"/>
  <unicode hex="00AC"/>
  <outline>
    <contour>
      <point x="76.2" y="363.4" type="line"/>
      <point x="456.0" y="363.4" type="line"/>
      <point x="426.4" y="172.0" type="line"/>
      <point x="479.40000000000003" y="172.0" type="line"/>
      <point x="518.2" y="418.8" type="line"/>
      <point x="85.4" y="418.8" type="line"/>
    </contour>
  </outline>
</glyph>
<glyph name="registered" format="2">
  <advance width="948.0"/>
  <unicode hex="00AE"/>
  <outline>
    <contour>
      <point x="500.59999999999997" y="211.20000000000002" type="curve" smooth="yes"/>
      <point x="767.6" y="211.20000000000002"/>
      <point x="921.8" y="348.6"/>
      <point x="921.8" y="579.8000000000001" type="curve" smooth="yes"/>
      <point x="921.8" y="779.5999999999999"/>
      <point x="786.8" y="890.8000000000001"/>
      <point x="534.4" y="890.8000000000001" type="curve" smooth="yes"/>
      <point x="267.4" y="890.8000000000001"/>
      <point x="113.60000000000001" y="753.4000000000001"/>
      <point x="113.60000000000001" y="522.1999999999999" type="curve" smooth="yes"/>
      <point x="113.60000000000001" y="322.8"/>
      <point x="247.8" y="211.20000000000002"/>
    </contour>
    <contour>
      <point x="503.79999999999995" y="248.0" type="curve" smooth="yes"/>
      <point x="271.59999999999997" y="248.0"/>
      <point x="152.2" y="345.8"/>
      <point x="152.2" y="522.6" type="curve" smooth="yes"/>
      <point x="152.2" y="737.0"/>
      <point x="289.8" y="854.4"/>
      <point x="531.5999999999999" y="854.4" type="curve" smooth="yes"/>
      <point x="763.8" y="854.4"/>
      <point x="883.2" y="756.1999999999999"/>
      <point x="883.2" y="579.4" type="curve" smooth="yes"/>
      <point x="883.2" y="365.0"/>
      <point x="745.1999999999999" y="248.0"/>
    </contour>
    <contour>
      <point x="326.8" y="400.40000000000003" type="line"/>
      <point x="371.99999999999994" y="400.40000000000003" type="line"/>
      <point x="393.0" y="527.0" type="line"/>
      <point x="434.99999999999994" y="526.4000000000001"/>
      <point x="467.40000000000003" y="525.4"/>
      <point x="525.4" y="526.4" type="curve"/>
      <point x="564.4" y="535.9999999999999" type="line"/>
      <point x="656.1999999999999" y="537.8000000000001"/>
      <point x="700.4" y="560.8000000000001"/>
      <point x="700.4" y="632.4" type="curve" smooth="yes"/>
      <point x="700.4" y="691.8"/>
      <point x="649.0" y="713.4"/>
      <point x="523.1999999999999" y="713.4" type="curve" smooth="yes"/>
      <point x="478.4" y="713.4"/>
      <point x="439.6" y="713.4"/>
      <point x="375.8" y="710.0" type="curve"/>
    </contour>
    <contour>
      <point x="507.2" y="559.6" type="curve" smooth="yes"/>
      <point x="472.40000000000003" y="559.6"/>
      <point x="444.0" y="560.6"/>
      <point x="398.40000000000003" y="561.2" type="curve"/>
      <point x="415.8" y="672.8" type="line"/>
      <point x="463.79999999999995" y="676.0"/>
      <point x="473.79999999999995" y="676.0"/>
      <point x="519.8000000000001" y="676.0" type="curve" smooth="yes"/>
      <point x="615.8000000000001" y="676.0"/>
      <point x="652.0000000000001" y="664.4"/>
      <point x="652.0000000000001" y="623.0" type="curve" smooth="yes"/>
      <point x="652.0000000000001" y="573.2"/>
      <point x="623.8" y="559.6"/>
    </contour>
    <contour>
      <point x="708.6" y="398.6" type="curve" smooth="yes"/>
      <point x="710.5999999999999" y="398.6"/>
      <point x="713.6" y="398.6"/>
      <point x="716.0" y="398.6" type="curve"/>
      <point x="722.0" y="441.59999999999997" type="line"/>
      <point x="720.1999999999999" y="441.59999999999997"/>
      <point x="718.2" y="441.59999999999997"/>
      <point x="716.8000000000001" y="441.59999999999997" type="curve" smooth="yes"/>
      <point x="682.4" y="441.59999999999997"/>
      <point x="617.4000000000001" y="485.2"/>
      <point x="567.4000000000001" y="542.4" type="curve"/>
      <point x="509.2" y="531.8" type="line"/>
      <point x="572.6" y="462.4"/>
      <point x="650.2" y="398.6"/>
    </contour>
  </outline>
</glyph>
<glyph name="degree" format="2">
  <advance width="292.8"/>
  <unicode hex="00B0"/>
  <outline>
    <contour>
      <point x="180.4" y="478.0" type="curve" smooth="yes"/>
      <point x="251.4" y="478.0"/>
      <point x="312.8" y="535.5999999999999"/>
      <point x="312.8" y="621.1999999999999" type="curve" smooth="yes"/>
      <point x="312.8" y="677.0"/>
      <point x="278.0" y="724.0"/>
      <point x="215.20000000000002" y="724.0" type="curve" smooth="yes"/>
      <point x="145.2" y="724.0"/>
      <point x="83.2" y="662.6"/>
      <point x="83.2" y="578.6" type="curve" smooth="yes"/>
      <point x="83.2" y="523.8000000000001"/>
      <point x="117.6" y="478.0"/>
    </contour>
    <contour>
      <point x="186.6" y="526.0" type="curve" smooth="yes"/>
      <point x="152.79999999999998" y="526.0"/>
      <point x="131.0" y="552.4"/>
      <point x="131.0" y="587.0" type="curve" smooth="yes"/>
      <point x="131.0" y="639.0"/>
      <point x="168.4" y="676.0"/>
      <point x="209.40000000000003" y="676.0" type="curve" smooth="yes"/>
      <point x="245.39999999999998" y="676.0"/>
      <point x="265.59999999999997" y="649.0"/>
      <point x="265.59999999999997" y="613.4" type="curve" smooth="yes"/>
      <point x="265.59999999999997" y="564.0"/>
      <point x="227.2" y="526.0"/>
    </contour>
  </outline>
</glyph>
<glyph name="plusminus" format="2">
  <advance width="559.0"/>
  <unicode hex="00B1"/>
  <outline>
    <contour>
      <point x="461.59999999999997" y="59.0" type="line"/>
      <point x="470.8" y="114.4" type="line"/>
      <point x="284.4" y="114.4" type="line"/>
      <point x="313.4" y="301.0" type="line"/>
      <point x="499.8" y="301.0" type="line"/>
      <point x="509.0" y="356.40000000000003" type="line"/>
      <point x="322.6" y="356.40000000000003" type="line"/>
      <point x="353.0" y="548.4" type="line"/>
      <point x="292.8" y="548.4" type="line"/>
      <point x="262.0" y="356.40000000000003" type="line"/>
      <point x="76.2" y="356.40000000000003" type="line"/>
      <point x="67.0" y="301.0" type="line"/>
      <point x="253.2" y="301.0" type="line"/>
      <point x="223.79999999999998" y="114.4" type="line"/>
      <point x="38.0" y="114.4" type="line"/>
      <point x="28.8" y="59.0" type="line"/>
    </contour>
  </outline>
</glyph>
<glyph name="uni00B2" format="2">
  <advance width="619.6"/>
  <unicode hex="00B2"/>
  <outline>
    <contour>
      <point x="95.4" y="370.0" type="line"/>
      <point x="556.4" y="370.0" type="line"/>
      <point x="560.6" y="405.79999999999995" type="line"/>
      <point x="200.20000000000002" y="405.79999999999995" type="line"/>
      <point x="365.0" y="488.0"/>
      <point x="517.4" y="542.0"/>
      <point x="517.4" y="662.6" type="curve" smooth="yes"/>
      <point x="517.4" y="736.1999999999999"/>
      <point x="454.2" y="770.6"/>
      <point x="362.0" y="770.6" type="curve" smooth="yes"/>
      <point x="300.0" y="770.6"/>
      <point x="223.39999999999998" y="752.6"/>
      <point x="171.8" y="730.6" type="curve"/>
      <point x="183.0" y="694.0" type="line"/>
      <point x="231.60000000000002" y="716.8"/>
      <point x="293.40000000000003" y="732.0"/>
      <point x="346.8" y="732.0" type="curve" smooth="yes"/>
      <point x="417.59999999999997" y="732.0"/>
      <point x="458.59999999999997" y="704.8"/>
      <point x="458.59999999999997" y="653.6" type="curve" smooth="yes"/>
      <point x="458.6" y="555.6"/>
      <point x="322.40000000000003" y="501.0"/>
      <point x="98.0" y="399.20000000000005" type="curve"/>
    </contour>
  </outline>
</glyph>
<glyph name="uni00B3" format="2">
  <advance width="571.0"/>
  <unicode hex="00B3"/>
  <outline>
    <contour>
      <point x="47.599999999999994" y="414.4" type="line"/>
      <point x="112.39999999999999" y="378.40000000000003"/>
      <point x="191.4" y="363.59999999999997"/>
      <point x="302.4" y="363.59999999999997" type="curve" smooth="yes"/>
      <point x="463.8" y="363.59999999999997"/>
      <point x="557.8" y="399.2"/>
      <point x="557.8" y="489.99999999999994" type="curve" smooth="yes"/>
      <point x="557.8" y="537.0"/>
      <point x="517.8" y="571.1999999999999"/>
      <point x="446.40000000000003" y="582.0" type="curve"/>
      <point x="509.0" y="595.2"/>
      <point x="551.0" y="629.5999999999999"/>
      <point x="551.0" y="674.8000000000001" type="curve" smooth="yes"/>
      <point x="551.0" y="735.5999999999999"/>
      <point x="476.40000000000003" y="770.6"/>
      <point x="339.59999999999997" y="770.6" type="curve" smooth="yes"/>
      <point x="280.6" y="770.6"/>
      <point x="195.0" y="760.2"/>
      <point x="136.4" y="746.4" type="curve"/>
      <point x="140.4" y="710.6" type="line"/>
      <point x="202.8" y="724.1999999999999"/>
      <point x="280.6" y="733.2"/>
      <point x="331.0" y="733.2" type="curve" smooth="yes"/>
      <point x="435.79999999999995" y="733.2"/>
      <point x="498.4" y="709.4"/>
      <point x="498.4" y="668.0" type="curve" smooth="yes"/>
      <point x="498.4" y="622.4000000000001"/>
      <point x="431.4" y="593.0"/>
      <point x="350.40000000000003" y="593.0" type="curve" smooth="yes"/>
      <point x="207.20000000000002" y="593.0" type="line"/>
      <point x="202.0" y="559.8" type="line"/>
      <point x="335.20000000000005" y="559.8" type="line" smooth="yes"/>
      <point x="452.6" y="559.8"/>
      <point x="504.8" y="534.0"/>
      <point x="504.8" y="485.59999999999997" type="curve" smooth="yes"/>
      <point x="504.8" y="426.0"/>
      <point x="436.0" y="399.6"/>
      <point x="300.2" y="399.6" type="curve" smooth="yes"/>
      <point x="196.79999999999998" y="399.6"/>
      <point x="124.0" y="415.6"/>
      <point x="65.6" y="448.2" type="curve"/>
    </contour>
  </outline>
</glyph>
<glyph name="uni00B5" format="2">
  <advance width="817.0"/>
  <unicode hex="00B5"/>
  <outline>
    <contour>
      <point x="35.6" y="-210.0" type="line"/>
      <point x="107.4" y="-210.0" type="line"/>
      <point x="151.6" y="72.8" type="line"/>
      <point x="167.2" y="21.4"/>
      <point x="213.4" y="-10.0"/>
      <point x="292.4" y="-10.0" type="curve" smooth="yes"/>
      <point x="403.59999999999997" y="-10.0"/>
      <point x="492.4" y="24.4"/>
      <point x="601.8" y="84.8" type="curve"/>
      <point x="606.8" y="18.8"/>
      <point x="639.8000000000001" y="-10.0"/>
      <point x="694.5999999999999" y="-10.0" type="curve" smooth="yes"/>
      <point x="712.1999999999999" y="-10.0"/>
      <point x="740.2" y="-4.3999999999999995"/>
      <point x="760.4" y="7.4" type="curve"/>
      <point x="757.6" y="51.8" type="line"/>
      <point x="743.8" y="47.0"/>
      <point x="729.0" y="44.6"/>
      <point x="722.8000000000001" y="44.6" type="curve" smooth="yes"/>
      <point x="690.4" y="44.6"/>
      <point x="671.5999999999999" y="61.0"/>
      <point x="671.5999999999999" y="110.8" type="curve" smooth="yes"/>
      <point x="671.5999999999999" y="122.8"/>
      <point x="672.6" y="148.4"/>
      <point x="734.6" y="534.0" type="curve"/>
      <point x="661.6" y="534.0" type="line"/>
      <point x="600.8" y="129.20000000000002" type="line"/>
      <point x="495.6" y="76.39999999999999"/>
      <point x="414.2" y="45.0"/>
      <point x="308.0" y="45.0" type="curve" smooth="yes"/>
      <point x="214.4" y="45.0"/>
      <point x="168.60000000000002" y="88.2"/>
      <point x="168.6" y="159.8" type="curve" smooth="yes"/>
      <point x="168.60000000000002" y="176.6"/>
      <point x="170.60000000000002" y="203.2"/>
      <point x="223.79999999999998" y="534.0" type="curve"/>
      <point x="151.6" y="534.0" type="line"/>
    </contour>
  </outline>
</glyph>
<glyph name="paragraph" format="2">
  <advance width="750.8"/>
  <unicode hex="00B6"/>
  <outline>
    <contour>
      <point x="499.8" y="-210.0" type="line"/>
      <point x="555.5999999999999" y="-210.0" type="line"/>
      <point x="705.8" y="740.0" type="line"/>
      <point x="650.0" y="740.0" type="line"/>
    </contour>
    <contour>
      <point x="309.8" y="230.6" type="line"/>
      <point x="216.0" y="240.0"/>
      <point x="146.39999999999998" y="305.2"/>
      <point x="146.39999999999998" y="404.79999999999995" type="curve" smooth="yes"/>
      <point x="146.39999999999998" y="563.0"/>
      <point x="245.39999999999998" y="684.6"/>
      <point x="454.8" y="687.0" type="curve"/>
      <point x="313.59999999999997" y="-210.0" type="line"/>
      <point x="369.40000000000003" y="-210.0" type="line"/>
      <point x="519.6" y="740.0" type="line"/>
      <point x="480.2" y="740.0" type="line" smooth="yes"/>
      <point x="226.8" y="740.0"/>
      <point x="86.2" y="621.0"/>
      <point x="86.2" y="401.20000000000005" type="curve" smooth="yes"/>
      <point x="86.2" y="276.4"/>
      <point x="171.2" y="198.2"/>
      <point x="297.2" y="188.0" type="curve"/>
    </contour>
  </outline>
</glyph>
<glyph name="periodcentered" format="2">
  <advance width="249.0"/>
  <unicode hex="00B7"/>
  <outline>
    <contour>
      <point x="82.8" y="283.59999999999997" type="curve" smooth="yes"/>
      <point x="81.8" y="264.20000000000005"/>
      <point x="93.80000000000001" y="256.4"/>
      <point x="119.8" y="256.4" type="curve" smooth="yes"/>
      <point x="154.60000000000002" y="256.4"/>
      <point x="169.20000000000002" y="265.4"/>
      <point x="171.4" y="302.0" type="curve" smooth="yes"/>
      <point x="172.4" y="321.79999999999995"/>
      <point x="160.4" y="329.59999999999997"/>
      <point x="134.4" y="329.59999999999997" type="curve" smooth="yes"/>
      <point x="100.0" y="329.59999999999997"/>
      <point x="85.0" y="319.4"/>
    </contour>
  </outline>
</glyph>
<glyph name="uni00B9" format="2">
  <advance width="518.4"/>
  <unicode hex="00B9"/>
  <outline>
    <contour>
      <point x="46.6" y="370.0" type="line"/>
      <point x="516.6" y="370.0" type="line"/>
      <point x="522.2" y="405.8" type="line"/>
      <point x="335.4" y="405.8" type="line"/>
      <point x="393.8" y="767.2" type="line"/>
      <point x="362.2" y="767.2" type="line"/>
      <point x="85.0" y="654.5999999999999" type="line"/>
      <point x="91.0" y="616.0" type="line"/>
      <point x="330.40000000000003" y="713.0" type="line"/>
      <point x="279.0" y="405.8" type="line"/>
      <point x="51.4" y="405.8" type="line"/>
    </contour>
  </outline>
</glyph>
<glyph name="ordmasculine" format="2">
  <advance width="510.0"/>
  <unicode hex="00BA"/>
  <outline>
    <contour>
      <point x="43.8" y="254.0" type="line"/>
      <point x="454.0" y="254.0" type="line"/>
      <point x="460.59999999999997" y="295.40000000000003" type="line"/>
      <point x="50.4" y="295.40000000000003" type="line"/>
    </contour>
    <component base="o.superior" xOffset="8.0"/>
  </outline>
</glyph>
<glyph name="AE" format="2">
  <advance width="1434.8"/>
  <unicode hex="00C6"/>
  <anchor x="673.0663999999999" y="0.0" name="bottom"/>
  <anchor x="777.8000000000001" y="700.0" name="top"/>
  <outline>
    <contour>
      <point x="613.6" y="0.0" type="line"/>
      <point x="1335.4" y="0.0" type="line"/>
      <point x="1345.6" y="61.4" type="line"/>
      <point x="697.2" y="61.4" type="line"/>
      <point x="739.6" y="329.40000000000003" type="line"/>
      <point x="1314.3999999999999" y="329.40000000000003" type="line"/>
      <point x="1324.2" y="389.2" type="line"/>
      <point x="749.0000000000001" y="389.2" type="line"/>
      <point x="788.5999999999999" y="638.6" type="line"/>
      <point x="1410.0" y="638.6" type="line"/>
      <point x="1420.2" y="700.0" type="line"/>
      <point x="685.1999999999999" y="700.0" type="line"/>
      <point x="-40.2" y="0.0" type="line"/>
      <point x="45.6" y="0.0" type="line"/>
      <point x="366.4" y="306.19999999999993" type="line"/>
      <point x="662.1999999999999" y="306.19999999999993" type="line"/>
    </contour>
    <contour>
      <point x="414.40000000000003" y="359.20000000000005" type="line"/>
      <point x="716.4000000000001" y="649.4" type="line"/>
      <point x="670.4000000000001" y="359.20000000000005" type="line"/>
    </contour>
  </outline>
</glyph>
<glyph name="multiply" format="2">
  <advance width="536.1999999999999"/>
  <unicode hex="00D7"/>
  <outline>
    <contour>
      <point x="71.2" y="75.0" type="line"/>
      <point x="266.79999999999995" y="256.2" type="line"/>
      <point x="403.40000000000003" y="76.6" type="line"/>
      <point x="442.4" y="119.60000000000001" type="line"/>
      <point x="310.8" y="293.40000000000003" type="line"/>
      <point x="504.4" y="471.8" type="line"/>
      <point x="473.59999999999997" y="513.4" type="line"/>
      <point x="276.2" y="331.8" type="line"/>
      <point x="135.4" y="515.8" type="line"/>
      <point x="97.0" y="474.6" type="line"/>
      <point x="233.0" y="294.79999999999995" type="line"/>
      <point x="40.2" y="115.60000000000001" type="line"/>
    </contour>
  </outline>
</glyph>
<glyph name="Oslash" format="2">
  <advance width="1131.2"/>
  <unicode hex="00D8"/>
  <anchor x="609.8" y="700.0" name="top"/>
  <outline>
    <contour>
      <point x="1155.4" y="710.0" type="line"/>
      <point x="1068.4" y="710.0" type="line"/>
      <point x="918.8000000000001" y="610.4000000000001" type="line"/>
      <point x="919.5999999999999" y="609.6" type="line"/>
      <point x="187.2" y="125.0" type="line"/>
      <point x="187.6" y="124.2" type="line"/>
      <point x="-9.0" y="-8.0" type="line"/>
      <point x="77.6" y="-8.0" type="line"/>
      <point x="226.4" y="90.6" type="line"/>
      <point x="225.60000000000002" y="91.4" type="line"/>
      <point x="966.8000000000001" y="582.0" type="line"/>
      <point x="966.4" y="582.8" type="line"/>
    </contour>
    <contour>
      <point x="559.6" y="-10.0" type="curve" smooth="yes"/>
      <point x="881.8" y="-10.0"/>
      <point x="1066.3999999999999" y="135.8"/>
      <point x="1066.3999999999999" y="392.79999999999995" type="curve" smooth="yes"/>
      <point x="1066.3999999999999" y="599.8"/>
      <point x="913.6" y="710.4"/>
      <point x="586.4" y="710.4" type="curve" smooth="yes"/>
      <point x="264.20000000000005" y="710.4"/>
      <point x="79.6" y="564.6"/>
      <point x="79.6" y="307.6" type="curve" smooth="yes"/>
      <point x="79.6" y="100.6"/>
      <point x="232.39999999999998" y="-10.0"/>
    </contour>
    <contour>
      <point x="562.4" y="44.599999999999994" type="curve" smooth="yes"/>
      <point x="283.4" y="44.599999999999994"/>
      <point x="155.4" y="136.0"/>
      <point x="155.4" y="312.0" type="curve" smooth="yes"/>
      <point x="155.4" y="533.0"/>
      <point x="309.0" y="655.8000000000001"/>
      <point x="583.6" y="655.8000000000001" type="curve" smooth="yes"/>
      <point x="862.5999999999999" y="655.8000000000001"/>
      <point x="990.6" y="564.4"/>
      <point x="990.6" y="388.4" type="curve" smooth="yes"/>
      <point x="990.6" y="167.4"/>
      <point x="837.0" y="44.599999999999994"/>
    </contour>
  </outline>
</glyph>
<glyph name="Thorn" format="2">
  <advance width="987.6"/>
  <unicode hex="00DE"/>
  <outline>
    <contour>
      <point x="80.8" y="0.0" type="line"/>
      <point x="156.0" y="0.0" type="line"/>
      <point x="180.8" y="154.8" type="line"/>
      <point x="311.59999999999997" y="150.8"/>
      <point x="380.0" y="149.8"/>
      <point x="494.80000000000007" y="149.8" type="curve" smooth="yes"/>
      <point x="820.4" y="149.8"/>
      <point x="951.2" y="229.2"/>
      <point x="951.2" y="427.59999999999997" type="curve" smooth="yes"/>
      <point x="951.2" y="572.1999999999999"/>
      <point x="840.0" y="631.4"/>
      <point x="545.8000000000001" y="631.4" type="curve" smooth="yes"/>
      <point x="494.20000000000005" y="631.4"/>
      <point x="421.40000000000003" y="629.5999999999999"/>
      <point x="254.60000000000002" y="623.0" type="curve"/>
      <point x="267.40000000000003" y="700.0" type="line"/>
      <point x="192.2" y="700.0" type="line"/>
    </contour>
    <contour>
      <point x="491.2" y="206.0" type="curve" smooth="yes"/>
      <point x="374.8" y="206.0"/>
      <point x="311.79999999999995" y="207.0"/>
      <point x="190.20000000000002" y="211.79999999999998" type="curve"/>
      <point x="246.2" y="566.4" type="line"/>
      <point x="419.2" y="573.6"/>
      <point x="478.2" y="575.1999999999999"/>
      <point x="541.5999999999999" y="575.1999999999999" type="curve" smooth="yes"/>
      <point x="787.8000000000001" y="575.1999999999999"/>
      <point x="873.4" y="534.4000000000001"/>
      <point x="873.4" y="423.0" type="curve" smooth="yes"/>
      <point x="873.4" y="268.0"/>
      <point x="772.0" y="206.0"/>
    </contour>
  </outline>
</glyph>
<glyph name="germandbls" format="2">
  <advance width="893.2"/>
  <unicode hex="00DF"/>
  <outline>
    <contour>
      <point x="96.0" y="-44.8" type="line" smooth="yes"/>
      <point x="84.0" y="-122.0"/>
      <point x="57.400000000000006" y="-165.4"/>
      <point x="3.2" y="-165.4" type="curve" smooth="yes"/>
      <point x="-10.999999999999995" y="-165.4"/>
      <point x="-31.799999999999997" y="-163.4"/>
      <point x="-54.599999999999994" y="-154.0" type="curve"/>
      <point x="-67.2" y="-204.20000000000002" type="line"/>
      <point x="-42.6" y="-216.2"/>
      <point x="-1.6000000000000028" y="-220.0"/>
      <point x="20.599999999999998" y="-220.0" type="curve" smooth="yes"/>
      <point x="103.2" y="-220.0"/>
      <point x="147.8" y="-160.0"/>
      <point x="164.0" y="-57.0" type="curve" smooth="yes"/>
      <point x="249.8" y="480.00000000000006" type="line" smooth="yes"/>
      <point x="275.6" y="639.2"/>
      <point x="355.6" y="701.2"/>
      <point x="538.5999999999999" y="701.2" type="curve" smooth="yes"/>
      <point x="665.0" y="701.2"/>
      <point x="729.8" y="673.6"/>
      <point x="729.8" y="619.8" type="curve" smooth="yes"/>
      <point x="729.8" y="573.1999999999999"/>
      <point x="696.1999999999999" y="547.6"/>
      <point x="556.1999999999999" y="529.4" type="curve" smooth="yes"/>
      <point x="402.59999999999997" y="509.4"/>
      <point x="341.0" y="466.6"/>
      <point x="341.0" y="379.4" type="curve" smooth="yes"/>
      <point x="341.0" y="293.20000000000005"/>
      <point x="406.4" y="259.2"/>
      <point x="595.0" y="238.0" type="curve" smooth="yes"/>
      <point x="744.8" y="220.79999999999998"/>
      <point x="801.8000000000001" y="197.0"/>
      <point x="801.8000000000001" y="140.79999999999998" type="curve" smooth="yes"/>
      <point x="801.8000000000001" y="69.0"/>
      <point x="712.1999999999999" y="39.800000000000004"/>
      <point x="561.8" y="39.800000000000004" type="curve" smooth="yes"/>
      <point x="478.2" y="39.800000000000004"/>
      <point x="362.79999999999995" y="60.0"/>
      <point x="280.0" y="89.6" type="curve"/>
      <point x="263.4" y="39.2" type="line"/>
      <point x="351.40000000000003" y="8.799999999999999"/>
      <point x="463.6" y="-11.0"/>
      <point x="552.4" y="-11.0" type="curve" smooth="yes"/>
      <point x="757.3999999999999" y="-11.0"/>
      <point x="866.8000000000001" y="36.199999999999996"/>
      <point x="866.8000000000001" y="148.2" type="curve" smooth="yes"/>
      <point x="866.8000000000001" y="224.20000000000002"/>
      <point x="797.4" y="269.40000000000003"/>
      <point x="626.2" y="288.19999999999993" type="curve" smooth="yes"/>
      <point x="455.2" y="306.99999999999994"/>
      <point x="403.59999999999997" y="325.80000000000007"/>
      <point x="403.59999999999997" y="385.8" type="curve" smooth="yes"/>
      <point x="403.59999999999997" y="442.20000000000005"/>
      <point x="453.99999999999994" y="466.6"/>
      <point x="594.0" y="485.6" type="curve" smooth="yes"/>
      <point x="744.1999999999999" y="505.59999999999997"/>
      <point x="789.2" y="548.1999999999999"/>
      <point x="789.2" y="624.6" type="curve" smooth="yes"/>
      <point x="789.2" y="707.2"/>
      <point x="708.8" y="750.0"/>
      <point x="534.6" y="750.0" type="curve" smooth="yes"/>
      <point x="319.20000000000005" y="750.0"/>
      <point x="214.4" y="677.0000000000001"/>
      <point x="183.2" y="494.59999999999997" type="curve" smooth="yes"/>
      <point x="181.8" y="484.0" type="line"/>
      <point x="39.6" y="473.0" type="line"/>
      <point x="31.799999999999997" y="432.4" type="line"/>
      <point x="171.6" y="432.4" type="line"/>
    </contour>
  </outline>
</glyph>
<glyph name="ae" format="2">
  <advance width="1330.0"/>
  <unicode hex="00E6"/>
  <anchor x="618.0" y="0.0" name="bottom"/>
  <anchor x="691.0" y="534.0" name="top"/>
  <outline>
    <contour>
      <point x="307.59999999999997" y="-10.0" type="curve" smooth="yes"/>
      <point x="410.6" y="-10.0"/>
      <point x="516.8" y="29.400000000000002"/>
      <point x="587.8000000000001" y="74.39999999999999" type="curve"/>
      <point x="576.0" y="0.0" type="line"/>
      <point x="641.0" y="0.0" type="line"/>
      <point x="660.2" y="123.8" type="line"/>
      <point x="690.8" y="38.599999999999994"/>
      <point x="780.4" y="-10.0"/>
      <point x="926.2" y="-10.0" type="curve" smooth="yes"/>
      <point x="1026.8" y="-10.0"/>
      <point x="1152.1999999999998" y="13.200000000000001"/>
      <point x="1242.2" y="46.6" type="curve"/>
      <point x="1233.4" y="97.0" type="line"/>
      <point x="1134.8" y="61.8"/>
      <point x="1013.9999999999999" y="41.0"/>
      <point x="930.0" y="41.0" type="curve" smooth="yes"/>
      <point x="774.0" y="41.0"/>
      <point x="678.0" y="107.19999999999999"/>
      <point x="678.0" y="217.8" type="curve" smooth="yes"/>
      <point x="678.0" y="379.2"/>
      <point x="814.8" y="494.6"/>
      <point x="1023.0" y="494.6" type="curve" smooth="yes"/>
      <point x="1148.0" y="494.6"/>
      <point x="1215.1999999999998" y="459.0"/>
      <point x="1215.1999999999998" y="393.0" type="curve" smooth="yes"/>
      <point x="1215.1999999999998" y="315.2"/>
      <point x="1102.3999999999999" y="272.2"/>
      <point x="901.1999999999999" y="271.8" type="curve" smooth="yes"/>
      <point x="817.8000000000001" y="271.4"/>
      <point x="733.6" y="279.4"/>
      <point x="669.0" y="294.2" type="curve"/>
      <point x="669.4000000000001" y="252.20000000000002" type="line"/>
      <point x="736.0" y="236.79999999999998"/>
      <point x="827.4" y="227.6"/>
      <point x="917.6" y="228.00000000000003" type="curve" smooth="yes"/>
      <point x="1161.6" y="228.4"/>
      <point x="1289.8" y="291.8"/>
      <point x="1289.8" y="399.8" type="curve" smooth="yes"/>
      <point x="1289.8" y="490.79999999999995"/>
      <point x="1198.6000000000001" y="544.0"/>
      <point x="1044.4" y="544.0" type="curve" smooth="yes"/>
      <point x="888.6" y="544.0"/>
      <point x="765.4" y="487.4"/>
      <point x="704.5999999999999" y="399.6" type="curve"/>
      <point x="725.8" y="534.0" type="line"/>
      <point x="660.4" y="534.0" type="line"/>
      <point x="652.1999999999999" y="485.40000000000003" type="line"/>
      <point x="593.8" y="523.6"/>
      <point x="518.1999999999999" y="544.0"/>
      <point x="439.59999999999997" y="544.0" type="curve" smooth="yes"/>
      <point x="221.79999999999998" y="544.0"/>
      <point x="49.0" y="425.4"/>
      <point x="49.0" y="215.0" type="curve" smooth="yes"/>
      <point x="49.0" y="70.0"/>
      <point x="145.8" y="-10.0"/>
    </contour>
    <contour>
      <point x="339.40000000000003" y="44.60000000000001" type="curve" smooth="yes"/>
      <point x="205.20000000000002" y="44.60000000000001"/>
      <point x="121.39999999999999" y="109.0"/>
      <point x="121.39999999999999" y="222.6" type="curve" smooth="yes"/>
      <point x="121.39999999999999" y="418.79999999999995"/>
      <point x="293.59999999999997" y="495.59999999999997"/>
      <point x="450.59999999999997" y="495.59999999999997" type="curve" smooth="yes"/>
      <point x="524.4" y="495.59999999999997"/>
      <point x="587.2" y="480.40000000000003"/>
      <point x="646.1999999999999" y="443.40000000000003" type="curve"/>
      <point x="595.8" y="123.8" type="line"/>
      <point x="522.8" y="76.6"/>
      <point x="424.6" y="44.60000000000001"/>
    </contour>
  </outline>
</glyph>
<glyph name="eth" format="2">
  <advance width="890.8"/>
  <unicode hex="00F0"/>
  <outline>
    <contour>
      <point x="785.1999999999999" y="380.2" type="curve"/>
      <point x="793.0" y="426.4" type="line"/>
      <point x="716.6" y="496.20000000000005"/>
      <point x="580.8" y="531.8"/>
      <point x="436.4" y="531.8" type="curve" smooth="yes"/>
      <point x="210.79999999999998" y="531.8"/>
      <point x="56.2" y="439.6"/>
      <point x="56.2" y="248.00000000000003" type="curve" smooth="yes"/>
      <point x="56.2" y="49.0"/>
      <point x="207.20000000000002" y="-9.6"/>
      <point x="405.20000000000005" y="-9.6" type="curve" smooth="yes"/>
      <point x="646.5999999999999" y="-9.6"/>
      <point x="804.2" y="94.6"/>
      <point x="840.4" y="319.59999999999997" type="curve" smooth="yes"/>
      <point x="844.8" y="343.8"/>
      <point x="845.8" y="367.4"/>
      <point x="845.8" y="390.20000000000005" type="curve" smooth="yes"/>
      <point x="845.8" y="614.6"/>
      <point x="660.8000000000001" y="721.5999999999999"/>
      <point x="359.0" y="721.5999999999999" type="curve" smooth="yes"/>
      <point x="275.2" y="721.5999999999999"/>
      <point x="217.2" y="712.8"/>
      <point x="148.79999999999998" y="700.6" type="curve"/>
      <point x="146.60000000000002" y="656.0" type="line"/>
      <point x="208.60000000000002" y="665.8000000000001"/>
      <point x="259.0" y="675.8000000000001"/>
      <point x="352.8" y="675.8000000000001" type="curve" smooth="yes"/>
      <point x="629.6" y="675.8000000000001"/>
      <point x="773.8000000000001" y="580.4"/>
      <point x="773.8000000000001" y="398.79999999999995" type="curve" smooth="yes"/>
      <point x="773.8000000000001" y="376.2"/>
      <point x="772.8000000000001" y="352.8"/>
      <point x="768.0" y="326.2" type="curve" smooth="yes"/>
      <point x="736.4000000000001" y="130.8"/>
      <point x="615.2" y="41.0"/>
      <point x="414.4" y="41.0" type="curve" smooth="yes"/>
      <point x="251.2" y="41.0"/>
      <point x="127.2" y="89.0"/>
      <point x="127.2" y="252.79999999999998" type="curve" smooth="yes"/>
      <point x="127.2" y="405.6"/>
      <point x="259.8" y="484.0"/>
      <point x="446.59999999999997" y="484.0" type="curve" smooth="yes"/>
      <point x="588.8" y="484.0"/>
      <point x="708.4" y="447.4"/>
    </contour>
    <contour>
      <point x="271.59999999999997" y="546.4" type="line"/>
      <point x="627.4" y="653.6" type="line"/>
      <point x="621.0" y="655.4000000000001" type="line"/>
      <point x="873.0" y="733.5999999999999" type="line"/>
      <point x="767.0" y="733.5999999999999" type="line"/>
      <point x="573.6" y="674.0" type="line"/>
      <point x="582.8000000000001" y="673.0" type="line"/>
      <point x="165.2" y="546.4" type="line"/>
    </contour>
  </outline>
</glyph>
<glyph name="divide" format="2">
  <advance width="559.0"/>
  <unicode hex="00F7"/>
  <outline>
    <contour>
      <point x="213.8" y="88.60000000000001" type="curve" smooth="yes"/>
      <point x="212.8" y="72.39999999999999"/>
      <point x="222.8" y="67.0"/>
      <point x="245.2" y="67.0" type="curve" smooth="yes"/>
      <point x="274.8" y="67.0"/>
      <point x="287.0" y="73.2"/>
      <point x="289.59999999999997" y="107.8" type="curve" smooth="yes"/>
      <point x="290.59999999999997" y="124.0"/>
      <point x="281.0" y="129.4"/>
      <point x="258.2" y="129.4" type="curve" smooth="yes"/>
      <point x="229.4" y="129.4"/>
      <point x="216.4" y="122.8"/>
    </contour>
    <contour>
      <point x="277.59999999999997" y="482.6" type="curve" smooth="yes"/>
      <point x="276.59999999999997" y="466.8"/>
      <point x="286.2" y="461.0"/>
      <point x="309.0" y="461.0" type="curve" smooth="yes"/>
      <point x="338.6" y="461.0"/>
      <point x="350.4" y="468.0"/>
      <point x="353.0" y="502.2" type="curve" smooth="yes"/>
      <point x="354.0" y="518.4"/>
      <point x="344.40000000000003" y="523.4"/>
      <point x="321.59999999999997" y="523.4" type="curve" smooth="yes"/>
      <point x="292.4" y="523.4"/>
      <point x="280.2" y="516.8"/>
    </contour>
    <contour>
      <point x="61.6" y="266.59999999999997" type="line"/>
      <point x="494.4" y="266.59999999999997" type="line"/>
      <point x="504.4" y="323.4" type="line"/>
      <point x="71.60000000000001" y="323.4" type="line"/>
    </contour>
  </outline>
</glyph>
<glyph name="oslash" format="2">
  <advance width="834.1999999999999"/>
  <unicode hex="00F8"/>
  <anchor x="440.6" y="534.0" name="top"/>
  <outline>
    <contour>
      <point x="749.4000000000001" y="544.8" type="line"/>
      <point x="652.4" y="469.4" type="line"/>
      <point x="652.4" y="469.40000000000003" type="line"/>
      <point x="160.20000000000002" y="88.8" type="line"/>
      <point x="160.20000000000002" y="88.8" type="line"/>
      <point x="34.2" y="-10.0" type="line"/>
      <point x="94.8" y="-10.0" type="line"/>
      <point x="189.39999999999998" y="63.800000000000004" type="line"/>
      <point x="189.4" y="63.8" type="line"/>
      <point x="685.8" y="447.40000000000003" type="line"/>
      <point x="685.8" y="447.40000000000003" type="line"/>
      <point x="810.0" y="544.8" type="line"/>
    </contour>
    <contour>
      <point x="407.59999999999997" y="-10.0" type="curve" smooth="yes"/>
      <point x="646.8" y="-10.0"/>
      <point x="774.8" y="97.19999999999997"/>
      <point x="774.0" y="295.0" type="curve" smooth="yes"/>
      <point x="773.1999999999999" y="456.8"/>
      <point x="652.4000000000001" y="544.8"/>
      <point x="424.0" y="544.8" type="curve" smooth="yes"/>
      <point x="184.8" y="544.8"/>
      <point x="56.800000000000004" y="437.6"/>
      <point x="57.6" y="239.79999999999998" type="curve" smooth="yes"/>
      <point x="58.400000000000006" y="78.0"/>
      <point x="179.20000000000002" y="-10.0"/>
    </contour>
    <contour>
      <point x="408.0" y="39.4" type="curve" smooth="yes"/>
      <point x="226.4" y="39.4"/>
      <point x="129.8" y="107.6"/>
      <point x="129.8" y="245.0" type="curve" smooth="yes"/>
      <point x="129.8" y="408.2"/>
      <point x="228.4" y="495.40000000000003"/>
      <point x="423.6" y="495.40000000000003" type="curve" smooth="yes"/>
      <point x="605.2" y="495.40000000000003"/>
      <point x="701.8000000000001" y="427.59999999999997"/>
      <point x="701.8000000000001" y="290.20000000000005" type="curve" smooth="yes"/>
      <point x="701.8000000000001" y="127.00000000000003"/>
      <point x="603.2" y="39.4"/>
    </contour>
  </outline>
</glyph>
<glyph name="thorn" format="2">
  <advance width="806.1999999999999"/>
  <unicode hex="00FE"/>
  <outline>
    <contour>
      <point x="34.599999999999994" y="-210.0" type="line"/>
      <point x="106.2" y="-210.0" type="line"/>
      <point x="142.0" y="13.0" type="line"/>
      <point x="191.4" y="2.1999999999999993"/>
      <point x="256.2" y="-10.0"/>
      <point x="335.0" y="-10.0" type="curve" smooth="yes"/>
      <point x="590.0" y="-10.0"/>
      <point x="755.8" y="120.39999999999999"/>
      <point x="755.8" y="328.0" type="curve" smooth="yes"/>
      <point x="755.8" y="464.8"/>
      <point x="671.8" y="544.0"/>
      <point x="523.4000000000001" y="544.0" type="curve" smooth="yes"/>
      <point x="403.0" y="544.0"/>
      <point x="309.6" y="495.79999999999995"/>
      <point x="206.39999999999998" y="427.4" type="curve"/>
      <point x="256.0" y="740.0" type="line"/>
      <point x="184.8" y="740.0" type="line"/>
    </contour>
    <contour>
      <point x="338.2" y="41.4" type="curve" smooth="yes"/>
      <point x="259.6" y="41.4"/>
      <point x="196.79999999999998" y="56.2"/>
      <point x="150.2" y="66.80000000000001" type="curve"/>
      <point x="198.6" y="373.8" type="line"/>
      <point x="303.4" y="447.6"/>
      <point x="395.8" y="486.4"/>
      <point x="489.59999999999997" y="486.4" type="curve" smooth="yes"/>
      <point x="612.4" y="486.4"/>
      <point x="683.5999999999999" y="426.6"/>
      <point x="683.5999999999999" y="312.0" type="curve" smooth="yes"/>
      <point x="683.5999999999999" y="148.2"/>
      <point x="537.0" y="41.4"/>
    </contour>
  </outline>
</glyph>
<glyph name="Dcroat" format="2">
  <advance width="1077.0000000000002"/>
  <unicode hex="0110"/>
  <outline>
    <contour>
      <point x="24.2" y="334.4" type="line"/>
      <point x="419.20000000000005" y="334.4" type="line"/>
      <point x="428.2" y="385.59999999999997" type="line"/>
      <point x="34.0" y="385.59999999999997" type="line"/>
    </contour>
    <component base="D" xOffset="2.0"/>
  </outline>
</glyph>
<glyph name="dcroat" format="2">
  <advance width="814.4000000000001"/>
  <unicode hex="0111"/>
  <outline>
    <contour>
      <point x="452.40000000000003" y="612.8000000000001" type="line"/>
      <point x="873.2" y="612.8000000000001" type="line"/>
      <point x="880.5999999999999" y="652.4" type="line"/>
      <point x="459.8" y="652.4" type="line"/>
    </contour>
    <component base="d"/>
  </outline>
</glyph>
<glyph name="Hbar" format="2">
  <advance width="1102.3999999999999"/>
  <unicode hex="0126"/>
  <outline>
    <contour>
      <point x="72.0" y="497.4" type="line"/>
      <point x="1102.2" y="497.4" type="line"/>
      <point x="1110.0" y="547.6" type="line"/>
      <point x="79.8" y="547.6" type="line"/>
    </contour>
    <component base="H" xOffset="1.0"/>
  </outline>
</glyph>
<glyph name="hbar" format="2">
  <advance width="833.2"/>
  <unicode hex="0127"/>
  <outline>
    <contour>
      <point x="45.8" y="612.8000000000001" type="line"/>
      <point x="483.2" y="612.8000000000001" type="line"/>
      <point x="490.59999999999997" y="652.4" type="line"/>
      <point x="53.199999999999996" y="652.4" type="line"/>
    </contour>
    <component base="h" xOffset="-1.2000000000000002"/>
  </outline>
</glyph>
<glyph name="Idotaccent" format="2">
  <advance width="324.0"/>
  <unicode hex="0130"/>
  <outline>
    <contour>
      <point x="259.4" y="884.8" type="curve" smooth="yes"/>
      <point x="223.6" y="884.8"/>
      <point x="207.20000000000002" y="876.6"/>
      <point x="206.4" y="838.6" type="curve" smooth="yes"/>
      <point x="206.4" y="821.4"/>
      <point x="220.20000000000002" y="813.6"/>
      <point x="245.6" y="813.6" type="curve" smooth="yes"/>
      <point x="279.8" y="813.6"/>
      <point x="298.40000000000003" y="819.0"/>
      <point x="300.0" y="860.8" type="curve" smooth="yes"/>
      <point x="300.0" y="877.0"/>
      <point x="288.6" y="884.8"/>
    </contour>
    <component base="I"/>
  </outline>
</glyph>
<glyph name="dotlessi" format="2">
  <advance width="294.0"/>
  <unicode hex="0131"/>
  <anchor x="102.6888" y="0.0" name="bottom"/>
  <anchor x="139.2" y="0.0" name="ogonek"/>
  <anchor x="188.1112" y="534.0" name="top"/>
  <outline>
    <contour>
      <point x="139.2" y="0.0" type="line"/>
      <point x="223.60000000000002" y="534.0" type="line"/>
      <point x="151.79999999999998" y="534.0" type="line"/>
      <point x="67.0" y="0.2" type="line"/>
    </contour>
  </outline>
</glyph>
<glyph name="kgreenlandic" format="2">
  <advance width="739.8"/>
  <unicode hex="0138"/>
  <anchor x="342.2" y="0.0" name="bottom"/>
  <anchor x="418.20000000000005" y="534.0" name="top"/>
  <outline>
    <contour>
      <point x="67.8" y="0.0" type="line"/>
      <point x="140.2" y="0.0" type="line"/>
      <point x="224.4" y="534.0" type="line"/>
      <point x="151.6" y="534.0" type="line"/>
    </contour>
    <contour>
      <point x="667.8" y="-10.0" type="curve" smooth="yes"/>
      <point x="678.0" y="-10.0"/>
      <point x="690.4" y="-7.4"/>
      <point x="698.0" y="-3.8000000000000003" type="curve"/>
      <point x="702.4" y="58.2" type="line"/>
      <point x="695.6" y="55.6"/>
      <point x="686.6" y="55.0"/>
      <point x="679.4" y="55.0" type="curve" smooth="yes"/>
      <point x="637.8" y="55.0"/>
      <point x="581.8" y="88.6"/>
      <point x="433.4" y="208.2" type="curve" smooth="yes"/>
      <point x="189.20000000000002" y="405.0" type="line"/>
      <point x="178.6" y="333.6" type="line"/>
      <point x="415.4" y="141.0" type="line" smooth="yes"/>
      <point x="555.6" y="27.599999999999998"/>
      <point x="611.1999999999999" y="-10.0"/>
    </contour>
    <contour>
      <point x="340.0" y="265.59999999999997" type="line"/>
      <point x="519.8" y="336.59999999999997"/>
      <point x="662.1999999999999" y="435.0"/>
      <point x="733.8000000000001" y="532.4" type="curve"/>
      <point x="652.0" y="544.0" type="line"/>
      <point x="564.4" y="438.2"/>
      <point x="477.19999999999993" y="377.40000000000003"/>
      <point x="274.0" y="290.40000000000003" type="curve"/>
    </contour>
  </outline>
</glyph>
<glyph name="Ldot" format="2">
  <advance width="819.1999999999999"/>
  <unicode hex="013F"/>
  <outline>
    <contour>
      <point x="555.0" y="377.8" type="curve" smooth="yes"/>
      <point x="554.2" y="358.4"/>
      <point x="566.0" y="350.6"/>
      <point x="592.2" y="350.6" type="curve" smooth="yes"/>
      <point x="626.8" y="350.6"/>
      <point x="641.4" y="359.6"/>
      <point x="643.8000000000001" y="396.0" type="curve" smooth="yes"/>
      <point x="644.5999999999999" y="415.8"/>
      <point x="632.8000000000001" y="423.6"/>
      <point x="606.8000000000001" y="423.6" type="curve" smooth="yes"/>
      <point x="572.4" y="423.6"/>
      <point x="557.4000000000001" y="413.4"/>
    </contour>
    <component base="L"/>
  </outline>
</glyph>
<glyph name="ldot" format="2">
  <advance width="381.40000000000003"/>
  <unicode hex="0140"/>
  <outline>
    <contour>
      <point x="323.1802" y="362.9408" type="curve" smooth="yes"/>
      <point x="322.3802" y="347.4832"/>
      <point x="330.5026" y="341.9452"/>
      <point x="348.9198" y="341.9452" type="curve" smooth="yes"/>
      <point x="374.8816" y="341.9452"/>
      <point x="383.5804" y="348.29540000000003"/>
      <point x="385.9804" y="378.8788" type="curve" smooth="yes"/>
      <point x="386.7804" y="394.6074"/>
      <point x="378.65799999999996" y="400.1454"/>
      <point x="360.3554" y="400.1454" type="curve" smooth="yes"/>
      <point x="334.50800000000004" y="400.1454"/>
      <point x="325.58020000000005" y="392.9828"/>
    </contour>
    <component base="l"/>
  </outline>
</glyph>
<glyph name="Lslash" format="2">
  <advance width="816.1999999999999"/>
  <unicode hex="0141"/>
  <outline>
    <contour>
      <point x="77.0" y="0.0" type="line"/>
      <point x="751.4" y="0.0" type="line"/>
      <point x="761.8" y="60.199999999999996" type="line"/>
      <point x="162.20000000000002" y="60.199999999999996" type="line"/>
      <point x="192.8" y="255.8" type="line"/>
      <point x="563.2" y="453.20000000000005" type="line"/>
      <point x="573.8000000000001" y="516.4" type="line"/>
      <point x="203.4" y="319.0" type="line"/>
      <point x="264.0" y="700.0" type="line"/>
      <point x="188.79999999999998" y="700.0" type="line"/>
      <point x="121.99999999999999" y="281.59999999999997" type="line"/>
      <point x="32.4" y="234.20000000000002" type="line"/>
      <point x="22.199999999999996" y="172.0" type="line"/>
      <point x="111.4" y="219.2" type="line"/>
    </contour>
  </outline>
</glyph>
<glyph name="lslash" format="2">
  <advance width="371.4"/>
  <unicode hex="0142"/>
  <outline>
    <contour>
      <point x="16.4" y="155.8" type="line"/>
      <point x="338.4" y="420.2" type="line"/>
      <point x="347.59999999999997" y="479.79999999999995" type="line"/>
      <point x="25.400000000000002" y="215.4" type="line"/>
    </contour>
    <component base="l"/>
  </outline>
</glyph>
<glyph name="Eng" format="2">
  <advance width="1088.2"/>
  <unicode hex="014A"/>
  <outline>
    <contour>
      <point x="80.0" y="0.0" type="line"/>
      <point x="150.2" y="0.0" type="line"/>
      <point x="247.6" y="614.1999999999999" type="line"/>
      <point x="848.0" y="-3.0" type="line"/>
      <point x="813.4000000000001" y="-132.4"/>
      <point x="709.4" y="-167.0"/>
      <point x="602.0" y="-167.0" type="curve" smooth="yes"/>
      <point x="549.0" y="-167.0"/>
      <point x="495.2" y="-158.4"/>
      <point x="448.8" y="-147.60000000000002" type="curve"/>
      <point x="437.4" y="-201.39999999999998" type="line"/>
      <point x="490.40000000000003" y="-213.2"/>
      <point x="554.5999999999999" y="-220.0"/>
      <point x="606.6" y="-220.0" type="curve" smooth="yes"/>
      <point x="775.0" y="-220.0"/>
      <point x="894.0" y="-151.79999999999998"/>
      <point x="923.0" y="26.999999999999996" type="curve" smooth="yes"/>
      <point x="1031.2" y="700.0" type="line"/>
      <point x="961.0" y="700.0" type="line"/>
      <point x="862.8000000000001" y="80.0" type="line"/>
      <point x="259.0" y="708.0" type="line"/>
      <point x="193.6" y="708.0" type="line"/>
    </contour>
  </outline>
</glyph>
<glyph name="eng" format="2">
  <advance width="829.8"/>
  <unicode hex="014B"/>
  <outline>
    <contour>
      <point x="666.1999999999999" y="-46.6" type="curve" smooth="yes"/>
      <point x="667.2" y="-40.60000000000002"/>
      <point x="735.1999999999999" y="358.2"/>
      <point x="735.1999999999999" y="387.2" type="curve" smooth="yes"/>
      <point x="735.1999999999999" y="484.4"/>
      <point x="671.4000000000001" y="544.0"/>
      <point x="543.4000000000001" y="544.0" type="curve" smooth="yes"/>
      <point x="418.4" y="544.0"/>
      <point x="328.2" y="503.20000000000005"/>
      <point x="203.2" y="443.59999999999997" type="curve"/>
      <point x="217.20000000000002" y="534.0" type="line"/>
      <point x="151.6" y="534.0" type="line"/>
      <point x="67.8" y="0.0" type="line"/>
      <point x="138.6" y="0.0" type="line"/>
      <point x="201.79999999999998" y="396.4" type="line"/>
      <point x="318.4" y="451.0"/>
      <point x="399.0" y="488.79999999999995"/>
      <point x="512.5999999999999" y="488.79999999999995" type="curve" smooth="yes"/>
      <point x="616.1999999999999" y="488.79999999999995"/>
      <point x="660.8" y="440.8"/>
      <point x="659.2" y="360.4" type="curve" smooth="yes"/>
      <point x="656.8" y="315.59999999999997"/>
      <point x="598.4" y="-26.79999999999997"/>
      <point x="596.0" y="-41.2" type="curve" smooth="yes"/>
      <point x="582.4" y="-126.0"/>
      <point x="552.6" y="-169.0"/>
      <point x="491.6" y="-169.0" type="curve" smooth="yes"/>
      <point x="478.59999999999997" y="-169.0"/>
      <point x="460.0" y="-167.4"/>
      <point x="438.2" y="-158.6" type="curve"/>
      <point x="425.6" y="-213.39999999999998" type="line"/>
      <point x="446.4" y="-221.79999999999998"/>
      <point x="489.6" y="-224.8"/>
      <point x="507.79999999999995" y="-224.8" type="curve" smooth="yes"/>
      <point x="603.2" y="-224.8"/>
      <point x="648.0" y="-161.0"/>
    </contour>
  </outline>
</glyph>
<glyph name="OE" format="2">
  <advance width="1655.3999999999999"/>
  <unicode hex="0152"/>
  <outline>
    <contour>
      <point x="1556.0" y="0.0" type="line"/>
      <point x="1566.2" y="61.4" type="line"/>
      <point x="910.8000000000001" y="61.4" type="line"/>
      <point x="956.0" y="345.59999999999997" type="line"/>
      <point x="1554.9999999999998" y="345.59999999999997" type="line"/>
      <point x="1564.8" y="405.40000000000003" type="line"/>
      <point x="965.0" y="405.40000000000003" type="line"/>
      <point x="1001.8000000000001" y="638.6" type="line"/>
      <point x="1631.0000000000002" y="638.6" type="line"/>
      <point x="1640.8" y="700.0" type="line"/>
      <point x="1013.6" y="700.0" type="line"/>
      <point x="883.6000000000001" y="705.8000000000001"/>
      <point x="748.0" y="710.0"/>
      <point x="628.4" y="710.0" type="curve" smooth="yes"/>
      <point x="303.0" y="710.0"/>
      <point x="83.00000000000001" y="566.8000000000001"/>
      <point x="83.00000000000001" y="307.0" type="curve" smooth="yes"/>
      <point x="83.00000000000001" y="96.6"/>
      <point x="229.2" y="-10.0"/>
      <point x="549.8000000000001" y="-10.0" type="curve" smooth="yes"/>
      <point x="672.2" y="-10.0"/>
      <point x="775.6" y="-5.8"/>
      <point x="901.8" y="0.0" type="curve"/>
    </contour>
    <contour>
      <point x="836.6" y="53.60000000000001" type="line"/>
      <point x="739.8000000000001" y="47.400000000000006"/>
      <point x="660.6" y="43.800000000000004"/>
      <point x="560.5999999999999" y="43.800000000000004" type="curve" smooth="yes"/>
      <point x="291.0" y="43.800000000000004"/>
      <point x="157.79999999999998" y="133.0"/>
      <point x="157.79999999999998" y="313.2" type="curve" smooth="yes"/>
      <point x="157.79999999999998" y="528.6"/>
      <point x="346.2" y="656.2"/>
      <point x="629.4" y="656.2" type="curve" smooth="yes"/>
      <point x="682.0000000000001" y="656.2"/>
      <point x="871.6000000000001" y="652.2"/>
      <point x="931.2" y="648.0" type="curve"/>
    </contour>
  </outline>
</glyph>
<glyph name="oe" format="2">
  <advance width="1418.8"/>
  <unicode hex="0153"/>
  <outline>
    <contour>
      <point x="404.40000000000003" y="-10.0" type="curve" smooth="yes"/>
      <point x="564.2" y="-10.0"/>
      <point x="673.6" y="36.199999999999996"/>
      <point x="723.1999999999999" y="133.8" type="curve"/>
      <point x="753.8" y="37.800000000000004"/>
      <point x="850.0" y="-10.0"/>
      <point x="1000.9999999999999" y="-10.0" type="curve" smooth="yes"/>
      <point x="1106.3999999999999" y="-10.0"/>
      <point x="1236.2" y="13.200000000000001"/>
      <point x="1331.0" y="46.6" type="curve"/>
      <point x="1322.2" y="97.0" type="line"/>
      <point x="1220.4" y="61.800000000000004"/>
      <point x="1096.8" y="41.0"/>
      <point x="1010.4000000000001" y="41.0" type="curve" smooth="yes"/>
      <point x="847.6" y="41.0"/>
      <point x="766.8" y="102.0"/>
      <point x="766.8" y="217.79999999999998" type="curve" smooth="yes"/>
      <point x="766.8" y="379.2"/>
      <point x="903.1999999999999" y="494.6"/>
      <point x="1111.4" y="494.6" type="curve" smooth="yes"/>
      <point x="1236.4" y="494.6"/>
      <point x="1303.6" y="459.0"/>
      <point x="1303.6" y="393.0" type="curve" smooth="yes"/>
      <point x="1303.6" y="315.2"/>
      <point x="1190.8" y="279.4"/>
      <point x="990.0000000000001" y="278.59999999999997" type="curve" smooth="yes"/>
      <point x="909.8000000000001" y="278.2"/>
      <point x="820.4000000000001" y="286.2"/>
      <point x="755.8000000000001" y="299.4" type="curve"/>
      <point x="756.2" y="254.6" type="line"/>
      <point x="823.2" y="240.8"/>
      <point x="919.0" y="231.6"/>
      <point x="1006.0" y="232.0" type="curve" smooth="yes"/>
      <point x="1250.3999999999999" y="232.79999999999998"/>
      <point x="1378.6" y="291.8"/>
      <point x="1378.6" y="399.8" type="curve" smooth="yes"/>
      <point x="1378.6" y="490.79999999999995"/>
      <point x="1281.0" y="544.0"/>
      <point x="1117.2" y="544.0" type="curve" smooth="yes"/>
      <point x="934.4" y="544.0"/>
      <point x="802.8000000000001" y="476.4"/>
      <point x="746.8" y="370.40000000000003" type="curve"/>
      <point x="722.8" y="483.4"/>
      <point x="613.0" y="544.4"/>
      <point x="423.6" y="544.4" type="curve" smooth="yes"/>
      <point x="195.20000000000002" y="544.4"/>
      <point x="59.199999999999996" y="446.0"/>
      <point x="57.599999999999994" y="243.0" type="curve" smooth="yes"/>
      <point x="56.4" y="78.0"/>
      <point x="180.4" y="-10.0"/>
    </contour>
    <contour>
      <point x="406.8" y="39.400000000000006" type="curve" smooth="yes"/>
      <point x="225.6" y="39.400000000000006"/>
      <point x="130.2" y="110.80000000000001"/>
      <point x="130.2" y="243.0" type="curve" smooth="yes"/>
      <point x="130.2" y="409.40000000000003"/>
      <point x="229.6" y="495.4"/>
      <point x="425.20000000000005" y="495.4" type="curve" smooth="yes"/>
      <point x="609.0" y="495.4"/>
      <point x="702.1999999999999" y="424.79999999999995"/>
      <point x="702.1999999999999" y="291.40000000000003" type="curve" smooth="yes"/>
      <point x="702.1999999999999" y="122.20000000000002"/>
      <point x="599.2" y="39.400000000000006"/>
    </contour>
  </outline>
</glyph>
<glyph name="uni0162" format="2">
  <advance width="816.0"/>
  <unicode hex="0162"/>
  <anchor x="364.0" y="0.0" name="_bottom"/>
  <anchor x="311.59999999999997" y="-220.0" name="bottom"/>
  <outline>
    <contour>
      <point x="185.79999999999998" y="-185.60000000000002" type="line"/>
      <point x="228.20000000000002" y="-209.6"/>
      <point x="266.0" y="-220.0"/>
      <point x="318.79999999999995" y="-220.0" type="curve" smooth="yes"/>
      <point x="407.40000000000003" y="-220.0"/>
      <point x="468.2" y="-172.0"/>
      <point x="468.2" y="-92.60000000000001" type="curve" smooth="yes"/>
      <point x="468.2" y="-43.8"/>
      <point x="436.20000000000005" y="-9.4"/>
      <point x="388.59999999999997" y="6.0" type="curve"/>
      <point x="332.8" y="2.0" type="line"/>
      <point x="384.0" y="-17.4"/>
      <point x="408.0" y="-42.4"/>
      <point x="408.0" y="-88.2" type="curve" smooth="yes"/>
      <point x="408.0" y="-143.2"/>
      <point x="368.4" y="-173.2"/>
      <point x="305.4" y="-173.2" type="curve" smooth="yes"/>
      <point x="265.6" y="-173.2"/>
      <point x="233.2" y="-161.8"/>
      <point x="199.0" y="-141.6" type="curve"/>
    </contour>
    <component base="T"/>
  </outline>
</glyph>
<glyph name="Tbar" format="2">
  <advance width="820.0"/>
  <unicode hex="0166"/>
  <outline>
    <contour>
      <point x="865.5999999999999" y="642.8" type="line"/>
      <point x="875.8000000000001" y="700.0" type="line"/>
      <point x="79.6" y="700.0" type="line"/>
      <point x="69.2" y="642.8" type="line"/>
      <point x="430.40000000000003" y="642.8" type="line"/>
      <point x="389.59999999999997" y="385.4" type="line"/>
      <point x="148.79999999999998" y="385.4" type="line"/>
      <point x="140.4" y="333.8" type="line"/>
      <point x="381.40000000000003" y="333.8" type="line"/>
      <point x="328.6" y="0.0" type="line"/>
      <point x="403.8" y="0.0" type="line"/>
      <point x="456.6" y="333.8" type="line"/>
      <point x="703.8" y="333.8" type="line"/>
      <point x="712.2" y="385.4" type="line"/>
      <point x="464.79999999999995" y="385.4" type="line"/>
      <point x="505.40000000000003" y="642.8" type="line"/>
    </contour>
  </outline>
</glyph>
<glyph name="tbar" format="2">
  <advance width="565.2"/>
  <unicode hex="0167"/>
  <outline>
    <contour>
      <point x="42.8" y="299.20000000000005" type="line"/>
      <point x="472.8" y="299.20000000000005" type="line"/>
      <point x="480.59999999999997" y="340.40000000000003" type="line"/>
      <point x="50.6" y="340.40000000000003" type="line"/>
    </contour>
    <contour>
      <point x="501.40000000000003" y="83.8" type="line"/>
      <point x="440.6" y="63.199999999999996"/>
      <point x="379.2" y="48.2"/>
      <point x="320.8" y="48.2" type="curve" smooth="yes"/>
      <point x="231.2" y="48.2"/>
      <point x="201.40000000000003" y="89.60000000000001"/>
      <point x="201.40000000000003" y="150.39999999999998" type="curve" smooth="yes"/>
      <point x="201.40000000000003" y="163.39999999999998"/>
      <point x="202.4" y="177.39999999999998"/>
      <point x="205.0" y="191.4" type="curve" smooth="yes"/>
      <point x="251.20000000000002" y="484.6" type="line"/>
      <point x="551.4" y="484.6" type="line"/>
      <point x="560.0" y="534.0" type="line"/>
      <point x="259.4" y="534.0" type="line"/>
      <point x="280.6" y="665.0" type="line"/>
      <point x="221.60000000000002" y="665.0" type="line"/>
      <point x="188.39999999999998" y="534.0" type="line"/>
      <point x="37.8" y="525.2" type="line"/>
      <point x="29.599999999999998" y="484.6" type="line"/>
      <point x="179.0" y="484.6" type="line"/>
      <point x="132.8" y="189.4" type="line" smooth="yes"/>
      <point x="129.4" y="169.0"/>
      <point x="127.39999999999999" y="146.2"/>
      <point x="127.39999999999999" y="132.79999999999998" type="curve" smooth="yes"/>
      <point x="127.39999999999999" y="28.799999999999997"/>
      <point x="190.2" y="-10.0"/>
      <point x="289.0" y="-10.0" type="curve" smooth="yes"/>
      <point x="349.4" y="-10.0"/>
      <point x="424.4" y="1.4000000000000001"/>
      <point x="505.0" y="29.400000000000002" type="curve"/>
    </contour>
  </outline>
</glyph>
<glyph name="uogonek" format="2">
  <advance width="802.8000000000001"/>
  <unicode hex="0173"/>
  <outline>
    <contour>
      <point x="672.6" y="-214.8" type="curve" smooth="yes"/>
      <point x="697.1999999999999" y="-214.8"/>
      <point x="721.0" y="-211.60000000000002"/>
      <point x="741.8" y="-206.0" type="curve"/>
      <point x="743.1999999999999" y="-165.0" type="line"/>
      <point x="726.4" y="-169.20000000000002"/>
      <point x="712.2" y="-171.0"/>
      <point x="692.4" y="-171.0" type="curve" smooth="yes"/>
      <point x="651.8000000000001" y="-171.0"/>
      <point x="621.8" y="-154.0"/>
      <point x="621.8" y="-111.60000000000001" type="curve" smooth="yes"/>
      <point x="621.8" y="-64.8"/>
      <point x="662.6" y="-22.799999999999997"/>
      <point x="752.5999999999999" y="7.4" type="curve"/>
      <point x="749.8000000000001" y="51.8" type="line"/>
      <point x="736.0" y="47.0"/>
      <point x="721.2" y="44.6"/>
      <point x="715.0" y="44.6" type="curve" smooth="yes"/>
      <point x="682.6" y="44.6"/>
      <point x="663.8" y="61.0"/>
      <point x="663.8" y="110.8" type="curve" smooth="yes"/>
      <point x="663.8" y="122.8"/>
      <point x="664.8" y="148.4"/>
      <point x="726.8000000000001" y="534.0" type="curve"/>
      <point x="653.8000000000001" y="534.0" type="line"/>
      <point x="593.0" y="129.20000000000002" type="line"/>
      <point x="487.8" y="76.39999999999999"/>
      <point x="406.4" y="45.0"/>
      <point x="300.2" y="45.0" type="curve" smooth="yes"/>
      <point x="206.6" y="45.0"/>
      <point x="160.8" y="88.2"/>
      <point x="160.79999999999998" y="159.8" type="curve" smooth="yes"/>
      <point x="160.8" y="176.6"/>
      <point x="162.8" y="203.20000000000002"/>
      <point x="216.0" y="534.0" type="curve"/>
      <point x="143.8" y="534.0" type="line"/>
      <point x="87.8" y="173.2"/>
      <point x="86.8" y="155.79999999999998"/>
      <point x="86.8" y="141.79999999999998" type="curve" smooth="yes"/>
      <point x="86.8" y="50.0"/>
      <point x="147.0" y="-10.0"/>
      <point x="270.4" y="-10.0" type="curve" smooth="yes"/>
      <point x="386.0" y="-10.0"/>
      <point x="480.20000000000005" y="24.4"/>
      <point x="594.0" y="84.8" type="curve"/>
      <point x="598.8" y="24.4"/>
      <point x="627.4" y="-9.6"/>
      <point x="684.1999999999999" y="-9.6" type="curve" smooth="yes"/>
      <point x="697.6" y="-9.6"/>
      <point x="711.8" y="6.2"/>
      <point x="690.4000000000001" y="11.8" type="curve"/>
      <point x="616.0" y="-13.999999999999996"/>
      <point x="564.4" y="-59.400000000000006"/>
      <point x="564.4" y="-120.8" type="curve" smooth="yes"/>
      <point x="564.4" y="-184.6"/>
      <point x="610.2" y="-214.8"/>
    </contour>
  </outline>
</glyph>
<glyph name="longs" format="2">
  <advance width="389.0"/>
  <unicode hex="017F"/>
  <outline>
    <contour>
      <point x="7.799999999999994" y="-220.0" type="curve" smooth="yes"/>
      <point x="102.2" y="-220.0"/>
      <point x="152.0" y="-152.60000000000002"/>
      <point x="179.6" y="21.6" type="curve" smooth="yes"/>
      <point x="250.8" y="478.0" type="line" smooth="yes"/>
      <point x="273.8" y="625.4"/>
      <point x="337.40000000000003" y="693.4"/>
      <point x="459.0" y="693.4" type="curve" smooth="yes"/>
      <point x="534.5999999999999" y="693.4"/>
      <point x="586.0" y="680.4"/>
      <point x="650.0" y="661.0" type="curve"/>
      <point x="667.2" y="713.6" type="line"/>
      <point x="593.8" y="738.5999999999999"/>
      <point x="528.0" y="750.0"/>
      <point x="457.8" y="750.0" type="curve" smooth="yes"/>
      <point x="296.4" y="750.0"/>
      <point x="208.8" y="667.1999999999999"/>
      <point x="179.0" y="484.0" type="curve"/>
      <point x="57.8" y="476.0" type="line"/>
      <point x="51.0" y="433.0" type="line"/>
      <point x="170.8" y="433.0" type="line"/>
      <point x="106.39999999999999" y="20.0" type="line" smooth="yes"/>
      <point x="84.6" y="-117.2"/>
      <point x="56.4" y="-165.4"/>
      <point x="-9.600000000000003" y="-165.4" type="curve" smooth="yes"/>
      <point x="-23.999999999999993" y="-165.4"/>
      <point x="-38.8" y="-162.60000000000002"/>
      <point x="-56.00000000000001" y="-156.4" type="curve"/>
      <point x="-69.60000000000001" y="-206.60000000000002" type="line"/>
      <point x="-43.4" y="-216.0"/>
      <point x="-19.400000000000002" y="-220.0"/>
    </contour>
  </outline>
</glyph>
<glyph name="uni018F" format="2">
  <advance width="985.4"/>
  <unicode hex="018F"/>
  <outline>
    <contour>
      <point x="405.40000000000003" y="-10.0" type="curve" smooth="yes"/>
      <point x="681.6" y="-10.0"/>
      <point x="929.4000000000001" y="145.4"/>
      <point x="929.4000000000001" y="413.6" type="curve" smooth="yes"/>
      <point x="929.4000000000001" y="617.8"/>
      <point x="780.8" y="710.0"/>
      <point x="539.4" y="710.0" type="curve" smooth="yes"/>
      <point x="366.6" y="710.0"/>
      <point x="214.6" y="678.0"/>
      <point x="103.2" y="635.4" type="curve"/>
      <point x="115.19999999999999" y="579.0" type="line"/>
      <point x="225.0" y="621.8"/>
      <point x="362.6" y="655.8"/>
      <point x="532.6" y="655.8" type="curve" smooth="yes"/>
      <point x="726.4000000000001" y="655.8"/>
      <point x="857.1999999999999" y="584.6"/>
      <point x="857.1999999999999" y="411.0" type="curve" smooth="yes"/>
      <point x="857.1999999999999" y="204.00000000000003"/>
      <point x="670.6" y="45.400000000000006"/>
      <point x="413.40000000000003" y="45.400000000000006" type="curve" smooth="yes"/>
      <point x="238.4" y="45.400000000000006"/>
      <point x="122.8" y="100.0"/>
      <point x="122.8" y="183.79999999999998" type="curve" smooth="yes"/>
      <point x="122.8" y="286.2"/>
      <point x="274.2" y="340.8"/>
      <point x="529.1999999999999" y="342.40000000000003" type="curve" smooth="yes"/>
      <point x="634.6" y="343.2"/>
      <point x="762.8" y="331.59999999999997"/>
      <point x="857.8000000000001" y="311.8" type="curve"/>
      <point x="862.6" y="363.40000000000003" type="line"/>
      <point x="788.6" y="378.8"/>
      <point x="653.2" y="395.8"/>
      <point x="533.4" y="395.8" type="curve" smooth="yes"/>
      <point x="213.0" y="395.8"/>
      <point x="44.6" y="314.2"/>
      <point x="44.6" y="174.8" type="curve" smooth="yes"/>
      <point x="44.6" y="58.6"/>
      <point x="175.0" y="-10.0"/>
    </contour>
  </outline>
</glyph>
<glyph name="florin" format="2">
  <advance width="1037.2"/>
  <unicode hex="0192"/>
  <outline>
    <contour>
      <point x="380.2" y="338.8" type="line"/>
      <point x="848.0" y="338.8" type="line"/>
      <point x="856.0" y="390.59999999999997" type="line"/>
      <point x="388.4" y="390.59999999999997" type="line"/>
      <point x="391.20000000000005" y="404.4" type="line" smooth="yes"/>
      <point x="415.59999999999997" y="555.0"/>
      <point x="536.2" y="652.4000000000001"/>
      <point x="707.4" y="652.4000000000001" type="curve" smooth="yes"/>
      <point x="795.0" y="652.4000000000001"/>
      <point x="872.0" y="637.2"/>
      <point x="922.8" y="623.8" type="curve"/>
      <point x="940.0" y="678.8000000000001" type="line"/>
      <point x="887.8000000000001" y="695.4"/>
      <point x="796.5999999999999" y="710.0"/>
      <point x="712.1999999999999" y="710.0" type="curve" smooth="yes"/>
      <point x="503.59999999999997" y="710.0"/>
      <point x="348.8" y="604.4000000000001"/>
      <point x="318.79999999999995" y="414.4" type="curve" smooth="yes"/>
      <point x="314.79999999999995" y="390.59999999999997" type="line"/>
      <point x="172.20000000000002" y="386.6" type="line"/>
      <point x="164.79999999999998" y="338.8" type="line"/>
      <point x="306.59999999999997" y="338.8" type="line"/>
      <point x="219.6" y="-210.0" type="line"/>
      <point x="293.4" y="-210.0" type="line"/>
    </contour>
  </outline>
</glyph>
<glyph name="uni0237" format="2">
  <advance width="303.2"/>
  <unicode hex="0237"/>
  <anchor x="-10.4" y="-212.0" name="bottom"/>
  <anchor x="197.6" y="534.0" name="top"/>
  <outline>
    <contour>
      <point x="233.2" y="534.0" type="line"/>
      <point x="161.20000000000002" y="534.0" type="line"/>
      <point x="70.19999999999999" y="-43.599999999999994" type="line" smooth="yes"/>
      <point x="57.8" y="-122.19999999999999"/>
      <point x="32.4" y="-165.39999999999998"/>
      <point x="-23.599999999999998" y="-165.39999999999998" type="curve" smooth="yes"/>
      <point x="-37.2" y="-165.39999999999998"/>
      <point x="-57.599999999999994" y="-163.6"/>
      <point x="-80.0" y="-154.4" type="curve"/>
      <point x="-94.2" y="-207.39999999999998" type="line"/>
      <point x="-69.39999999999999" y="-216.79999999999998"/>
      <point x="-28.000000000000007" y="-220.0"/>
      <point x="-13.599999999999994" y="-220.0" type="curve" smooth="yes"/>
      <point x="80.80000000000001" y="-220.0"/>
      <point x="124.19999999999999" y="-155.4"/>
      <point x="142.2" y="-41.199999999999996" type="curve" smooth="yes"/>
    </contour>
  </outline>
</glyph>
